<?xml version="1.0" encoding="utf-8" standalone="no"?>
<!DOCTYPE svg PUBLIC "-//W3C//DTD SVG 1.1//EN"
  "http://www.w3.org/Graphics/SVG/1.1/DTD/svg11.dtd">
<svg xmlns:xlink="http://www.w3.org/1999/xlink" width="546.756188pt" height="271.367625pt" viewBox="0 0 546.756188 271.367625" xmlns="http://www.w3.org/2000/svg" version="1.1">
 <metadata>
  <rdf:RDF xmlns:dc="http://purl.org/dc/elements/1.1/" xmlns:cc="http://creativecommons.org/ns#" xmlns:rdf="http://www.w3.org/1999/02/22-rdf-syntax-ns#">
   <cc:Work>
    <dc:type rdf:resource="http://purl.org/dc/dcmitype/StillImage"/>
    <dc:date>2024-11-16T19:41:22.188992</dc:date>
    <dc:format>image/svg+xml</dc:format>
    <dc:creator>
     <cc:Agent>
      <dc:title>Matplotlib v3.9.2, https://matplotlib.org/</dc:title>
     </cc:Agent>
    </dc:creator>
   </cc:Work>
  </rdf:RDF>
 </metadata>
 <defs>
  <style type="text/css">*{stroke-linejoin: round; stroke-linecap: butt}</style>
 </defs>
 <g id="figure_1">
  <g id="patch_1">
   <path d="M 0 271.367625 
L 546.756188 271.367625 
L 546.756188 0 
L 0 0 
z
" style="fill: #ffffff"/>
  </g>
  <g id="axes_1">
   <g id="patch_2">
    <path d="M 72.425625 223.956 
L 520.661625 223.956 
L 520.661625 7.2 
L 72.425625 7.2 
z
" style="fill: #eaeaf2"/>
   </g>
   <g id="matplotlib.axis_1">
    <g id="xtick_1">
     <g id="line2d_1">
      <path d="M 72.425625 223.956 
L 72.425625 7.2 
" clip-path="url(#pb3ca3e7380)" style="fill: none; stroke: #ffffff; stroke-linecap: round"/>
     </g>
     <g id="text_1">
      <!-- 2,695 -->
      <g style="fill: #262626" transform="translate(53.531062 243.485937) scale(0.132 -0.132)">
       <defs>
        <path id="DejaVuSans-32" d="M 1228 531 
L 3431 531 
L 3431 0 
L 469 0 
L 469 531 
Q 828 903 1448 1529 
Q 2069 2156 2228 2338 
Q 2531 2678 2651 2914 
Q 2772 3150 2772 3378 
Q 2772 3750 2511 3984 
Q 2250 4219 1831 4219 
Q 1534 4219 1204 4116 
Q 875 4013 500 3803 
L 500 4441 
Q 881 4594 1212 4672 
Q 1544 4750 1819 4750 
Q 2544 4750 2975 4387 
Q 3406 4025 3406 3419 
Q 3406 3131 3298 2873 
Q 3191 2616 2906 2266 
Q 2828 2175 2409 1742 
Q 1991 1309 1228 531 
z
" transform="scale(0.015625)"/>
        <path id="DejaVuSans-2c" d="M 750 794 
L 1409 794 
L 1409 256 
L 897 -744 
L 494 -744 
L 750 256 
L 750 794 
z
" transform="scale(0.015625)"/>
        <path id="DejaVuSans-36" d="M 2113 2584 
Q 1688 2584 1439 2293 
Q 1191 2003 1191 1497 
Q 1191 994 1439 701 
Q 1688 409 2113 409 
Q 2538 409 2786 701 
Q 3034 994 3034 1497 
Q 3034 2003 2786 2293 
Q 2538 2584 2113 2584 
z
M 3366 4563 
L 3366 3988 
Q 3128 4100 2886 4159 
Q 2644 4219 2406 4219 
Q 1781 4219 1451 3797 
Q 1122 3375 1075 2522 
Q 1259 2794 1537 2939 
Q 1816 3084 2150 3084 
Q 2853 3084 3261 2657 
Q 3669 2231 3669 1497 
Q 3669 778 3244 343 
Q 2819 -91 2113 -91 
Q 1303 -91 875 529 
Q 447 1150 447 2328 
Q 447 3434 972 4092 
Q 1497 4750 2381 4750 
Q 2619 4750 2861 4703 
Q 3103 4656 3366 4563 
z
" transform="scale(0.015625)"/>
        <path id="DejaVuSans-39" d="M 703 97 
L 703 672 
Q 941 559 1184 500 
Q 1428 441 1663 441 
Q 2288 441 2617 861 
Q 2947 1281 2994 2138 
Q 2813 1869 2534 1725 
Q 2256 1581 1919 1581 
Q 1219 1581 811 2004 
Q 403 2428 403 3163 
Q 403 3881 828 4315 
Q 1253 4750 1959 4750 
Q 2769 4750 3195 4129 
Q 3622 3509 3622 2328 
Q 3622 1225 3098 567 
Q 2575 -91 1691 -91 
Q 1453 -91 1209 -44 
Q 966 3 703 97 
z
M 1959 2075 
Q 2384 2075 2632 2365 
Q 2881 2656 2881 3163 
Q 2881 3666 2632 3958 
Q 2384 4250 1959 4250 
Q 1534 4250 1286 3958 
Q 1038 3666 1038 3163 
Q 1038 2656 1286 2365 
Q 1534 2075 1959 2075 
z
" transform="scale(0.015625)"/>
        <path id="DejaVuSans-35" d="M 691 4666 
L 3169 4666 
L 3169 4134 
L 1269 4134 
L 1269 2991 
Q 1406 3038 1543 3061 
Q 1681 3084 1819 3084 
Q 2600 3084 3056 2656 
Q 3513 2228 3513 1497 
Q 3513 744 3044 326 
Q 2575 -91 1722 -91 
Q 1428 -91 1123 -41 
Q 819 9 494 109 
L 494 744 
Q 775 591 1075 516 
Q 1375 441 1709 441 
Q 2250 441 2565 725 
Q 2881 1009 2881 1497 
Q 2881 1984 2565 2268 
Q 2250 2553 1709 2553 
Q 1456 2553 1204 2497 
Q 953 2441 691 2322 
L 691 4666 
z
" transform="scale(0.015625)"/>
       </defs>
       <use xlink:href="#DejaVuSans-32"/>
       <use xlink:href="#DejaVuSans-2c" x="63.623047"/>
       <use xlink:href="#DejaVuSans-36" x="95.410156"/>
       <use xlink:href="#DejaVuSans-39" x="159.033203"/>
       <use xlink:href="#DejaVuSans-35" x="222.65625"/>
      </g>
     </g>
    </g>
    <g id="xtick_2">
     <g id="line2d_2">
      <path d="M 128.455125 223.956 
L 128.455125 7.2 
" clip-path="url(#pb3ca3e7380)" style="fill: none; stroke: #ffffff; stroke-linecap: round"/>
     </g>
     <g id="text_2">
      <!-- 3,058 -->
      <g style="fill: #262626" transform="translate(109.560563 243.485937) scale(0.132 -0.132)">
       <defs>
        <path id="DejaVuSans-33" d="M 2597 2516 
Q 3050 2419 3304 2112 
Q 3559 1806 3559 1356 
Q 3559 666 3084 287 
Q 2609 -91 1734 -91 
Q 1441 -91 1130 -33 
Q 819 25 488 141 
L 488 750 
Q 750 597 1062 519 
Q 1375 441 1716 441 
Q 2309 441 2620 675 
Q 2931 909 2931 1356 
Q 2931 1769 2642 2001 
Q 2353 2234 1838 2234 
L 1294 2234 
L 1294 2753 
L 1863 2753 
Q 2328 2753 2575 2939 
Q 2822 3125 2822 3475 
Q 2822 3834 2567 4026 
Q 2313 4219 1838 4219 
Q 1578 4219 1281 4162 
Q 984 4106 628 3988 
L 628 4550 
Q 988 4650 1302 4700 
Q 1616 4750 1894 4750 
Q 2613 4750 3031 4423 
Q 3450 4097 3450 3541 
Q 3450 3153 3228 2886 
Q 3006 2619 2597 2516 
z
" transform="scale(0.015625)"/>
        <path id="DejaVuSans-30" d="M 2034 4250 
Q 1547 4250 1301 3770 
Q 1056 3291 1056 2328 
Q 1056 1369 1301 889 
Q 1547 409 2034 409 
Q 2525 409 2770 889 
Q 3016 1369 3016 2328 
Q 3016 3291 2770 3770 
Q 2525 4250 2034 4250 
z
M 2034 4750 
Q 2819 4750 3233 4129 
Q 3647 3509 3647 2328 
Q 3647 1150 3233 529 
Q 2819 -91 2034 -91 
Q 1250 -91 836 529 
Q 422 1150 422 2328 
Q 422 3509 836 4129 
Q 1250 4750 2034 4750 
z
" transform="scale(0.015625)"/>
        <path id="DejaVuSans-38" d="M 2034 2216 
Q 1584 2216 1326 1975 
Q 1069 1734 1069 1313 
Q 1069 891 1326 650 
Q 1584 409 2034 409 
Q 2484 409 2743 651 
Q 3003 894 3003 1313 
Q 3003 1734 2745 1975 
Q 2488 2216 2034 2216 
z
M 1403 2484 
Q 997 2584 770 2862 
Q 544 3141 544 3541 
Q 544 4100 942 4425 
Q 1341 4750 2034 4750 
Q 2731 4750 3128 4425 
Q 3525 4100 3525 3541 
Q 3525 3141 3298 2862 
Q 3072 2584 2669 2484 
Q 3125 2378 3379 2068 
Q 3634 1759 3634 1313 
Q 3634 634 3220 271 
Q 2806 -91 2034 -91 
Q 1263 -91 848 271 
Q 434 634 434 1313 
Q 434 1759 690 2068 
Q 947 2378 1403 2484 
z
M 1172 3481 
Q 1172 3119 1398 2916 
Q 1625 2713 2034 2713 
Q 2441 2713 2670 2916 
Q 2900 3119 2900 3481 
Q 2900 3844 2670 4047 
Q 2441 4250 2034 4250 
Q 1625 4250 1398 4047 
Q 1172 3844 1172 3481 
z
" transform="scale(0.015625)"/>
       </defs>
       <use xlink:href="#DejaVuSans-33"/>
       <use xlink:href="#DejaVuSans-2c" x="63.623047"/>
       <use xlink:href="#DejaVuSans-30" x="95.410156"/>
       <use xlink:href="#DejaVuSans-35" x="159.033203"/>
       <use xlink:href="#DejaVuSans-38" x="222.65625"/>
      </g>
     </g>
    </g>
    <g id="xtick_3">
     <g id="line2d_3">
      <path d="M 184.484625 223.956 
L 184.484625 7.2 
" clip-path="url(#pb3ca3e7380)" style="fill: none; stroke: #ffffff; stroke-linecap: round"/>
     </g>
     <g id="text_3">
      <!-- 3,421 -->
      <g style="fill: #262626" transform="translate(165.590063 243.485937) scale(0.132 -0.132)">
       <defs>
        <path id="DejaVuSans-34" d="M 2419 4116 
L 825 1625 
L 2419 1625 
L 2419 4116 
z
M 2253 4666 
L 3047 4666 
L 3047 1625 
L 3713 1625 
L 3713 1100 
L 3047 1100 
L 3047 0 
L 2419 0 
L 2419 1100 
L 313 1100 
L 313 1709 
L 2253 4666 
z
" transform="scale(0.015625)"/>
        <path id="DejaVuSans-31" d="M 794 531 
L 1825 531 
L 1825 4091 
L 703 3866 
L 703 4441 
L 1819 4666 
L 2450 4666 
L 2450 531 
L 3481 531 
L 3481 0 
L 794 0 
L 794 531 
z
" transform="scale(0.015625)"/>
       </defs>
       <use xlink:href="#DejaVuSans-33"/>
       <use xlink:href="#DejaVuSans-2c" x="63.623047"/>
       <use xlink:href="#DejaVuSans-34" x="95.410156"/>
       <use xlink:href="#DejaVuSans-32" x="159.033203"/>
       <use xlink:href="#DejaVuSans-31" x="222.65625"/>
      </g>
     </g>
    </g>
    <g id="xtick_4">
     <g id="line2d_4">
      <path d="M 240.514125 223.956 
L 240.514125 7.2 
" clip-path="url(#pb3ca3e7380)" style="fill: none; stroke: #ffffff; stroke-linecap: round"/>
     </g>
     <g id="text_4">
      <!-- 3,783 -->
      <g style="fill: #262626" transform="translate(221.619563 243.485937) scale(0.132 -0.132)">
       <defs>
        <path id="DejaVuSans-37" d="M 525 4666 
L 3525 4666 
L 3525 4397 
L 1831 0 
L 1172 0 
L 2766 4134 
L 525 4134 
L 525 4666 
z
" transform="scale(0.015625)"/>
       </defs>
       <use xlink:href="#DejaVuSans-33"/>
       <use xlink:href="#DejaVuSans-2c" x="63.623047"/>
       <use xlink:href="#DejaVuSans-37" x="95.410156"/>
       <use xlink:href="#DejaVuSans-38" x="159.033203"/>
       <use xlink:href="#DejaVuSans-33" x="222.65625"/>
      </g>
     </g>
    </g>
    <g id="xtick_5">
     <g id="line2d_5">
      <path d="M 296.543625 223.956 
L 296.543625 7.2 
" clip-path="url(#pb3ca3e7380)" style="fill: none; stroke: #ffffff; stroke-linecap: round"/>
     </g>
     <g id="text_5">
      <!-- 4,146 -->
      <g style="fill: #262626" transform="translate(277.649062 243.485937) scale(0.132 -0.132)">
       <use xlink:href="#DejaVuSans-34"/>
       <use xlink:href="#DejaVuSans-2c" x="63.623047"/>
       <use xlink:href="#DejaVuSans-31" x="95.410156"/>
       <use xlink:href="#DejaVuSans-34" x="159.033203"/>
       <use xlink:href="#DejaVuSans-36" x="222.65625"/>
      </g>
     </g>
    </g>
    <g id="xtick_6">
     <g id="line2d_6">
      <path d="M 352.573125 223.956 
L 352.573125 7.2 
" clip-path="url(#pb3ca3e7380)" style="fill: none; stroke: #ffffff; stroke-linecap: round"/>
     </g>
     <g id="text_6">
      <!-- 4,509 -->
      <g style="fill: #262626" transform="translate(333.678562 243.485937) scale(0.132 -0.132)">
       <use xlink:href="#DejaVuSans-34"/>
       <use xlink:href="#DejaVuSans-2c" x="63.623047"/>
       <use xlink:href="#DejaVuSans-35" x="95.410156"/>
       <use xlink:href="#DejaVuSans-30" x="159.033203"/>
       <use xlink:href="#DejaVuSans-39" x="222.65625"/>
      </g>
     </g>
    </g>
    <g id="xtick_7">
     <g id="line2d_7">
      <path d="M 408.602625 223.956 
L 408.602625 7.2 
" clip-path="url(#pb3ca3e7380)" style="fill: none; stroke: #ffffff; stroke-linecap: round"/>
     </g>
     <g id="text_7">
      <!-- 4,872 -->
      <g style="fill: #262626" transform="translate(389.708062 243.485937) scale(0.132 -0.132)">
       <use xlink:href="#DejaVuSans-34"/>
       <use xlink:href="#DejaVuSans-2c" x="63.623047"/>
       <use xlink:href="#DejaVuSans-38" x="95.410156"/>
       <use xlink:href="#DejaVuSans-37" x="159.033203"/>
       <use xlink:href="#DejaVuSans-32" x="222.65625"/>
      </g>
     </g>
    </g>
    <g id="xtick_8">
     <g id="line2d_8">
      <path d="M 464.632125 223.956 
L 464.632125 7.2 
" clip-path="url(#pb3ca3e7380)" style="fill: none; stroke: #ffffff; stroke-linecap: round"/>
     </g>
     <g id="text_8">
      <!-- 5,234 -->
      <g style="fill: #262626" transform="translate(445.737563 243.485937) scale(0.132 -0.132)">
       <use xlink:href="#DejaVuSans-35"/>
       <use xlink:href="#DejaVuSans-2c" x="63.623047"/>
       <use xlink:href="#DejaVuSans-32" x="95.410156"/>
       <use xlink:href="#DejaVuSans-33" x="159.033203"/>
       <use xlink:href="#DejaVuSans-34" x="222.65625"/>
      </g>
     </g>
    </g>
    <g id="xtick_9">
     <g id="line2d_9">
      <path d="M 520.661625 223.956 
L 520.661625 7.2 
" clip-path="url(#pb3ca3e7380)" style="fill: none; stroke: #ffffff; stroke-linecap: round"/>
     </g>
     <g id="text_9">
      <!-- 5,597 -->
      <g style="fill: #262626" transform="translate(501.767062 243.485937) scale(0.132 -0.132)">
       <use xlink:href="#DejaVuSans-35"/>
       <use xlink:href="#DejaVuSans-2c" x="63.623047"/>
       <use xlink:href="#DejaVuSans-35" x="95.410156"/>
       <use xlink:href="#DejaVuSans-39" x="159.033203"/>
       <use xlink:href="#DejaVuSans-37" x="222.65625"/>
      </g>
     </g>
    </g>
    <g id="text_10">
     <!-- SLO (s) -->
     <g style="fill: #262626" transform="translate(270.897 261.172875) scale(0.144 -0.144)">
      <defs>
       <path id="DejaVuSans-53" d="M 3425 4513 
L 3425 3897 
Q 3066 4069 2747 4153 
Q 2428 4238 2131 4238 
Q 1616 4238 1336 4038 
Q 1056 3838 1056 3469 
Q 1056 3159 1242 3001 
Q 1428 2844 1947 2747 
L 2328 2669 
Q 3034 2534 3370 2195 
Q 3706 1856 3706 1288 
Q 3706 609 3251 259 
Q 2797 -91 1919 -91 
Q 1588 -91 1214 -16 
Q 841 59 441 206 
L 441 856 
Q 825 641 1194 531 
Q 1563 422 1919 422 
Q 2459 422 2753 634 
Q 3047 847 3047 1241 
Q 3047 1584 2836 1778 
Q 2625 1972 2144 2069 
L 1759 2144 
Q 1053 2284 737 2584 
Q 422 2884 422 3419 
Q 422 4038 858 4394 
Q 1294 4750 2059 4750 
Q 2388 4750 2728 4690 
Q 3069 4631 3425 4513 
z
" transform="scale(0.015625)"/>
       <path id="DejaVuSans-4c" d="M 628 4666 
L 1259 4666 
L 1259 531 
L 3531 531 
L 3531 0 
L 628 0 
L 628 4666 
z
" transform="scale(0.015625)"/>
       <path id="DejaVuSans-4f" d="M 2522 4238 
Q 1834 4238 1429 3725 
Q 1025 3213 1025 2328 
Q 1025 1447 1429 934 
Q 1834 422 2522 422 
Q 3209 422 3611 934 
Q 4013 1447 4013 2328 
Q 4013 3213 3611 3725 
Q 3209 4238 2522 4238 
z
M 2522 4750 
Q 3503 4750 4090 4092 
Q 4678 3434 4678 2328 
Q 4678 1225 4090 567 
Q 3503 -91 2522 -91 
Q 1538 -91 948 565 
Q 359 1222 359 2328 
Q 359 3434 948 4092 
Q 1538 4750 2522 4750 
z
" transform="scale(0.015625)"/>
       <path id="DejaVuSans-20" transform="scale(0.015625)"/>
       <path id="DejaVuSans-28" d="M 1984 4856 
Q 1566 4138 1362 3434 
Q 1159 2731 1159 2009 
Q 1159 1288 1364 580 
Q 1569 -128 1984 -844 
L 1484 -844 
Q 1016 -109 783 600 
Q 550 1309 550 2009 
Q 550 2706 781 3412 
Q 1013 4119 1484 4856 
L 1984 4856 
z
" transform="scale(0.015625)"/>
       <path id="DejaVuSans-73" d="M 2834 3397 
L 2834 2853 
Q 2591 2978 2328 3040 
Q 2066 3103 1784 3103 
Q 1356 3103 1142 2972 
Q 928 2841 928 2578 
Q 928 2378 1081 2264 
Q 1234 2150 1697 2047 
L 1894 2003 
Q 2506 1872 2764 1633 
Q 3022 1394 3022 966 
Q 3022 478 2636 193 
Q 2250 -91 1575 -91 
Q 1294 -91 989 -36 
Q 684 19 347 128 
L 347 722 
Q 666 556 975 473 
Q 1284 391 1588 391 
Q 1994 391 2212 530 
Q 2431 669 2431 922 
Q 2431 1156 2273 1281 
Q 2116 1406 1581 1522 
L 1381 1569 
Q 847 1681 609 1914 
Q 372 2147 372 2553 
Q 372 3047 722 3315 
Q 1072 3584 1716 3584 
Q 2034 3584 2315 3537 
Q 2597 3491 2834 3397 
z
" transform="scale(0.015625)"/>
       <path id="DejaVuSans-29" d="M 513 4856 
L 1013 4856 
Q 1481 4119 1714 3412 
Q 1947 2706 1947 2009 
Q 1947 1309 1714 600 
Q 1481 -109 1013 -844 
L 513 -844 
Q 928 -128 1133 580 
Q 1338 1288 1338 2009 
Q 1338 2731 1133 3434 
Q 928 4138 513 4856 
z
" transform="scale(0.015625)"/>
      </defs>
      <use xlink:href="#DejaVuSans-53"/>
      <use xlink:href="#DejaVuSans-4c" x="63.476562"/>
      <use xlink:href="#DejaVuSans-4f" x="115.564453"/>
      <use xlink:href="#DejaVuSans-20" x="194.275391"/>
      <use xlink:href="#DejaVuSans-28" x="226.0625"/>
      <use xlink:href="#DejaVuSans-73" x="265.076172"/>
      <use xlink:href="#DejaVuSans-29" x="317.175781"/>
     </g>
    </g>
   </g>
   <g id="matplotlib.axis_2">
    <g id="ytick_1">
     <g id="line2d_10">
      <path d="M 72.425625 192.034978 
L 520.661625 192.034978 
" clip-path="url(#pb3ca3e7380)" style="fill: none; stroke: #ffffff; stroke-linecap: round"/>
     </g>
     <g id="text_11">
      <!-- 3,000 -->
      <g style="fill: #262626" transform="translate(25.1365 197.049946) scale(0.132 -0.132)">
       <use xlink:href="#DejaVuSans-33"/>
       <use xlink:href="#DejaVuSans-2c" x="63.623047"/>
       <use xlink:href="#DejaVuSans-30" x="95.410156"/>
       <use xlink:href="#DejaVuSans-30" x="159.033203"/>
       <use xlink:href="#DejaVuSans-30" x="222.65625"/>
      </g>
     </g>
    </g>
    <g id="ytick_2">
     <g id="line2d_11">
      <path d="M 72.425625 151.782398 
L 520.661625 151.782398 
" clip-path="url(#pb3ca3e7380)" style="fill: none; stroke: #ffffff; stroke-linecap: round"/>
     </g>
     <g id="text_12">
      <!-- 4,000 -->
      <g style="fill: #262626" transform="translate(25.1365 156.797367) scale(0.132 -0.132)">
       <use xlink:href="#DejaVuSans-34"/>
       <use xlink:href="#DejaVuSans-2c" x="63.623047"/>
       <use xlink:href="#DejaVuSans-30" x="95.410156"/>
       <use xlink:href="#DejaVuSans-30" x="159.033203"/>
       <use xlink:href="#DejaVuSans-30" x="222.65625"/>
      </g>
     </g>
    </g>
    <g id="ytick_3">
     <g id="line2d_12">
      <path d="M 72.425625 111.529818 
L 520.661625 111.529818 
" clip-path="url(#pb3ca3e7380)" style="fill: none; stroke: #ffffff; stroke-linecap: round"/>
     </g>
     <g id="text_13">
      <!-- 5,000 -->
      <g style="fill: #262626" transform="translate(25.1365 116.544787) scale(0.132 -0.132)">
       <use xlink:href="#DejaVuSans-35"/>
       <use xlink:href="#DejaVuSans-2c" x="63.623047"/>
       <use xlink:href="#DejaVuSans-30" x="95.410156"/>
       <use xlink:href="#DejaVuSans-30" x="159.033203"/>
       <use xlink:href="#DejaVuSans-30" x="222.65625"/>
      </g>
     </g>
    </g>
    <g id="ytick_4">
     <g id="line2d_13">
      <path d="M 72.425625 71.277238 
L 520.661625 71.277238 
" clip-path="url(#pb3ca3e7380)" style="fill: none; stroke: #ffffff; stroke-linecap: round"/>
     </g>
     <g id="text_14">
      <!-- 6,000 -->
      <g style="fill: #262626" transform="translate(25.1365 76.292207) scale(0.132 -0.132)">
       <use xlink:href="#DejaVuSans-36"/>
       <use xlink:href="#DejaVuSans-2c" x="63.623047"/>
       <use xlink:href="#DejaVuSans-30" x="95.410156"/>
       <use xlink:href="#DejaVuSans-30" x="159.033203"/>
       <use xlink:href="#DejaVuSans-30" x="222.65625"/>
      </g>
     </g>
    </g>
    <g id="ytick_5">
     <g id="line2d_14">
      <path d="M 72.425625 31.024659 
L 520.661625 31.024659 
" clip-path="url(#pb3ca3e7380)" style="fill: none; stroke: #ffffff; stroke-linecap: round"/>
     </g>
     <g id="text_15">
      <!-- 7,000 -->
      <g style="fill: #262626" transform="translate(25.1365 36.039627) scale(0.132 -0.132)">
       <use xlink:href="#DejaVuSans-37"/>
       <use xlink:href="#DejaVuSans-2c" x="63.623047"/>
       <use xlink:href="#DejaVuSans-30" x="95.410156"/>
       <use xlink:href="#DejaVuSans-30" x="159.033203"/>
       <use xlink:href="#DejaVuSans-30" x="222.65625"/>
      </g>
     </g>
    </g>
    <g id="text_16">
     <!-- Response Time (s) -->
     <g style="fill: #262626" transform="translate(18.14175 181.720125) rotate(-90) scale(0.144 -0.144)">
      <defs>
       <path id="DejaVuSans-52" d="M 2841 2188 
Q 3044 2119 3236 1894 
Q 3428 1669 3622 1275 
L 4263 0 
L 3584 0 
L 2988 1197 
Q 2756 1666 2539 1819 
Q 2322 1972 1947 1972 
L 1259 1972 
L 1259 0 
L 628 0 
L 628 4666 
L 2053 4666 
Q 2853 4666 3247 4331 
Q 3641 3997 3641 3322 
Q 3641 2881 3436 2590 
Q 3231 2300 2841 2188 
z
M 1259 4147 
L 1259 2491 
L 2053 2491 
Q 2509 2491 2742 2702 
Q 2975 2913 2975 3322 
Q 2975 3731 2742 3939 
Q 2509 4147 2053 4147 
L 1259 4147 
z
" transform="scale(0.015625)"/>
       <path id="DejaVuSans-65" d="M 3597 1894 
L 3597 1613 
L 953 1613 
Q 991 1019 1311 708 
Q 1631 397 2203 397 
Q 2534 397 2845 478 
Q 3156 559 3463 722 
L 3463 178 
Q 3153 47 2828 -22 
Q 2503 -91 2169 -91 
Q 1331 -91 842 396 
Q 353 884 353 1716 
Q 353 2575 817 3079 
Q 1281 3584 2069 3584 
Q 2775 3584 3186 3129 
Q 3597 2675 3597 1894 
z
M 3022 2063 
Q 3016 2534 2758 2815 
Q 2500 3097 2075 3097 
Q 1594 3097 1305 2825 
Q 1016 2553 972 2059 
L 3022 2063 
z
" transform="scale(0.015625)"/>
       <path id="DejaVuSans-70" d="M 1159 525 
L 1159 -1331 
L 581 -1331 
L 581 3500 
L 1159 3500 
L 1159 2969 
Q 1341 3281 1617 3432 
Q 1894 3584 2278 3584 
Q 2916 3584 3314 3078 
Q 3713 2572 3713 1747 
Q 3713 922 3314 415 
Q 2916 -91 2278 -91 
Q 1894 -91 1617 61 
Q 1341 213 1159 525 
z
M 3116 1747 
Q 3116 2381 2855 2742 
Q 2594 3103 2138 3103 
Q 1681 3103 1420 2742 
Q 1159 2381 1159 1747 
Q 1159 1113 1420 752 
Q 1681 391 2138 391 
Q 2594 391 2855 752 
Q 3116 1113 3116 1747 
z
" transform="scale(0.015625)"/>
       <path id="DejaVuSans-6f" d="M 1959 3097 
Q 1497 3097 1228 2736 
Q 959 2375 959 1747 
Q 959 1119 1226 758 
Q 1494 397 1959 397 
Q 2419 397 2687 759 
Q 2956 1122 2956 1747 
Q 2956 2369 2687 2733 
Q 2419 3097 1959 3097 
z
M 1959 3584 
Q 2709 3584 3137 3096 
Q 3566 2609 3566 1747 
Q 3566 888 3137 398 
Q 2709 -91 1959 -91 
Q 1206 -91 779 398 
Q 353 888 353 1747 
Q 353 2609 779 3096 
Q 1206 3584 1959 3584 
z
" transform="scale(0.015625)"/>
       <path id="DejaVuSans-6e" d="M 3513 2113 
L 3513 0 
L 2938 0 
L 2938 2094 
Q 2938 2591 2744 2837 
Q 2550 3084 2163 3084 
Q 1697 3084 1428 2787 
Q 1159 2491 1159 1978 
L 1159 0 
L 581 0 
L 581 3500 
L 1159 3500 
L 1159 2956 
Q 1366 3272 1645 3428 
Q 1925 3584 2291 3584 
Q 2894 3584 3203 3211 
Q 3513 2838 3513 2113 
z
" transform="scale(0.015625)"/>
       <path id="DejaVuSans-54" d="M -19 4666 
L 3928 4666 
L 3928 4134 
L 2272 4134 
L 2272 0 
L 1638 0 
L 1638 4134 
L -19 4134 
L -19 4666 
z
" transform="scale(0.015625)"/>
       <path id="DejaVuSans-69" d="M 603 3500 
L 1178 3500 
L 1178 0 
L 603 0 
L 603 3500 
z
M 603 4863 
L 1178 4863 
L 1178 4134 
L 603 4134 
L 603 4863 
z
" transform="scale(0.015625)"/>
       <path id="DejaVuSans-6d" d="M 3328 2828 
Q 3544 3216 3844 3400 
Q 4144 3584 4550 3584 
Q 5097 3584 5394 3201 
Q 5691 2819 5691 2113 
L 5691 0 
L 5113 0 
L 5113 2094 
Q 5113 2597 4934 2840 
Q 4756 3084 4391 3084 
Q 3944 3084 3684 2787 
Q 3425 2491 3425 1978 
L 3425 0 
L 2847 0 
L 2847 2094 
Q 2847 2600 2669 2842 
Q 2491 3084 2119 3084 
Q 1678 3084 1418 2786 
Q 1159 2488 1159 1978 
L 1159 0 
L 581 0 
L 581 3500 
L 1159 3500 
L 1159 2956 
Q 1356 3278 1631 3431 
Q 1906 3584 2284 3584 
Q 2666 3584 2933 3390 
Q 3200 3197 3328 2828 
z
" transform="scale(0.015625)"/>
      </defs>
      <use xlink:href="#DejaVuSans-52"/>
      <use xlink:href="#DejaVuSans-65" x="64.982422"/>
      <use xlink:href="#DejaVuSans-73" x="126.505859"/>
      <use xlink:href="#DejaVuSans-70" x="178.605469"/>
      <use xlink:href="#DejaVuSans-6f" x="242.082031"/>
      <use xlink:href="#DejaVuSans-6e" x="303.263672"/>
      <use xlink:href="#DejaVuSans-73" x="366.642578"/>
      <use xlink:href="#DejaVuSans-65" x="418.742188"/>
      <use xlink:href="#DejaVuSans-20" x="480.265625"/>
      <use xlink:href="#DejaVuSans-54" x="512.052734"/>
      <use xlink:href="#DejaVuSans-69" x="570.011719"/>
      <use xlink:href="#DejaVuSans-6d" x="597.794922"/>
      <use xlink:href="#DejaVuSans-65" x="695.207031"/>
      <use xlink:href="#DejaVuSans-20" x="756.730469"/>
      <use xlink:href="#DejaVuSans-28" x="788.517578"/>
      <use xlink:href="#DejaVuSans-73" x="827.53125"/>
      <use xlink:href="#DejaVuSans-29" x="879.630859"/>
     </g>
    </g>
   </g>
   <g id="PolyCollection_1"/>
   <g id="PolyCollection_2"/>
   <g id="PolyCollection_3"/>
   <g id="PolyCollection_4"/>
   <g id="PolyCollection_5"/>
   <g id="line2d_15">
    <path d="M 72.425625 214.103455 
L 78.828996 202.939925 
L 85.232368 202.939925 
L 91.635739 202.751583 
L 98.039111 202.748685 
L 104.442482 202.748685 
L 110.845854 202.748685 
L 117.249225 202.748685 
L 123.652596 202.748685 
L 130.055968 202.745787 
L 136.459339 191.956042 
L 142.862711 191.953144 
L 149.266082 191.953144 
L 155.669454 191.953144 
L 162.072825 191.953144 
L 168.476196 191.953144 
L 174.879568 191.953144 
L 181.282939 191.953144 
L 187.686311 181.30046 
L 194.089682 181.30046 
L 200.493054 181.30046 
L 206.896425 181.30046 
L 213.299796 181.30046 
L 219.703168 181.30046 
L 226.106539 181.30046 
L 232.509911 181.30046 
L 238.913282 170.647776 
L 245.316654 170.647776 
L 251.720025 170.647776 
L 258.123396 170.647776 
L 264.526768 170.647776 
L 270.930139 170.647776 
L 277.333511 170.647776 
L 283.736882 170.647776 
L 290.140254 159.86093 
L 296.543625 159.86093 
L 302.946996 159.86093 
L 309.350368 159.86093 
L 315.753739 159.86093 
L 322.157111 159.86093 
L 328.560482 159.86093 
L 334.963854 159.86093 
L 341.367225 149.208245 
L 347.770596 149.208245 
L 354.173968 149.208245 
L 360.577339 149.208245 
L 366.980711 149.208245 
L 373.384082 149.208245 
L 379.787454 149.208245 
L 386.190825 149.208245 
L 392.594196 138.555561 
L 398.997568 138.555561 
L 405.400939 138.555561 
L 411.804311 138.555561 
L 418.207682 138.555561 
L 424.611054 138.555561 
L 431.014425 138.555561 
L 437.417796 138.555561 
L 443.821168 127.902877 
L 450.224539 127.902877 
L 456.627911 127.902877 
L 463.031282 127.902877 
L 469.434654 127.902877 
L 475.838025 127.902877 
L 482.241396 127.902877 
L 488.644768 127.902877 
L 495.048139 127.902877 
L 501.451511 117.116031 
L 507.854882 117.116031 
L 514.258254 117.116031 
L 520.661625 117.116031 
" clip-path="url(#pb3ca3e7380)" style="fill: none; stroke: #dd8452; stroke-width: 1.5; stroke-linecap: round"/>
   </g>
   <g id="line2d_16">
    <path d="M 72.425625 206.520191 
L 78.828996 206.520191 
L 85.232368 205.260124 
L 91.635739 205.260124 
L 98.039111 204.000057 
L 104.442482 202.73999 
L 110.845854 202.73999 
L 117.249225 202.73999 
L 123.652596 202.73999 
L 130.055968 202.73999 
L 136.459339 191.953144 
L 142.862711 191.953144 
L 149.266082 191.953144 
L 155.669454 191.953144 
L 162.072825 191.953144 
L 168.476196 191.953144 
L 174.879568 191.953144 
L 181.282939 191.953144 
L 187.686311 191.953144 
L 194.089682 181.30046 
L 200.493054 181.30046 
L 206.896425 181.30046 
L 213.299796 181.30046 
L 219.703168 181.30046 
L 226.106539 181.30046 
L 232.509911 181.30046 
L 238.913282 181.30046 
L 245.316654 170.647776 
L 251.720025 170.647776 
L 258.123396 170.647776 
L 264.526768 170.647776 
L 270.930139 170.647776 
L 277.333511 170.647776 
L 283.736882 170.647776 
L 290.140254 170.647776 
L 296.543625 170.647776 
L 302.946996 159.86093 
L 309.350368 159.86093 
L 315.753739 159.86093 
L 322.157111 159.86093 
L 328.560482 159.86093 
L 334.963854 159.86093 
L 341.367225 159.86093 
L 347.770596 159.86093 
L 354.173968 159.86093 
L 360.577339 149.208245 
L 366.980711 149.208245 
L 373.384082 149.208245 
L 379.787454 149.208245 
L 386.190825 149.208245 
L 392.594196 149.208245 
L 398.997568 149.208245 
L 405.400939 149.208245 
L 411.804311 138.555561 
L 418.207682 138.555561 
L 424.611054 138.555561 
L 431.014425 138.555561 
L 437.417796 138.555561 
L 443.821168 138.555561 
L 450.224539 138.555561 
L 456.627911 138.555561 
L 463.031282 138.555561 
L 469.434654 127.902877 
L 475.838025 127.902877 
L 482.241396 127.902877 
L 488.644768 127.902877 
L 495.048139 127.902877 
L 501.451511 127.902877 
L 507.854882 127.902877 
L 514.258254 127.902877 
L 520.661625 117.178825 
" clip-path="url(#pb3ca3e7380)" style="fill: none; stroke: #4c72b0; stroke-width: 1.5; stroke-linecap: round"/>
   </g>
   <g id="line2d_17">
    <path d="M 72.425625 190.294013 
L 78.828996 188.063819 
L 85.232368 188.063819 
L 91.635739 185.833625 
L 98.039111 185.833625 
L 104.442482 181.969699 
L 110.845854 179.739505 
L 117.249225 179.739505 
L 123.652596 175.87558 
L 130.055968 175.87558 
L 136.459339 173.645385 
L 142.862711 169.78146 
L 149.266082 169.78146 
L 155.669454 169.78146 
L 162.072825 166.563185 
L 168.476196 166.563185 
L 174.879568 166.563185 
L 181.282939 161.31912 
L 187.686311 161.31912 
L 194.089682 158.100845 
L 200.493054 158.100845 
L 206.896425 158.100845 
L 213.299796 152.85678 
L 219.703168 152.85678 
L 226.106539 152.85678 
L 232.509911 147.612714 
L 238.913282 147.612714 
L 245.316654 144.394439 
L 251.720025 144.394439 
L 258.123396 144.394439 
L 264.526768 141.176165 
L 270.930139 141.176165 
L 277.333511 77.710365 
L 283.736882 75.493857 
L 290.140254 73.94047 
L 296.543625 70.833695 
L 302.946996 68.617187 
L 309.350368 66.400679 
L 315.753739 65.074437 
L 322.157111 62.857928 
L 328.560482 62.991406 
L 334.963854 62.929658 
L 341.367225 62.929658 
L 347.770596 60.699464 
L 354.173968 60.699464 
L 360.577339 56.835539 
L 366.980711 56.835539 
L 373.384082 52.971613 
L 379.787454 49.107687 
L 386.190825 49.107687 
L 392.594196 45.243762 
L 398.997568 45.243762 
L 405.400939 43.013568 
L 411.804311 39.149642 
L 418.207682 39.149642 
L 424.611054 36.919448 
L 431.014425 36.919448 
L 437.417796 34.689254 
L 443.821168 34.689254 
L 450.224539 32.459059 
L 456.627911 28.595134 
L 463.031282 28.595134 
L 469.434654 24.731208 
L 475.838025 24.731208 
L 482.241396 22.501014 
L 488.644768 22.501014 
L 495.048139 20.27082 
L 501.451511 20.27082 
L 507.854882 17.052545 
L 514.258254 17.052545 
L 520.661625 17.052545 
" clip-path="url(#pb3ca3e7380)" style="fill: none; stroke: #55a868; stroke-width: 1.5; stroke-linecap: round"/>
   </g>
   <g id="line2d_18">
    <path d="M 72.425625 204.344579 
L 78.828996 204.344579 
L 85.232368 204.344579 
L 91.635739 202.665724 
L 98.039111 191.878878 
L 104.442482 198.89611 
L 110.845854 197.217256 
L 117.249225 186.43041 
L 123.652596 193.691895 
L 130.055968 192.01304 
L 136.459339 189.788119 
L 142.862711 188.109264 
L 149.266082 188.109264 
L 155.669454 186.564572 
L 162.072825 183.03921 
L 168.476196 182.660796 
L 174.879568 181.116103 
L 181.282939 170.329257 
L 187.686311 177.322418 
L 194.089682 175.777726 
L 200.493054 164.880789 
L 206.896425 171.87395 
L 213.299796 171.87395 
L 219.703168 170.329257 
L 226.106539 166.938058 
L 232.509911 166.669734 
L 238.913282 163.034282 
L 245.316654 162.765958 
L 251.720025 161.221266 
L 258.123396 159.676573 
L 264.526768 157.31749 
L 270.930139 155.772797 
L 277.333511 154.228104 
L 283.736882 143.57542 
L 290.140254 150.568581 
L 296.543625 148.477822 
L 302.946996 148.209498 
L 309.350368 146.664806 
L 315.753739 145.120113 
L 322.157111 143.441258 
L 328.560482 141.216337 
L 334.963854 139.671645 
L 341.367225 137.99279 
L 347.770596 135.87796 
L 354.173968 134.333267 
L 360.577339 132.544321 
L 366.980711 121.891637 
L 373.384082 128.884798 
L 379.787454 127.205944 
L 386.190825 116.55326 
L 392.594196 125.225275 
L 398.997568 123.43633 
L 405.400939 121.3215 
L 411.804311 119.776807 
L 418.207682 118.232114 
L 424.611054 115.873031 
L 431.014425 114.328339 
L 437.417796 112.649484 
L 443.821168 111.104791 
L 450.224539 100.452107 
L 456.627911 107.445268 
L 463.031282 106.76504 
L 469.434654 105.220347 
L 475.838025 103.541492 
L 482.241396 100.452107 
L 488.644768 100.016131 
L 495.048139 97.657048 
L 501.451511 96.112356 
L 507.854882 94.567663 
L 514.258254 92.888808 
L 520.661625 91.344115 
" clip-path="url(#pb3ca3e7380)" style="fill: none; stroke: #c44e52; stroke-width: 1.5; stroke-linecap: round"/>
   </g>
   <g id="line2d_19">
    <path d="M 72.425625 204.313383 
L 78.828996 202.644471 
L 85.232368 200.975559 
L 91.635739 199.306646 
L 98.039111 197.637734 
L 104.442482 195.968822 
L 110.845854 194.29991 
L 117.249225 192.630998 
L 123.652596 190.962085 
L 130.055968 189.293173 
L 136.459339 187.624261 
L 142.862711 185.955349 
L 149.266082 184.286437 
L 155.669454 182.617524 
L 162.072825 180.948612 
L 168.476196 179.2797 
L 174.879568 177.610788 
L 181.282939 175.941876 
L 187.686311 174.272963 
L 194.089682 172.604051 
L 200.493054 170.935139 
L 206.896425 169.266227 
L 213.299796 167.597315 
L 219.703168 165.928402 
L 226.106539 164.25949 
L 232.509911 162.590578 
L 238.913282 160.921666 
L 245.316654 159.252753 
L 251.720025 157.583841 
L 258.123396 155.914929 
L 264.526768 154.246017 
L 270.930139 152.577105 
L 277.333511 150.908192 
L 283.736882 149.23928 
L 290.140254 147.570368 
L 296.543625 145.901456 
L 302.946996 144.232544 
L 309.350368 142.563631 
L 315.753739 140.894719 
L 322.157111 139.225807 
L 328.560482 137.556895 
L 334.963854 135.887983 
L 341.367225 134.21907 
L 347.770596 132.550158 
L 354.173968 130.881246 
L 360.577339 129.212334 
L 366.980711 127.543421 
L 373.384082 125.874509 
L 379.787454 124.205597 
L 386.190825 122.536685 
L 392.594196 120.867773 
L 398.997568 119.19886 
L 405.400939 117.529948 
L 411.804311 115.861036 
L 418.207682 114.192124 
L 424.611054 112.523212 
L 431.014425 110.854299 
L 437.417796 109.185387 
L 443.821168 107.516475 
L 450.224539 105.847563 
L 456.627911 104.178651 
L 463.031282 102.509738 
L 469.434654 100.840826 
L 475.838025 99.171914 
L 482.241396 97.503002 
L 488.644768 95.83409 
L 495.048139 94.165177 
L 501.451511 92.496265 
L 507.854882 90.827353 
L 514.258254 89.158441 
L 520.661625 87.489528 
" clip-path="url(#pb3ca3e7380)" style="fill: none; stroke-dasharray: 4.5,4.5; stroke-dashoffset: 0; stroke: #000000; stroke-width: 1.5"/>
   </g>
   <g id="line2d_20"/>
   <g id="line2d_21"/>
   <g id="line2d_22"/>
   <g id="line2d_23"/>
   <g id="line2d_24"/>
   <g id="patch_3">
    <path d="M 72.425625 223.956 
L 72.425625 7.2 
" style="fill: none; stroke: #ffffff; stroke-width: 1.25; stroke-linejoin: miter; stroke-linecap: square"/>
   </g>
   <g id="patch_4">
    <path d="M 72.425625 223.956 
L 520.661625 223.956 
" style="fill: none; stroke: #ffffff; stroke-width: 1.25; stroke-linejoin: miter; stroke-linecap: square"/>
   </g>
  </g>
  <g id="legend_1">
   <g id="patch_5">
    <path d="M 86.453625 127.883625 
L 201.506062 127.883625 
Q 204.146062 127.883625 204.146062 125.243625 
L 204.146062 29.688 
Q 204.146062 27.048 201.506062 27.048 
L 86.453625 27.048 
Q 83.813625 27.048 83.813625 29.688 
L 83.813625 125.243625 
Q 83.813625 127.883625 86.453625 127.883625 
z
" style="fill: #eaeaf2; opacity: 0.8; stroke: #cccccc; stroke-linejoin: miter"/>
   </g>
   <g id="line2d_25">
    <path d="M 89.093625 37.737937 
L 102.293625 37.737937 
L 115.493625 37.737937 
" style="fill: none; stroke: #dd8452; stroke-width: 1.5; stroke-linecap: round"/>
   </g>
   <g id="text_17">
    <!-- CF-Oracle -->
    <g style="fill: #262626" transform="translate(126.053625 42.357937) scale(0.132 -0.132)">
     <defs>
      <path id="DejaVuSans-43" d="M 4122 4306 
L 4122 3641 
Q 3803 3938 3442 4084 
Q 3081 4231 2675 4231 
Q 1875 4231 1450 3742 
Q 1025 3253 1025 2328 
Q 1025 1406 1450 917 
Q 1875 428 2675 428 
Q 3081 428 3442 575 
Q 3803 722 4122 1019 
L 4122 359 
Q 3791 134 3420 21 
Q 3050 -91 2638 -91 
Q 1578 -91 968 557 
Q 359 1206 359 2328 
Q 359 3453 968 4101 
Q 1578 4750 2638 4750 
Q 3056 4750 3426 4639 
Q 3797 4528 4122 4306 
z
" transform="scale(0.015625)"/>
      <path id="DejaVuSans-46" d="M 628 4666 
L 3309 4666 
L 3309 4134 
L 1259 4134 
L 1259 2759 
L 3109 2759 
L 3109 2228 
L 1259 2228 
L 1259 0 
L 628 0 
L 628 4666 
z
" transform="scale(0.015625)"/>
      <path id="DejaVuSans-2d" d="M 313 2009 
L 1997 2009 
L 1997 1497 
L 313 1497 
L 313 2009 
z
" transform="scale(0.015625)"/>
      <path id="DejaVuSans-72" d="M 2631 2963 
Q 2534 3019 2420 3045 
Q 2306 3072 2169 3072 
Q 1681 3072 1420 2755 
Q 1159 2438 1159 1844 
L 1159 0 
L 581 0 
L 581 3500 
L 1159 3500 
L 1159 2956 
Q 1341 3275 1631 3429 
Q 1922 3584 2338 3584 
Q 2397 3584 2469 3576 
Q 2541 3569 2628 3553 
L 2631 2963 
z
" transform="scale(0.015625)"/>
      <path id="DejaVuSans-61" d="M 2194 1759 
Q 1497 1759 1228 1600 
Q 959 1441 959 1056 
Q 959 750 1161 570 
Q 1363 391 1709 391 
Q 2188 391 2477 730 
Q 2766 1069 2766 1631 
L 2766 1759 
L 2194 1759 
z
M 3341 1997 
L 3341 0 
L 2766 0 
L 2766 531 
Q 2569 213 2275 61 
Q 1981 -91 1556 -91 
Q 1019 -91 701 211 
Q 384 513 384 1019 
Q 384 1609 779 1909 
Q 1175 2209 1959 2209 
L 2766 2209 
L 2766 2266 
Q 2766 2663 2505 2880 
Q 2244 3097 1772 3097 
Q 1472 3097 1187 3025 
Q 903 2953 641 2809 
L 641 3341 
Q 956 3463 1253 3523 
Q 1550 3584 1831 3584 
Q 2591 3584 2966 3190 
Q 3341 2797 3341 1997 
z
" transform="scale(0.015625)"/>
      <path id="DejaVuSans-63" d="M 3122 3366 
L 3122 2828 
Q 2878 2963 2633 3030 
Q 2388 3097 2138 3097 
Q 1578 3097 1268 2742 
Q 959 2388 959 1747 
Q 959 1106 1268 751 
Q 1578 397 2138 397 
Q 2388 397 2633 464 
Q 2878 531 3122 666 
L 3122 134 
Q 2881 22 2623 -34 
Q 2366 -91 2075 -91 
Q 1284 -91 818 406 
Q 353 903 353 1747 
Q 353 2603 823 3093 
Q 1294 3584 2113 3584 
Q 2378 3584 2631 3529 
Q 2884 3475 3122 3366 
z
" transform="scale(0.015625)"/>
      <path id="DejaVuSans-6c" d="M 603 4863 
L 1178 4863 
L 1178 0 
L 603 0 
L 603 4863 
z
" transform="scale(0.015625)"/>
     </defs>
     <use xlink:href="#DejaVuSans-43"/>
     <use xlink:href="#DejaVuSans-46" x="69.824219"/>
     <use xlink:href="#DejaVuSans-2d" x="127.34375"/>
     <use xlink:href="#DejaVuSans-4f" x="166.177734"/>
     <use xlink:href="#DejaVuSans-72" x="244.888672"/>
     <use xlink:href="#DejaVuSans-61" x="286.001953"/>
     <use xlink:href="#DejaVuSans-63" x="347.28125"/>
     <use xlink:href="#DejaVuSans-6c" x="402.261719"/>
     <use xlink:href="#DejaVuSans-65" x="430.044922"/>
    </g>
   </g>
   <g id="line2d_26">
    <path d="M 89.093625 57.113062 
L 102.293625 57.113062 
L 115.493625 57.113062 
" style="fill: none; stroke: #4c72b0; stroke-width: 1.5; stroke-linecap: round"/>
   </g>
   <g id="text_18">
    <!-- ChunkFunc -->
    <g style="fill: #262626" transform="translate(126.053625 61.733062) scale(0.132 -0.132)">
     <defs>
      <path id="DejaVuSans-68" d="M 3513 2113 
L 3513 0 
L 2938 0 
L 2938 2094 
Q 2938 2591 2744 2837 
Q 2550 3084 2163 3084 
Q 1697 3084 1428 2787 
Q 1159 2491 1159 1978 
L 1159 0 
L 581 0 
L 581 4863 
L 1159 4863 
L 1159 2956 
Q 1366 3272 1645 3428 
Q 1925 3584 2291 3584 
Q 2894 3584 3203 3211 
Q 3513 2838 3513 2113 
z
" transform="scale(0.015625)"/>
      <path id="DejaVuSans-75" d="M 544 1381 
L 544 3500 
L 1119 3500 
L 1119 1403 
Q 1119 906 1312 657 
Q 1506 409 1894 409 
Q 2359 409 2629 706 
Q 2900 1003 2900 1516 
L 2900 3500 
L 3475 3500 
L 3475 0 
L 2900 0 
L 2900 538 
Q 2691 219 2414 64 
Q 2138 -91 1772 -91 
Q 1169 -91 856 284 
Q 544 659 544 1381 
z
M 1991 3584 
L 1991 3584 
z
" transform="scale(0.015625)"/>
      <path id="DejaVuSans-6b" d="M 581 4863 
L 1159 4863 
L 1159 1991 
L 2875 3500 
L 3609 3500 
L 1753 1863 
L 3688 0 
L 2938 0 
L 1159 1709 
L 1159 0 
L 581 0 
L 581 4863 
z
" transform="scale(0.015625)"/>
     </defs>
     <use xlink:href="#DejaVuSans-43"/>
     <use xlink:href="#DejaVuSans-68" x="69.824219"/>
     <use xlink:href="#DejaVuSans-75" x="133.203125"/>
     <use xlink:href="#DejaVuSans-6e" x="196.582031"/>
     <use xlink:href="#DejaVuSans-6b" x="259.960938"/>
     <use xlink:href="#DejaVuSans-46" x="317.871094"/>
     <use xlink:href="#DejaVuSans-75" x="369.890625"/>
     <use xlink:href="#DejaVuSans-6e" x="433.269531"/>
     <use xlink:href="#DejaVuSans-63" x="496.648438"/>
    </g>
   </g>
   <g id="line2d_27">
    <path d="M 89.093625 76.488187 
L 102.293625 76.488187 
L 115.493625 76.488187 
" style="fill: none; stroke: #55a868; stroke-width: 1.5; stroke-linecap: round"/>
   </g>
   <g id="text_19">
    <!-- SLAM -->
    <g style="fill: #262626" transform="translate(126.053625 81.108187) scale(0.132 -0.132)">
     <defs>
      <path id="DejaVuSans-41" d="M 2188 4044 
L 1331 1722 
L 3047 1722 
L 2188 4044 
z
M 1831 4666 
L 2547 4666 
L 4325 0 
L 3669 0 
L 3244 1197 
L 1141 1197 
L 716 0 
L 50 0 
L 1831 4666 
z
" transform="scale(0.015625)"/>
      <path id="DejaVuSans-4d" d="M 628 4666 
L 1569 4666 
L 2759 1491 
L 3956 4666 
L 4897 4666 
L 4897 0 
L 4281 0 
L 4281 4097 
L 3078 897 
L 2444 897 
L 1241 4097 
L 1241 0 
L 628 0 
L 628 4666 
z
" transform="scale(0.015625)"/>
     </defs>
     <use xlink:href="#DejaVuSans-53"/>
     <use xlink:href="#DejaVuSans-4c" x="63.476562"/>
     <use xlink:href="#DejaVuSans-41" x="121.439453"/>
     <use xlink:href="#DejaVuSans-4d" x="189.847656"/>
    </g>
   </g>
   <g id="line2d_28">
    <path d="M 89.093625 95.863313 
L 102.293625 95.863313 
L 115.493625 95.863313 
" style="fill: none; stroke: #c44e52; stroke-width: 1.5; stroke-linecap: round"/>
   </g>
   <g id="text_20">
    <!-- StepConf -->
    <g style="fill: #262626" transform="translate(126.053625 100.483313) scale(0.132 -0.132)">
     <defs>
      <path id="DejaVuSans-74" d="M 1172 4494 
L 1172 3500 
L 2356 3500 
L 2356 3053 
L 1172 3053 
L 1172 1153 
Q 1172 725 1289 603 
Q 1406 481 1766 481 
L 2356 481 
L 2356 0 
L 1766 0 
Q 1100 0 847 248 
Q 594 497 594 1153 
L 594 3053 
L 172 3053 
L 172 3500 
L 594 3500 
L 594 4494 
L 1172 4494 
z
" transform="scale(0.015625)"/>
      <path id="DejaVuSans-66" d="M 2375 4863 
L 2375 4384 
L 1825 4384 
Q 1516 4384 1395 4259 
Q 1275 4134 1275 3809 
L 1275 3500 
L 2222 3500 
L 2222 3053 
L 1275 3053 
L 1275 0 
L 697 0 
L 697 3053 
L 147 3053 
L 147 3500 
L 697 3500 
L 697 3744 
Q 697 4328 969 4595 
Q 1241 4863 1831 4863 
L 2375 4863 
z
" transform="scale(0.015625)"/>
     </defs>
     <use xlink:href="#DejaVuSans-53"/>
     <use xlink:href="#DejaVuSans-74" x="63.476562"/>
     <use xlink:href="#DejaVuSans-65" x="102.685547"/>
     <use xlink:href="#DejaVuSans-70" x="164.208984"/>
     <use xlink:href="#DejaVuSans-43" x="227.685547"/>
     <use xlink:href="#DejaVuSans-6f" x="297.509766"/>
     <use xlink:href="#DejaVuSans-6e" x="358.691406"/>
     <use xlink:href="#DejaVuSans-66" x="422.070312"/>
    </g>
   </g>
   <g id="line2d_29">
    <path d="M 89.093625 115.238437 
L 102.293625 115.238437 
L 115.493625 115.238437 
" style="fill: none; stroke-dasharray: 4.5,4.5; stroke-dashoffset: 0; stroke: #000000; stroke-width: 1.5"/>
   </g>
   <g id="text_21">
    <!-- SLO -->
    <g style="fill: #262626" transform="translate(126.053625 119.858437) scale(0.132 -0.132)">
     <use xlink:href="#DejaVuSans-53"/>
     <use xlink:href="#DejaVuSans-4c" x="63.476562"/>
     <use xlink:href="#DejaVuSans-4f" x="115.564453"/>
    </g>
   </g>
  </g>
 </g>
 <defs>
  <clipPath id="pb3ca3e7380">
   <rect x="72.425625" y="7.2" width="448.236" height="216.756"/>
  </clipPath>
 </defs>
</svg>
