<?xml version="1.0" encoding="utf-8" standalone="no"?>
<!DOCTYPE svg PUBLIC "-//W3C//DTD SVG 1.1//EN"
  "http://www.w3.org/Graphics/SVG/1.1/DTD/svg11.dtd">
<svg xmlns:xlink="http://www.w3.org/1999/xlink" width="544.839963pt" height="271.367625pt" viewBox="0 0 544.839963 271.367625" xmlns="http://www.w3.org/2000/svg" version="1.1">
 <metadata>
  <rdf:RDF xmlns:dc="http://purl.org/dc/elements/1.1/" xmlns:cc="http://creativecommons.org/ns#" xmlns:rdf="http://www.w3.org/1999/02/22-rdf-syntax-ns#">
   <cc:Work>
    <dc:type rdf:resource="http://purl.org/dc/dcmitype/StillImage"/>
    <dc:date>2024-11-16T20:02:24.018690</dc:date>
    <dc:format>image/svg+xml</dc:format>
    <dc:creator>
     <cc:Agent>
      <dc:title>Matplotlib v3.9.2, https://matplotlib.org/</dc:title>
     </cc:Agent>
    </dc:creator>
   </cc:Work>
  </rdf:RDF>
 </metadata>
 <defs>
  <style type="text/css">*{stroke-linejoin: round; stroke-linecap: butt}</style>
 </defs>
 <g id="figure_1">
  <g id="patch_1">
   <path d="M 0 271.367625 
L 544.839963 271.367625 
L 544.839963 0 
L 0 0 
z
" style="fill: #ffffff"/>
  </g>
  <g id="axes_1">
   <g id="patch_2">
    <path d="M 72.425625 223.956 
L 518.7454 223.956 
L 518.7454 7.2 
L 72.425625 7.2 
z
" style="fill: #eaeaf2"/>
   </g>
   <g id="matplotlib.axis_1">
    <g id="xtick_1">
     <g id="line2d_1">
      <path d="M 72.425625 223.956 
L 72.425625 7.2 
" clip-path="url(#pcf9662495d)" style="fill: none; stroke: #ffffff; stroke-linecap: round"/>
     </g>
     <g id="text_1">
      <!-- 2,389 -->
      <g style="fill: #262626" transform="translate(53.531062 243.485937) scale(0.132 -0.132)">
       <defs>
        <path id="DejaVuSans-32" d="M 1228 531 
L 3431 531 
L 3431 0 
L 469 0 
L 469 531 
Q 828 903 1448 1529 
Q 2069 2156 2228 2338 
Q 2531 2678 2651 2914 
Q 2772 3150 2772 3378 
Q 2772 3750 2511 3984 
Q 2250 4219 1831 4219 
Q 1534 4219 1204 4116 
Q 875 4013 500 3803 
L 500 4441 
Q 881 4594 1212 4672 
Q 1544 4750 1819 4750 
Q 2544 4750 2975 4387 
Q 3406 4025 3406 3419 
Q 3406 3131 3298 2873 
Q 3191 2616 2906 2266 
Q 2828 2175 2409 1742 
Q 1991 1309 1228 531 
z
" transform="scale(0.015625)"/>
        <path id="DejaVuSans-2c" d="M 750 794 
L 1409 794 
L 1409 256 
L 897 -744 
L 494 -744 
L 750 256 
L 750 794 
z
" transform="scale(0.015625)"/>
        <path id="DejaVuSans-33" d="M 2597 2516 
Q 3050 2419 3304 2112 
Q 3559 1806 3559 1356 
Q 3559 666 3084 287 
Q 2609 -91 1734 -91 
Q 1441 -91 1130 -33 
Q 819 25 488 141 
L 488 750 
Q 750 597 1062 519 
Q 1375 441 1716 441 
Q 2309 441 2620 675 
Q 2931 909 2931 1356 
Q 2931 1769 2642 2001 
Q 2353 2234 1838 2234 
L 1294 2234 
L 1294 2753 
L 1863 2753 
Q 2328 2753 2575 2939 
Q 2822 3125 2822 3475 
Q 2822 3834 2567 4026 
Q 2313 4219 1838 4219 
Q 1578 4219 1281 4162 
Q 984 4106 628 3988 
L 628 4550 
Q 988 4650 1302 4700 
Q 1616 4750 1894 4750 
Q 2613 4750 3031 4423 
Q 3450 4097 3450 3541 
Q 3450 3153 3228 2886 
Q 3006 2619 2597 2516 
z
" transform="scale(0.015625)"/>
        <path id="DejaVuSans-38" d="M 2034 2216 
Q 1584 2216 1326 1975 
Q 1069 1734 1069 1313 
Q 1069 891 1326 650 
Q 1584 409 2034 409 
Q 2484 409 2743 651 
Q 3003 894 3003 1313 
Q 3003 1734 2745 1975 
Q 2488 2216 2034 2216 
z
M 1403 2484 
Q 997 2584 770 2862 
Q 544 3141 544 3541 
Q 544 4100 942 4425 
Q 1341 4750 2034 4750 
Q 2731 4750 3128 4425 
Q 3525 4100 3525 3541 
Q 3525 3141 3298 2862 
Q 3072 2584 2669 2484 
Q 3125 2378 3379 2068 
Q 3634 1759 3634 1313 
Q 3634 634 3220 271 
Q 2806 -91 2034 -91 
Q 1263 -91 848 271 
Q 434 634 434 1313 
Q 434 1759 690 2068 
Q 947 2378 1403 2484 
z
M 1172 3481 
Q 1172 3119 1398 2916 
Q 1625 2713 2034 2713 
Q 2441 2713 2670 2916 
Q 2900 3119 2900 3481 
Q 2900 3844 2670 4047 
Q 2441 4250 2034 4250 
Q 1625 4250 1398 4047 
Q 1172 3844 1172 3481 
z
" transform="scale(0.015625)"/>
        <path id="DejaVuSans-39" d="M 703 97 
L 703 672 
Q 941 559 1184 500 
Q 1428 441 1663 441 
Q 2288 441 2617 861 
Q 2947 1281 2994 2138 
Q 2813 1869 2534 1725 
Q 2256 1581 1919 1581 
Q 1219 1581 811 2004 
Q 403 2428 403 3163 
Q 403 3881 828 4315 
Q 1253 4750 1959 4750 
Q 2769 4750 3195 4129 
Q 3622 3509 3622 2328 
Q 3622 1225 3098 567 
Q 2575 -91 1691 -91 
Q 1453 -91 1209 -44 
Q 966 3 703 97 
z
M 1959 2075 
Q 2384 2075 2632 2365 
Q 2881 2656 2881 3163 
Q 2881 3666 2632 3958 
Q 2384 4250 1959 4250 
Q 1534 4250 1286 3958 
Q 1038 3666 1038 3163 
Q 1038 2656 1286 2365 
Q 1534 2075 1959 2075 
z
" transform="scale(0.015625)"/>
       </defs>
       <use xlink:href="#DejaVuSans-32"/>
       <use xlink:href="#DejaVuSans-2c" x="63.623047"/>
       <use xlink:href="#DejaVuSans-33" x="95.410156"/>
       <use xlink:href="#DejaVuSans-38" x="159.033203"/>
       <use xlink:href="#DejaVuSans-39" x="222.65625"/>
      </g>
     </g>
    </g>
    <g id="xtick_2">
     <g id="line2d_2">
      <path d="M 128.215597 223.956 
L 128.215597 7.2 
" clip-path="url(#pcf9662495d)" style="fill: none; stroke: #ffffff; stroke-linecap: round"/>
     </g>
     <g id="text_2">
      <!-- 2,710 -->
      <g style="fill: #262626" transform="translate(109.321034 243.485937) scale(0.132 -0.132)">
       <defs>
        <path id="DejaVuSans-37" d="M 525 4666 
L 3525 4666 
L 3525 4397 
L 1831 0 
L 1172 0 
L 2766 4134 
L 525 4134 
L 525 4666 
z
" transform="scale(0.015625)"/>
        <path id="DejaVuSans-31" d="M 794 531 
L 1825 531 
L 1825 4091 
L 703 3866 
L 703 4441 
L 1819 4666 
L 2450 4666 
L 2450 531 
L 3481 531 
L 3481 0 
L 794 0 
L 794 531 
z
" transform="scale(0.015625)"/>
        <path id="DejaVuSans-30" d="M 2034 4250 
Q 1547 4250 1301 3770 
Q 1056 3291 1056 2328 
Q 1056 1369 1301 889 
Q 1547 409 2034 409 
Q 2525 409 2770 889 
Q 3016 1369 3016 2328 
Q 3016 3291 2770 3770 
Q 2525 4250 2034 4250 
z
M 2034 4750 
Q 2819 4750 3233 4129 
Q 3647 3509 3647 2328 
Q 3647 1150 3233 529 
Q 2819 -91 2034 -91 
Q 1250 -91 836 529 
Q 422 1150 422 2328 
Q 422 3509 836 4129 
Q 1250 4750 2034 4750 
z
" transform="scale(0.015625)"/>
       </defs>
       <use xlink:href="#DejaVuSans-32"/>
       <use xlink:href="#DejaVuSans-2c" x="63.623047"/>
       <use xlink:href="#DejaVuSans-37" x="95.410156"/>
       <use xlink:href="#DejaVuSans-31" x="159.033203"/>
       <use xlink:href="#DejaVuSans-30" x="222.65625"/>
      </g>
     </g>
    </g>
    <g id="xtick_3">
     <g id="line2d_3">
      <path d="M 184.005569 223.956 
L 184.005569 7.2 
" clip-path="url(#pcf9662495d)" style="fill: none; stroke: #ffffff; stroke-linecap: round"/>
     </g>
     <g id="text_3">
      <!-- 3,032 -->
      <g style="fill: #262626" transform="translate(165.111006 243.485937) scale(0.132 -0.132)">
       <use xlink:href="#DejaVuSans-33"/>
       <use xlink:href="#DejaVuSans-2c" x="63.623047"/>
       <use xlink:href="#DejaVuSans-30" x="95.410156"/>
       <use xlink:href="#DejaVuSans-33" x="159.033203"/>
       <use xlink:href="#DejaVuSans-32" x="222.65625"/>
      </g>
     </g>
    </g>
    <g id="xtick_4">
     <g id="line2d_4">
      <path d="M 239.795541 223.956 
L 239.795541 7.2 
" clip-path="url(#pcf9662495d)" style="fill: none; stroke: #ffffff; stroke-linecap: round"/>
     </g>
     <g id="text_4">
      <!-- 3,353 -->
      <g style="fill: #262626" transform="translate(220.900978 243.485937) scale(0.132 -0.132)">
       <defs>
        <path id="DejaVuSans-35" d="M 691 4666 
L 3169 4666 
L 3169 4134 
L 1269 4134 
L 1269 2991 
Q 1406 3038 1543 3061 
Q 1681 3084 1819 3084 
Q 2600 3084 3056 2656 
Q 3513 2228 3513 1497 
Q 3513 744 3044 326 
Q 2575 -91 1722 -91 
Q 1428 -91 1123 -41 
Q 819 9 494 109 
L 494 744 
Q 775 591 1075 516 
Q 1375 441 1709 441 
Q 2250 441 2565 725 
Q 2881 1009 2881 1497 
Q 2881 1984 2565 2268 
Q 2250 2553 1709 2553 
Q 1456 2553 1204 2497 
Q 953 2441 691 2322 
L 691 4666 
z
" transform="scale(0.015625)"/>
       </defs>
       <use xlink:href="#DejaVuSans-33"/>
       <use xlink:href="#DejaVuSans-2c" x="63.623047"/>
       <use xlink:href="#DejaVuSans-33" x="95.410156"/>
       <use xlink:href="#DejaVuSans-35" x="159.033203"/>
       <use xlink:href="#DejaVuSans-33" x="222.65625"/>
      </g>
     </g>
    </g>
    <g id="xtick_5">
     <g id="line2d_5">
      <path d="M 295.585513 223.956 
L 295.585513 7.2 
" clip-path="url(#pcf9662495d)" style="fill: none; stroke: #ffffff; stroke-linecap: round"/>
     </g>
     <g id="text_5">
      <!-- 3,675 -->
      <g style="fill: #262626" transform="translate(276.69095 243.485937) scale(0.132 -0.132)">
       <defs>
        <path id="DejaVuSans-36" d="M 2113 2584 
Q 1688 2584 1439 2293 
Q 1191 2003 1191 1497 
Q 1191 994 1439 701 
Q 1688 409 2113 409 
Q 2538 409 2786 701 
Q 3034 994 3034 1497 
Q 3034 2003 2786 2293 
Q 2538 2584 2113 2584 
z
M 3366 4563 
L 3366 3988 
Q 3128 4100 2886 4159 
Q 2644 4219 2406 4219 
Q 1781 4219 1451 3797 
Q 1122 3375 1075 2522 
Q 1259 2794 1537 2939 
Q 1816 3084 2150 3084 
Q 2853 3084 3261 2657 
Q 3669 2231 3669 1497 
Q 3669 778 3244 343 
Q 2819 -91 2113 -91 
Q 1303 -91 875 529 
Q 447 1150 447 2328 
Q 447 3434 972 4092 
Q 1497 4750 2381 4750 
Q 2619 4750 2861 4703 
Q 3103 4656 3366 4563 
z
" transform="scale(0.015625)"/>
       </defs>
       <use xlink:href="#DejaVuSans-33"/>
       <use xlink:href="#DejaVuSans-2c" x="63.623047"/>
       <use xlink:href="#DejaVuSans-36" x="95.410156"/>
       <use xlink:href="#DejaVuSans-37" x="159.033203"/>
       <use xlink:href="#DejaVuSans-35" x="222.65625"/>
      </g>
     </g>
    </g>
    <g id="xtick_6">
     <g id="line2d_6">
      <path d="M 351.375485 223.956 
L 351.375485 7.2 
" clip-path="url(#pcf9662495d)" style="fill: none; stroke: #ffffff; stroke-linecap: round"/>
     </g>
     <g id="text_6">
      <!-- 3,996 -->
      <g style="fill: #262626" transform="translate(332.480922 243.485937) scale(0.132 -0.132)">
       <use xlink:href="#DejaVuSans-33"/>
       <use xlink:href="#DejaVuSans-2c" x="63.623047"/>
       <use xlink:href="#DejaVuSans-39" x="95.410156"/>
       <use xlink:href="#DejaVuSans-39" x="159.033203"/>
       <use xlink:href="#DejaVuSans-36" x="222.65625"/>
      </g>
     </g>
    </g>
    <g id="xtick_7">
     <g id="line2d_7">
      <path d="M 407.165456 223.956 
L 407.165456 7.2 
" clip-path="url(#pcf9662495d)" style="fill: none; stroke: #ffffff; stroke-linecap: round"/>
     </g>
     <g id="text_7">
      <!-- 4,318 -->
      <g style="fill: #262626" transform="translate(388.270894 243.485937) scale(0.132 -0.132)">
       <defs>
        <path id="DejaVuSans-34" d="M 2419 4116 
L 825 1625 
L 2419 1625 
L 2419 4116 
z
M 2253 4666 
L 3047 4666 
L 3047 1625 
L 3713 1625 
L 3713 1100 
L 3047 1100 
L 3047 0 
L 2419 0 
L 2419 1100 
L 313 1100 
L 313 1709 
L 2253 4666 
z
" transform="scale(0.015625)"/>
       </defs>
       <use xlink:href="#DejaVuSans-34"/>
       <use xlink:href="#DejaVuSans-2c" x="63.623047"/>
       <use xlink:href="#DejaVuSans-33" x="95.410156"/>
       <use xlink:href="#DejaVuSans-31" x="159.033203"/>
       <use xlink:href="#DejaVuSans-38" x="222.65625"/>
      </g>
     </g>
    </g>
    <g id="xtick_8">
     <g id="line2d_8">
      <path d="M 462.955428 223.956 
L 462.955428 7.2 
" clip-path="url(#pcf9662495d)" style="fill: none; stroke: #ffffff; stroke-linecap: round"/>
     </g>
     <g id="text_8">
      <!-- 4,639 -->
      <g style="fill: #262626" transform="translate(444.060866 243.485937) scale(0.132 -0.132)">
       <use xlink:href="#DejaVuSans-34"/>
       <use xlink:href="#DejaVuSans-2c" x="63.623047"/>
       <use xlink:href="#DejaVuSans-36" x="95.410156"/>
       <use xlink:href="#DejaVuSans-33" x="159.033203"/>
       <use xlink:href="#DejaVuSans-39" x="222.65625"/>
      </g>
     </g>
    </g>
    <g id="xtick_9">
     <g id="line2d_9">
      <path d="M 518.7454 223.956 
L 518.7454 7.2 
" clip-path="url(#pcf9662495d)" style="fill: none; stroke: #ffffff; stroke-linecap: round"/>
     </g>
     <g id="text_9">
      <!-- 4,961 -->
      <g style="fill: #262626" transform="translate(499.850838 243.485937) scale(0.132 -0.132)">
       <use xlink:href="#DejaVuSans-34"/>
       <use xlink:href="#DejaVuSans-2c" x="63.623047"/>
       <use xlink:href="#DejaVuSans-39" x="95.410156"/>
       <use xlink:href="#DejaVuSans-36" x="159.033203"/>
       <use xlink:href="#DejaVuSans-31" x="222.65625"/>
      </g>
     </g>
    </g>
    <g id="text_10">
     <!-- SLO (s) -->
     <g style="fill: #262626" transform="translate(269.938888 261.172875) scale(0.144 -0.144)">
      <defs>
       <path id="DejaVuSans-53" d="M 3425 4513 
L 3425 3897 
Q 3066 4069 2747 4153 
Q 2428 4238 2131 4238 
Q 1616 4238 1336 4038 
Q 1056 3838 1056 3469 
Q 1056 3159 1242 3001 
Q 1428 2844 1947 2747 
L 2328 2669 
Q 3034 2534 3370 2195 
Q 3706 1856 3706 1288 
Q 3706 609 3251 259 
Q 2797 -91 1919 -91 
Q 1588 -91 1214 -16 
Q 841 59 441 206 
L 441 856 
Q 825 641 1194 531 
Q 1563 422 1919 422 
Q 2459 422 2753 634 
Q 3047 847 3047 1241 
Q 3047 1584 2836 1778 
Q 2625 1972 2144 2069 
L 1759 2144 
Q 1053 2284 737 2584 
Q 422 2884 422 3419 
Q 422 4038 858 4394 
Q 1294 4750 2059 4750 
Q 2388 4750 2728 4690 
Q 3069 4631 3425 4513 
z
" transform="scale(0.015625)"/>
       <path id="DejaVuSans-4c" d="M 628 4666 
L 1259 4666 
L 1259 531 
L 3531 531 
L 3531 0 
L 628 0 
L 628 4666 
z
" transform="scale(0.015625)"/>
       <path id="DejaVuSans-4f" d="M 2522 4238 
Q 1834 4238 1429 3725 
Q 1025 3213 1025 2328 
Q 1025 1447 1429 934 
Q 1834 422 2522 422 
Q 3209 422 3611 934 
Q 4013 1447 4013 2328 
Q 4013 3213 3611 3725 
Q 3209 4238 2522 4238 
z
M 2522 4750 
Q 3503 4750 4090 4092 
Q 4678 3434 4678 2328 
Q 4678 1225 4090 567 
Q 3503 -91 2522 -91 
Q 1538 -91 948 565 
Q 359 1222 359 2328 
Q 359 3434 948 4092 
Q 1538 4750 2522 4750 
z
" transform="scale(0.015625)"/>
       <path id="DejaVuSans-20" transform="scale(0.015625)"/>
       <path id="DejaVuSans-28" d="M 1984 4856 
Q 1566 4138 1362 3434 
Q 1159 2731 1159 2009 
Q 1159 1288 1364 580 
Q 1569 -128 1984 -844 
L 1484 -844 
Q 1016 -109 783 600 
Q 550 1309 550 2009 
Q 550 2706 781 3412 
Q 1013 4119 1484 4856 
L 1984 4856 
z
" transform="scale(0.015625)"/>
       <path id="DejaVuSans-73" d="M 2834 3397 
L 2834 2853 
Q 2591 2978 2328 3040 
Q 2066 3103 1784 3103 
Q 1356 3103 1142 2972 
Q 928 2841 928 2578 
Q 928 2378 1081 2264 
Q 1234 2150 1697 2047 
L 1894 2003 
Q 2506 1872 2764 1633 
Q 3022 1394 3022 966 
Q 3022 478 2636 193 
Q 2250 -91 1575 -91 
Q 1294 -91 989 -36 
Q 684 19 347 128 
L 347 722 
Q 666 556 975 473 
Q 1284 391 1588 391 
Q 1994 391 2212 530 
Q 2431 669 2431 922 
Q 2431 1156 2273 1281 
Q 2116 1406 1581 1522 
L 1381 1569 
Q 847 1681 609 1914 
Q 372 2147 372 2553 
Q 372 3047 722 3315 
Q 1072 3584 1716 3584 
Q 2034 3584 2315 3537 
Q 2597 3491 2834 3397 
z
" transform="scale(0.015625)"/>
       <path id="DejaVuSans-29" d="M 513 4856 
L 1013 4856 
Q 1481 4119 1714 3412 
Q 1947 2706 1947 2009 
Q 1947 1309 1714 600 
Q 1481 -109 1013 -844 
L 513 -844 
Q 928 -128 1133 580 
Q 1338 1288 1338 2009 
Q 1338 2731 1133 3434 
Q 928 4138 513 4856 
z
" transform="scale(0.015625)"/>
      </defs>
      <use xlink:href="#DejaVuSans-53"/>
      <use xlink:href="#DejaVuSans-4c" x="63.476562"/>
      <use xlink:href="#DejaVuSans-4f" x="115.564453"/>
      <use xlink:href="#DejaVuSans-20" x="194.275391"/>
      <use xlink:href="#DejaVuSans-28" x="226.0625"/>
      <use xlink:href="#DejaVuSans-73" x="265.076172"/>
      <use xlink:href="#DejaVuSans-29" x="317.175781"/>
     </g>
    </g>
   </g>
   <g id="matplotlib.axis_2">
    <g id="ytick_1">
     <g id="line2d_10">
      <path d="M 72.425625 173.487946 
L 518.7454 173.487946 
" clip-path="url(#pcf9662495d)" style="fill: none; stroke: #ffffff; stroke-linecap: round"/>
     </g>
     <g id="text_11">
      <!-- 3,000 -->
      <g style="fill: #262626" transform="translate(25.1365 178.502915) scale(0.132 -0.132)">
       <use xlink:href="#DejaVuSans-33"/>
       <use xlink:href="#DejaVuSans-2c" x="63.623047"/>
       <use xlink:href="#DejaVuSans-30" x="95.410156"/>
       <use xlink:href="#DejaVuSans-30" x="159.033203"/>
       <use xlink:href="#DejaVuSans-30" x="222.65625"/>
      </g>
     </g>
    </g>
    <g id="ytick_2">
     <g id="line2d_11">
      <path d="M 72.425625 121.295735 
L 518.7454 121.295735 
" clip-path="url(#pcf9662495d)" style="fill: none; stroke: #ffffff; stroke-linecap: round"/>
     </g>
     <g id="text_12">
      <!-- 4,000 -->
      <g style="fill: #262626" transform="translate(25.1365 126.310704) scale(0.132 -0.132)">
       <use xlink:href="#DejaVuSans-34"/>
       <use xlink:href="#DejaVuSans-2c" x="63.623047"/>
       <use xlink:href="#DejaVuSans-30" x="95.410156"/>
       <use xlink:href="#DejaVuSans-30" x="159.033203"/>
       <use xlink:href="#DejaVuSans-30" x="222.65625"/>
      </g>
     </g>
    </g>
    <g id="ytick_3">
     <g id="line2d_12">
      <path d="M 72.425625 69.103524 
L 518.7454 69.103524 
" clip-path="url(#pcf9662495d)" style="fill: none; stroke: #ffffff; stroke-linecap: round"/>
     </g>
     <g id="text_13">
      <!-- 5,000 -->
      <g style="fill: #262626" transform="translate(25.1365 74.118493) scale(0.132 -0.132)">
       <use xlink:href="#DejaVuSans-35"/>
       <use xlink:href="#DejaVuSans-2c" x="63.623047"/>
       <use xlink:href="#DejaVuSans-30" x="95.410156"/>
       <use xlink:href="#DejaVuSans-30" x="159.033203"/>
       <use xlink:href="#DejaVuSans-30" x="222.65625"/>
      </g>
     </g>
    </g>
    <g id="ytick_4">
     <g id="line2d_13">
      <path d="M 72.425625 16.911313 
L 518.7454 16.911313 
" clip-path="url(#pcf9662495d)" style="fill: none; stroke: #ffffff; stroke-linecap: round"/>
     </g>
     <g id="text_14">
      <!-- 6,000 -->
      <g style="fill: #262626" transform="translate(25.1365 21.926282) scale(0.132 -0.132)">
       <use xlink:href="#DejaVuSans-36"/>
       <use xlink:href="#DejaVuSans-2c" x="63.623047"/>
       <use xlink:href="#DejaVuSans-30" x="95.410156"/>
       <use xlink:href="#DejaVuSans-30" x="159.033203"/>
       <use xlink:href="#DejaVuSans-30" x="222.65625"/>
      </g>
     </g>
    </g>
    <g id="text_15">
     <!-- Response Time (s) -->
     <g style="fill: #262626" transform="translate(18.14175 181.720125) rotate(-90) scale(0.144 -0.144)">
      <defs>
       <path id="DejaVuSans-52" d="M 2841 2188 
Q 3044 2119 3236 1894 
Q 3428 1669 3622 1275 
L 4263 0 
L 3584 0 
L 2988 1197 
Q 2756 1666 2539 1819 
Q 2322 1972 1947 1972 
L 1259 1972 
L 1259 0 
L 628 0 
L 628 4666 
L 2053 4666 
Q 2853 4666 3247 4331 
Q 3641 3997 3641 3322 
Q 3641 2881 3436 2590 
Q 3231 2300 2841 2188 
z
M 1259 4147 
L 1259 2491 
L 2053 2491 
Q 2509 2491 2742 2702 
Q 2975 2913 2975 3322 
Q 2975 3731 2742 3939 
Q 2509 4147 2053 4147 
L 1259 4147 
z
" transform="scale(0.015625)"/>
       <path id="DejaVuSans-65" d="M 3597 1894 
L 3597 1613 
L 953 1613 
Q 991 1019 1311 708 
Q 1631 397 2203 397 
Q 2534 397 2845 478 
Q 3156 559 3463 722 
L 3463 178 
Q 3153 47 2828 -22 
Q 2503 -91 2169 -91 
Q 1331 -91 842 396 
Q 353 884 353 1716 
Q 353 2575 817 3079 
Q 1281 3584 2069 3584 
Q 2775 3584 3186 3129 
Q 3597 2675 3597 1894 
z
M 3022 2063 
Q 3016 2534 2758 2815 
Q 2500 3097 2075 3097 
Q 1594 3097 1305 2825 
Q 1016 2553 972 2059 
L 3022 2063 
z
" transform="scale(0.015625)"/>
       <path id="DejaVuSans-70" d="M 1159 525 
L 1159 -1331 
L 581 -1331 
L 581 3500 
L 1159 3500 
L 1159 2969 
Q 1341 3281 1617 3432 
Q 1894 3584 2278 3584 
Q 2916 3584 3314 3078 
Q 3713 2572 3713 1747 
Q 3713 922 3314 415 
Q 2916 -91 2278 -91 
Q 1894 -91 1617 61 
Q 1341 213 1159 525 
z
M 3116 1747 
Q 3116 2381 2855 2742 
Q 2594 3103 2138 3103 
Q 1681 3103 1420 2742 
Q 1159 2381 1159 1747 
Q 1159 1113 1420 752 
Q 1681 391 2138 391 
Q 2594 391 2855 752 
Q 3116 1113 3116 1747 
z
" transform="scale(0.015625)"/>
       <path id="DejaVuSans-6f" d="M 1959 3097 
Q 1497 3097 1228 2736 
Q 959 2375 959 1747 
Q 959 1119 1226 758 
Q 1494 397 1959 397 
Q 2419 397 2687 759 
Q 2956 1122 2956 1747 
Q 2956 2369 2687 2733 
Q 2419 3097 1959 3097 
z
M 1959 3584 
Q 2709 3584 3137 3096 
Q 3566 2609 3566 1747 
Q 3566 888 3137 398 
Q 2709 -91 1959 -91 
Q 1206 -91 779 398 
Q 353 888 353 1747 
Q 353 2609 779 3096 
Q 1206 3584 1959 3584 
z
" transform="scale(0.015625)"/>
       <path id="DejaVuSans-6e" d="M 3513 2113 
L 3513 0 
L 2938 0 
L 2938 2094 
Q 2938 2591 2744 2837 
Q 2550 3084 2163 3084 
Q 1697 3084 1428 2787 
Q 1159 2491 1159 1978 
L 1159 0 
L 581 0 
L 581 3500 
L 1159 3500 
L 1159 2956 
Q 1366 3272 1645 3428 
Q 1925 3584 2291 3584 
Q 2894 3584 3203 3211 
Q 3513 2838 3513 2113 
z
" transform="scale(0.015625)"/>
       <path id="DejaVuSans-54" d="M -19 4666 
L 3928 4666 
L 3928 4134 
L 2272 4134 
L 2272 0 
L 1638 0 
L 1638 4134 
L -19 4134 
L -19 4666 
z
" transform="scale(0.015625)"/>
       <path id="DejaVuSans-69" d="M 603 3500 
L 1178 3500 
L 1178 0 
L 603 0 
L 603 3500 
z
M 603 4863 
L 1178 4863 
L 1178 4134 
L 603 4134 
L 603 4863 
z
" transform="scale(0.015625)"/>
       <path id="DejaVuSans-6d" d="M 3328 2828 
Q 3544 3216 3844 3400 
Q 4144 3584 4550 3584 
Q 5097 3584 5394 3201 
Q 5691 2819 5691 2113 
L 5691 0 
L 5113 0 
L 5113 2094 
Q 5113 2597 4934 2840 
Q 4756 3084 4391 3084 
Q 3944 3084 3684 2787 
Q 3425 2491 3425 1978 
L 3425 0 
L 2847 0 
L 2847 2094 
Q 2847 2600 2669 2842 
Q 2491 3084 2119 3084 
Q 1678 3084 1418 2786 
Q 1159 2488 1159 1978 
L 1159 0 
L 581 0 
L 581 3500 
L 1159 3500 
L 1159 2956 
Q 1356 3278 1631 3431 
Q 1906 3584 2284 3584 
Q 2666 3584 2933 3390 
Q 3200 3197 3328 2828 
z
" transform="scale(0.015625)"/>
      </defs>
      <use xlink:href="#DejaVuSans-52"/>
      <use xlink:href="#DejaVuSans-65" x="64.982422"/>
      <use xlink:href="#DejaVuSans-73" x="126.505859"/>
      <use xlink:href="#DejaVuSans-70" x="178.605469"/>
      <use xlink:href="#DejaVuSans-6f" x="242.082031"/>
      <use xlink:href="#DejaVuSans-6e" x="303.263672"/>
      <use xlink:href="#DejaVuSans-73" x="366.642578"/>
      <use xlink:href="#DejaVuSans-65" x="418.742188"/>
      <use xlink:href="#DejaVuSans-20" x="480.265625"/>
      <use xlink:href="#DejaVuSans-54" x="512.052734"/>
      <use xlink:href="#DejaVuSans-69" x="570.011719"/>
      <use xlink:href="#DejaVuSans-6d" x="597.794922"/>
      <use xlink:href="#DejaVuSans-65" x="695.207031"/>
      <use xlink:href="#DejaVuSans-20" x="756.730469"/>
      <use xlink:href="#DejaVuSans-28" x="788.517578"/>
      <use xlink:href="#DejaVuSans-73" x="827.53125"/>
      <use xlink:href="#DejaVuSans-29" x="879.630859"/>
     </g>
    </g>
   </g>
   <g id="PolyCollection_1"/>
   <g id="PolyCollection_2"/>
   <g id="PolyCollection_3"/>
   <g id="PolyCollection_4"/>
   <g id="PolyCollection_5"/>
   <g id="line2d_14">
    <path d="M 72.425625 212.341967 
L 78.801622 210.816546 
L 85.177619 210.589405 
L 91.553615 209.279276 
L 97.929612 209.279276 
L 104.305609 207.753855 
L 110.681606 207.526297 
L 117.057603 206.770919 
L 123.433599 206.770919 
L 129.809596 206.5324 
L 136.185593 206.529895 
L 142.56159 206.529895 
L 148.937586 206.529843 
L 155.313583 194.788057 
L 161.68958 193.334034 
L 168.065577 191.271659 
L 174.441574 190.279276 
L 180.81757 190.278806 
L 187.193567 187.97833 
L 193.569564 187.975407 
L 199.945561 187.975407 
L 206.321558 185.91345 
L 212.697554 185.452018 
L 219.073551 185.452018 
L 225.449548 185.2135 
L 231.825545 185.210995 
L 238.201542 185.210995 
L 244.577538 183.149037 
L 250.953535 169.919825 
L 257.329532 169.263717 
L 263.705529 167.095966 
L 270.081526 166.573052 
L 276.457522 165.765847 
L 282.833519 165.765847 
L 289.209516 165.765847 
L 295.585513 165.765847 
L 301.961509 165.765847 
L 308.337506 165.765847 
L 314.713503 165.765847 
L 321.0895 165.765847 
L 327.465497 165.765847 
L 333.841493 152.341958 
L 340.21749 152.341958 
L 346.593487 151.819045 
L 352.969484 150.369354 
L 359.345481 150.02358 
L 365.721477 150.02358 
L 372.097474 150.02358 
L 378.473471 150.02358 
L 384.849468 150.02358 
L 391.225465 150.02358 
L 397.601461 150.02358 
L 403.977458 150.02358 
L 410.353455 138.893748 
L 416.729452 137.468222 
L 423.105448 137.293535 
L 429.481445 136.963576 
L 435.857442 136.959296 
L 442.233439 136.537896 
L 448.609436 136.537896 
L 454.985432 136.537896 
L 461.361429 136.537896 
L 467.737426 124.060043 
L 474.113423 121.892292 
L 480.48942 121.367656 
L 486.865416 121.367656 
L 493.241413 120.946256 
L 499.61741 120.423342 
L 505.993407 120.077569 
L 512.369404 120.077569 
L 518.7454 120.077569 
" clip-path="url(#pcf9662495d)" style="fill: none; stroke: #dd8452; stroke-width: 1.5; stroke-linecap: round"/>
   </g>
   <g id="line2d_15">
    <path d="M 72.425625 214.103455 
L 78.801622 214.103455 
L 85.177619 214.103402 
L 91.553615 212.793273 
L 97.929612 211.561798 
L 104.305609 210.702349 
L 110.681606 210.40835 
L 117.057603 207.999575 
L 123.433599 206.39289 
L 129.809596 206.392473 
L 136.185593 206.235427 
L 142.56159 205.994403 
L 148.937586 196.8818 
L 155.313583 196.257894 
L 161.68958 194.195936 
L 168.065577 193.774484 
L 174.441574 191.712526 
L 180.81757 189.544775 
L 187.193567 189.540495 
L 193.569564 187.478538 
L 199.945561 187.47812 
L 206.321558 187.47812 
L 212.697554 187.184174 
L 219.073551 187.183704 
L 225.449548 187.183704 
L 231.825545 185.121746 
L 238.201542 184.659897 
L 244.577538 184.659845 
L 250.953535 170.94201 
L 257.329532 170.941958 
L 263.705529 170.07327 
L 270.081526 170.07327 
L 276.457522 168.332295 
L 282.833519 168.329633 
L 289.209516 168.329633 
L 295.585513 168.329633 
L 301.961509 168.329633 
L 308.337506 167.868202 
L 314.713503 167.868202 
L 321.0895 167.868202 
L 327.465497 167.868202 
L 333.841493 153.189299 
L 340.21749 152.994622 
L 346.593487 152.994622 
L 352.969484 152.471708 
L 359.345481 152.125935 
L 365.721477 152.125935 
L 372.097474 152.125935 
L 378.473471 152.125935 
L 384.849468 152.125935 
L 391.225465 151.664504 
L 397.601461 151.664504 
L 403.977458 140.384149 
L 410.353455 140.384149 
L 416.729452 140.05419 
L 423.105448 139.63279 
L 429.481445 139.63279 
L 435.857442 139.63279 
L 442.233439 139.63279 
L 448.609436 138.207264 
L 454.985432 137.721668 
L 461.361429 137.721668 
L 467.737426 135.553916 
L 474.113423 124.488176 
L 480.48942 124.293499 
L 486.865416 124.293499 
L 493.241413 123.832068 
L 499.61741 123.309154 
L 505.993407 123.309154 
L 512.369404 120.806537 
L 518.7454 120.795629 
" clip-path="url(#pcf9662495d)" style="fill: none; stroke: #4c72b0; stroke-width: 1.5; stroke-linecap: round"/>
   </g>
   <g id="line2d_16">
    <path d="M 72.425625 162.603991 
L 78.801622 162.603991 
L 85.177619 158.850484 
L 91.553615 158.850484 
L 97.929612 155.096976 
L 104.305609 151.343469 
L 110.681606 151.343469 
L 117.057603 147.776967 
L 123.433599 144.023459 
L 129.809596 144.023459 
L 136.185593 140.456957 
L 142.56159 140.456957 
L 148.937586 136.890454 
L 155.313583 133.323952 
L 161.68958 133.323952 
L 168.065577 129.570445 
L 174.441574 129.570445 
L 180.81757 125.816937 
L 187.193567 122.250435 
L 193.569564 122.250435 
L 199.945561 122.250435 
L 206.321558 111.968622 
L 212.697554 111.968622 
L 219.073551 108.294968 
L 225.449548 108.294968 
L 231.825545 108.294968 
L 238.201542 98.013155 
L 244.577538 98.013155 
L 250.953535 87.731342 
L 257.329532 87.731342 
L 263.705529 87.731342 
L 270.081526 84.057689 
L 276.457522 84.057689 
L 282.833519 84.057689 
L 289.209516 73.775875 
L 295.585513 73.775875 
L 301.961509 70.102222 
L 308.337506 70.102222 
L 314.713503 70.102222 
L 321.0895 59.820409 
L 327.465497 59.820409 
L 333.841493 49.538595 
L 340.21749 49.538595 
L 346.593487 49.538595 
L 352.969484 45.864942 
L 359.345481 45.864942 
L 365.721477 35.583129 
L 372.097474 35.583129 
L 378.473471 35.583129 
L 384.849468 31.909476 
L 391.225465 31.909476 
L 397.601461 31.909476 
L 403.977458 28.235823 
L 410.353455 28.235823 
L 416.729452 24.56217 
L 423.105448 22.33351 
L 429.481445 22.33351 
L 435.857442 20.10485 
L 442.233439 20.807357 
L 448.609436 20.807357 
L 454.985432 18.578698 
L 461.361429 19.281205 
L 467.737426 17.052545 
L 474.113423 17.052545 
L 480.48942 17.755053 
L 486.865416 18.45756 
L 493.241413 18.45756 
L 499.61741 19.160067 
L 505.993407 19.862574 
L 512.369404 17.633914 
L 518.7454 17.633914 
" clip-path="url(#pcf9662495d)" style="fill: none; stroke: #55a868; stroke-width: 1.5; stroke-linecap: round"/>
   </g>
   <g id="line2d_17">
    <path d="M 72.425625 204.669034 
L 78.801622 202.008014 
L 85.177619 201.232177 
L 91.553615 197.874965 
L 97.929612 196.119115 
L 104.305609 194.360655 
L 110.681606 193.120724 
L 117.057603 190.25485 
L 123.433599 189.20991 
L 129.809596 186.725508 
L 136.185593 185.773053 
L 142.56159 182.415841 
L 148.937586 180.659782 
L 155.313583 179.417242 
L 161.68958 177.083206 
L 168.065577 175.372815 
L 174.441574 173.177193 
L 180.81757 171.824319 
L 187.193567 170.30229 
L 193.569564 167.433232 
L 199.945561 166.191109 
L 206.321558 163.924141 
L 212.697554 161.444489 
L 219.073551 159.966875 
L 225.449548 157.90998 
L 231.825545 156.109975 
L 238.201542 154.845984 
L 244.577538 151.976926 
L 250.953535 150.218675 
L 257.329532 148.981354 
L 263.705529 146.684114 
L 270.081526 144.511509 
L 276.457522 142.794333 
L 282.833519 140.505026 
L 289.209516 139.437121 
L 295.585513 137.03414 
L 301.961509 135.27808 
L 308.337506 134.038568 
L 314.713503 131.366065 
L 321.0895 129.023418 
L 327.465497 127.258278 
L 333.841493 125.448565 
L 340.21749 124.494335 
L 346.593487 122.091353 
L 352.969484 120.335294 
L 359.345481 117.339513 
L 365.721477 115.869937 
L 372.097474 113.953074 
L 378.473471 112.355418 
L 384.849468 109.952436 
L 391.225465 108.998206 
L 397.601461 106.595225 
L 403.977458 104.842193 
L 410.353455 102.29349 
L 416.729452 100.799332 
L 423.105448 98.533407 
L 429.481445 96.782358 
L 435.857442 94.972646 
L 442.233439 92.391271 
L 448.609436 91.615434 
L 454.985432 89.862193 
L 461.361429 86.866621 
L 467.737426 85.306022 
L 474.113423 82.823238 
L 480.48942 81.289048 
L 486.865416 79.479336 
L 493.241413 78.525105 
L 499.61741 76.122124 
L 505.993407 73.126343 
L 512.369404 71.857394 
L 518.7454 70.363235 
" clip-path="url(#pcf9662495d)" style="fill: none; stroke: #c44e52; stroke-width: 1.5; stroke-linecap: round"/>
   </g>
   <g id="line2d_18">
    <path d="M 72.425625 205.395132 
L 78.801622 203.477173 
L 85.177619 201.559213 
L 91.553615 199.641254 
L 97.929612 197.723295 
L 104.305609 195.805335 
L 110.681606 193.887376 
L 117.057603 191.969416 
L 123.433599 190.051457 
L 129.809596 188.133498 
L 136.185593 186.215538 
L 142.56159 184.297579 
L 148.937586 182.37962 
L 155.313583 180.46166 
L 161.68958 178.543701 
L 168.065577 176.625742 
L 174.441574 174.707782 
L 180.81757 172.789823 
L 187.193567 170.871863 
L 193.569564 168.953904 
L 199.945561 167.035945 
L 206.321558 165.117985 
L 212.697554 163.200026 
L 219.073551 161.282067 
L 225.449548 159.364107 
L 231.825545 157.446148 
L 238.201542 155.528189 
L 244.577538 153.610229 
L 250.953535 151.69227 
L 257.329532 149.77431 
L 263.705529 147.856351 
L 270.081526 145.938392 
L 276.457522 144.020432 
L 282.833519 142.102473 
L 289.209516 140.184514 
L 295.585513 138.266554 
L 301.961509 136.348595 
L 308.337506 134.430636 
L 314.713503 132.512676 
L 321.0895 130.594717 
L 327.465497 128.676757 
L 333.841493 126.758798 
L 340.21749 124.840839 
L 346.593487 122.922879 
L 352.969484 121.00492 
L 359.345481 119.086961 
L 365.721477 117.169001 
L 372.097474 115.251042 
L 378.473471 113.333083 
L 384.849468 111.415123 
L 391.225465 109.497164 
L 397.601461 107.579204 
L 403.977458 105.661245 
L 410.353455 103.743286 
L 416.729452 101.825326 
L 423.105448 99.907367 
L 429.481445 97.989408 
L 435.857442 96.071448 
L 442.233439 94.153489 
L 448.609436 92.23553 
L 454.985432 90.31757 
L 461.361429 88.399611 
L 467.737426 86.481651 
L 474.113423 84.563692 
L 480.48942 82.645733 
L 486.865416 80.727773 
L 493.241413 78.809814 
L 499.61741 76.891855 
L 505.993407 74.973895 
L 512.369404 73.055936 
L 518.7454 71.137977 
" clip-path="url(#pcf9662495d)" style="fill: none; stroke-dasharray: 4.5,4.5; stroke-dashoffset: 0; stroke: #000000; stroke-width: 1.5"/>
   </g>
   <g id="line2d_19"/>
   <g id="line2d_20"/>
   <g id="line2d_21"/>
   <g id="line2d_22"/>
   <g id="line2d_23"/>
   <g id="patch_3">
    <path d="M 72.425625 223.956 
L 72.425625 7.2 
" style="fill: none; stroke: #ffffff; stroke-width: 1.25; stroke-linejoin: miter; stroke-linecap: square"/>
   </g>
   <g id="patch_4">
    <path d="M 72.425625 223.956 
L 518.7454 223.956 
" style="fill: none; stroke: #ffffff; stroke-width: 1.25; stroke-linejoin: miter; stroke-linecap: square"/>
   </g>
  </g>
  <g id="legend_1">
   <g id="patch_5">
    <path d="M 86.453625 127.883625 
L 201.506062 127.883625 
Q 204.146062 127.883625 204.146062 125.243625 
L 204.146062 29.688 
Q 204.146062 27.048 201.506062 27.048 
L 86.453625 27.048 
Q 83.813625 27.048 83.813625 29.688 
L 83.813625 125.243625 
Q 83.813625 127.883625 86.453625 127.883625 
z
" style="fill: #eaeaf2; opacity: 0.8; stroke: #cccccc; stroke-linejoin: miter"/>
   </g>
   <g id="line2d_24">
    <path d="M 89.093625 37.737937 
L 102.293625 37.737937 
L 115.493625 37.737937 
" style="fill: none; stroke: #dd8452; stroke-width: 1.5; stroke-linecap: round"/>
   </g>
   <g id="text_16">
    <!-- CF-Oracle -->
    <g style="fill: #262626" transform="translate(126.053625 42.357937) scale(0.132 -0.132)">
     <defs>
      <path id="DejaVuSans-43" d="M 4122 4306 
L 4122 3641 
Q 3803 3938 3442 4084 
Q 3081 4231 2675 4231 
Q 1875 4231 1450 3742 
Q 1025 3253 1025 2328 
Q 1025 1406 1450 917 
Q 1875 428 2675 428 
Q 3081 428 3442 575 
Q 3803 722 4122 1019 
L 4122 359 
Q 3791 134 3420 21 
Q 3050 -91 2638 -91 
Q 1578 -91 968 557 
Q 359 1206 359 2328 
Q 359 3453 968 4101 
Q 1578 4750 2638 4750 
Q 3056 4750 3426 4639 
Q 3797 4528 4122 4306 
z
" transform="scale(0.015625)"/>
      <path id="DejaVuSans-46" d="M 628 4666 
L 3309 4666 
L 3309 4134 
L 1259 4134 
L 1259 2759 
L 3109 2759 
L 3109 2228 
L 1259 2228 
L 1259 0 
L 628 0 
L 628 4666 
z
" transform="scale(0.015625)"/>
      <path id="DejaVuSans-2d" d="M 313 2009 
L 1997 2009 
L 1997 1497 
L 313 1497 
L 313 2009 
z
" transform="scale(0.015625)"/>
      <path id="DejaVuSans-72" d="M 2631 2963 
Q 2534 3019 2420 3045 
Q 2306 3072 2169 3072 
Q 1681 3072 1420 2755 
Q 1159 2438 1159 1844 
L 1159 0 
L 581 0 
L 581 3500 
L 1159 3500 
L 1159 2956 
Q 1341 3275 1631 3429 
Q 1922 3584 2338 3584 
Q 2397 3584 2469 3576 
Q 2541 3569 2628 3553 
L 2631 2963 
z
" transform="scale(0.015625)"/>
      <path id="DejaVuSans-61" d="M 2194 1759 
Q 1497 1759 1228 1600 
Q 959 1441 959 1056 
Q 959 750 1161 570 
Q 1363 391 1709 391 
Q 2188 391 2477 730 
Q 2766 1069 2766 1631 
L 2766 1759 
L 2194 1759 
z
M 3341 1997 
L 3341 0 
L 2766 0 
L 2766 531 
Q 2569 213 2275 61 
Q 1981 -91 1556 -91 
Q 1019 -91 701 211 
Q 384 513 384 1019 
Q 384 1609 779 1909 
Q 1175 2209 1959 2209 
L 2766 2209 
L 2766 2266 
Q 2766 2663 2505 2880 
Q 2244 3097 1772 3097 
Q 1472 3097 1187 3025 
Q 903 2953 641 2809 
L 641 3341 
Q 956 3463 1253 3523 
Q 1550 3584 1831 3584 
Q 2591 3584 2966 3190 
Q 3341 2797 3341 1997 
z
" transform="scale(0.015625)"/>
      <path id="DejaVuSans-63" d="M 3122 3366 
L 3122 2828 
Q 2878 2963 2633 3030 
Q 2388 3097 2138 3097 
Q 1578 3097 1268 2742 
Q 959 2388 959 1747 
Q 959 1106 1268 751 
Q 1578 397 2138 397 
Q 2388 397 2633 464 
Q 2878 531 3122 666 
L 3122 134 
Q 2881 22 2623 -34 
Q 2366 -91 2075 -91 
Q 1284 -91 818 406 
Q 353 903 353 1747 
Q 353 2603 823 3093 
Q 1294 3584 2113 3584 
Q 2378 3584 2631 3529 
Q 2884 3475 3122 3366 
z
" transform="scale(0.015625)"/>
      <path id="DejaVuSans-6c" d="M 603 4863 
L 1178 4863 
L 1178 0 
L 603 0 
L 603 4863 
z
" transform="scale(0.015625)"/>
     </defs>
     <use xlink:href="#DejaVuSans-43"/>
     <use xlink:href="#DejaVuSans-46" x="69.824219"/>
     <use xlink:href="#DejaVuSans-2d" x="127.34375"/>
     <use xlink:href="#DejaVuSans-4f" x="166.177734"/>
     <use xlink:href="#DejaVuSans-72" x="244.888672"/>
     <use xlink:href="#DejaVuSans-61" x="286.001953"/>
     <use xlink:href="#DejaVuSans-63" x="347.28125"/>
     <use xlink:href="#DejaVuSans-6c" x="402.261719"/>
     <use xlink:href="#DejaVuSans-65" x="430.044922"/>
    </g>
   </g>
   <g id="line2d_25">
    <path d="M 89.093625 57.113062 
L 102.293625 57.113062 
L 115.493625 57.113062 
" style="fill: none; stroke: #4c72b0; stroke-width: 1.5; stroke-linecap: round"/>
   </g>
   <g id="text_17">
    <!-- ChunkFunc -->
    <g style="fill: #262626" transform="translate(126.053625 61.733062) scale(0.132 -0.132)">
     <defs>
      <path id="DejaVuSans-68" d="M 3513 2113 
L 3513 0 
L 2938 0 
L 2938 2094 
Q 2938 2591 2744 2837 
Q 2550 3084 2163 3084 
Q 1697 3084 1428 2787 
Q 1159 2491 1159 1978 
L 1159 0 
L 581 0 
L 581 4863 
L 1159 4863 
L 1159 2956 
Q 1366 3272 1645 3428 
Q 1925 3584 2291 3584 
Q 2894 3584 3203 3211 
Q 3513 2838 3513 2113 
z
" transform="scale(0.015625)"/>
      <path id="DejaVuSans-75" d="M 544 1381 
L 544 3500 
L 1119 3500 
L 1119 1403 
Q 1119 906 1312 657 
Q 1506 409 1894 409 
Q 2359 409 2629 706 
Q 2900 1003 2900 1516 
L 2900 3500 
L 3475 3500 
L 3475 0 
L 2900 0 
L 2900 538 
Q 2691 219 2414 64 
Q 2138 -91 1772 -91 
Q 1169 -91 856 284 
Q 544 659 544 1381 
z
M 1991 3584 
L 1991 3584 
z
" transform="scale(0.015625)"/>
      <path id="DejaVuSans-6b" d="M 581 4863 
L 1159 4863 
L 1159 1991 
L 2875 3500 
L 3609 3500 
L 1753 1863 
L 3688 0 
L 2938 0 
L 1159 1709 
L 1159 0 
L 581 0 
L 581 4863 
z
" transform="scale(0.015625)"/>
     </defs>
     <use xlink:href="#DejaVuSans-43"/>
     <use xlink:href="#DejaVuSans-68" x="69.824219"/>
     <use xlink:href="#DejaVuSans-75" x="133.203125"/>
     <use xlink:href="#DejaVuSans-6e" x="196.582031"/>
     <use xlink:href="#DejaVuSans-6b" x="259.960938"/>
     <use xlink:href="#DejaVuSans-46" x="317.871094"/>
     <use xlink:href="#DejaVuSans-75" x="369.890625"/>
     <use xlink:href="#DejaVuSans-6e" x="433.269531"/>
     <use xlink:href="#DejaVuSans-63" x="496.648438"/>
    </g>
   </g>
   <g id="line2d_26">
    <path d="M 89.093625 76.488187 
L 102.293625 76.488187 
L 115.493625 76.488187 
" style="fill: none; stroke: #55a868; stroke-width: 1.5; stroke-linecap: round"/>
   </g>
   <g id="text_18">
    <!-- SLAM -->
    <g style="fill: #262626" transform="translate(126.053625 81.108187) scale(0.132 -0.132)">
     <defs>
      <path id="DejaVuSans-41" d="M 2188 4044 
L 1331 1722 
L 3047 1722 
L 2188 4044 
z
M 1831 4666 
L 2547 4666 
L 4325 0 
L 3669 0 
L 3244 1197 
L 1141 1197 
L 716 0 
L 50 0 
L 1831 4666 
z
" transform="scale(0.015625)"/>
      <path id="DejaVuSans-4d" d="M 628 4666 
L 1569 4666 
L 2759 1491 
L 3956 4666 
L 4897 4666 
L 4897 0 
L 4281 0 
L 4281 4097 
L 3078 897 
L 2444 897 
L 1241 4097 
L 1241 0 
L 628 0 
L 628 4666 
z
" transform="scale(0.015625)"/>
     </defs>
     <use xlink:href="#DejaVuSans-53"/>
     <use xlink:href="#DejaVuSans-4c" x="63.476562"/>
     <use xlink:href="#DejaVuSans-41" x="121.439453"/>
     <use xlink:href="#DejaVuSans-4d" x="189.847656"/>
    </g>
   </g>
   <g id="line2d_27">
    <path d="M 89.093625 95.863313 
L 102.293625 95.863313 
L 115.493625 95.863313 
" style="fill: none; stroke: #c44e52; stroke-width: 1.5; stroke-linecap: round"/>
   </g>
   <g id="text_19">
    <!-- StepConf -->
    <g style="fill: #262626" transform="translate(126.053625 100.483313) scale(0.132 -0.132)">
     <defs>
      <path id="DejaVuSans-74" d="M 1172 4494 
L 1172 3500 
L 2356 3500 
L 2356 3053 
L 1172 3053 
L 1172 1153 
Q 1172 725 1289 603 
Q 1406 481 1766 481 
L 2356 481 
L 2356 0 
L 1766 0 
Q 1100 0 847 248 
Q 594 497 594 1153 
L 594 3053 
L 172 3053 
L 172 3500 
L 594 3500 
L 594 4494 
L 1172 4494 
z
" transform="scale(0.015625)"/>
      <path id="DejaVuSans-66" d="M 2375 4863 
L 2375 4384 
L 1825 4384 
Q 1516 4384 1395 4259 
Q 1275 4134 1275 3809 
L 1275 3500 
L 2222 3500 
L 2222 3053 
L 1275 3053 
L 1275 0 
L 697 0 
L 697 3053 
L 147 3053 
L 147 3500 
L 697 3500 
L 697 3744 
Q 697 4328 969 4595 
Q 1241 4863 1831 4863 
L 2375 4863 
z
" transform="scale(0.015625)"/>
     </defs>
     <use xlink:href="#DejaVuSans-53"/>
     <use xlink:href="#DejaVuSans-74" x="63.476562"/>
     <use xlink:href="#DejaVuSans-65" x="102.685547"/>
     <use xlink:href="#DejaVuSans-70" x="164.208984"/>
     <use xlink:href="#DejaVuSans-43" x="227.685547"/>
     <use xlink:href="#DejaVuSans-6f" x="297.509766"/>
     <use xlink:href="#DejaVuSans-6e" x="358.691406"/>
     <use xlink:href="#DejaVuSans-66" x="422.070312"/>
    </g>
   </g>
   <g id="line2d_28">
    <path d="M 89.093625 115.238437 
L 102.293625 115.238437 
L 115.493625 115.238437 
" style="fill: none; stroke-dasharray: 4.5,4.5; stroke-dashoffset: 0; stroke: #000000; stroke-width: 1.5"/>
   </g>
   <g id="text_20">
    <!-- SLO -->
    <g style="fill: #262626" transform="translate(126.053625 119.858437) scale(0.132 -0.132)">
     <use xlink:href="#DejaVuSans-53"/>
     <use xlink:href="#DejaVuSans-4c" x="63.476562"/>
     <use xlink:href="#DejaVuSans-4f" x="115.564453"/>
    </g>
   </g>
  </g>
 </g>
 <defs>
  <clipPath id="pcf9662495d">
   <rect x="72.425625" y="7.2" width="446.319775" height="216.756"/>
  </clipPath>
 </defs>
</svg>
