<?xml version="1.0" encoding="utf-8" standalone="no"?>
<!DOCTYPE svg PUBLIC "-//W3C//DTD SVG 1.1//EN"
  "http://www.w3.org/Graphics/SVG/1.1/DTD/svg11.dtd">
<svg xmlns:xlink="http://www.w3.org/1999/xlink" width="537.706547pt" height="271.367625pt" viewBox="0 0 537.706547 271.367625" xmlns="http://www.w3.org/2000/svg" version="1.1">
 <metadata>
  <rdf:RDF xmlns:dc="http://purl.org/dc/elements/1.1/" xmlns:cc="http://creativecommons.org/ns#" xmlns:rdf="http://www.w3.org/1999/02/22-rdf-syntax-ns#">
   <cc:Work>
    <dc:type rdf:resource="http://purl.org/dc/dcmitype/StillImage"/>
    <dc:date>2024-11-16T19:58:51.855768</dc:date>
    <dc:format>image/svg+xml</dc:format>
    <dc:creator>
     <cc:Agent>
      <dc:title>Matplotlib v3.9.2, https://matplotlib.org/</dc:title>
     </cc:Agent>
    </dc:creator>
   </cc:Work>
  </rdf:RDF>
 </metadata>
 <defs>
  <style type="text/css">*{stroke-linejoin: round; stroke-linecap: butt}</style>
 </defs>
 <g id="figure_1">
  <g id="patch_1">
   <path d="M 0 271.367625 
L 537.706547 271.367625 
L 537.706547 0 
L 0 0 
z
" style="fill: #ffffff"/>
  </g>
  <g id="axes_1">
   <g id="patch_2">
    <path d="M 72.425625 223.956 
L 520.010485 223.956 
L 520.010485 7.2 
L 72.425625 7.2 
z
" style="fill: #eaeaf2"/>
   </g>
   <g id="matplotlib.axis_1">
    <g id="xtick_1">
     <g id="line2d_1">
      <path d="M 72.425625 223.956 
L 72.425625 7.2 
" clip-path="url(#pa0a7695e24)" style="fill: none; stroke: #ffffff; stroke-linecap: round"/>
     </g>
     <g id="text_1">
      <!-- 0.7 -->
      <g style="fill: #262626" transform="translate(61.929563 243.485937) scale(0.132 -0.132)">
       <defs>
        <path id="DejaVuSans-30" d="M 2034 4250 
Q 1547 4250 1301 3770 
Q 1056 3291 1056 2328 
Q 1056 1369 1301 889 
Q 1547 409 2034 409 
Q 2525 409 2770 889 
Q 3016 1369 3016 2328 
Q 3016 3291 2770 3770 
Q 2525 4250 2034 4250 
z
M 2034 4750 
Q 2819 4750 3233 4129 
Q 3647 3509 3647 2328 
Q 3647 1150 3233 529 
Q 2819 -91 2034 -91 
Q 1250 -91 836 529 
Q 422 1150 422 2328 
Q 422 3509 836 4129 
Q 1250 4750 2034 4750 
z
" transform="scale(0.015625)"/>
        <path id="DejaVuSans-2e" d="M 684 794 
L 1344 794 
L 1344 0 
L 684 0 
L 684 794 
z
" transform="scale(0.015625)"/>
        <path id="DejaVuSans-37" d="M 525 4666 
L 3525 4666 
L 3525 4397 
L 1831 0 
L 1172 0 
L 2766 4134 
L 525 4134 
L 525 4666 
z
" transform="scale(0.015625)"/>
       </defs>
       <use xlink:href="#DejaVuSans-30"/>
       <use xlink:href="#DejaVuSans-2e" x="63.623047"/>
       <use xlink:href="#DejaVuSans-37" x="95.410156"/>
      </g>
     </g>
    </g>
    <g id="xtick_2">
     <g id="line2d_2">
      <path d="M 128.373732 223.956 
L 128.373732 7.2 
" clip-path="url(#pa0a7695e24)" style="fill: none; stroke: #ffffff; stroke-linecap: round"/>
     </g>
     <g id="text_2">
      <!-- 0.8 -->
      <g style="fill: #262626" transform="translate(117.87767 243.485937) scale(0.132 -0.132)">
       <defs>
        <path id="DejaVuSans-38" d="M 2034 2216 
Q 1584 2216 1326 1975 
Q 1069 1734 1069 1313 
Q 1069 891 1326 650 
Q 1584 409 2034 409 
Q 2484 409 2743 651 
Q 3003 894 3003 1313 
Q 3003 1734 2745 1975 
Q 2488 2216 2034 2216 
z
M 1403 2484 
Q 997 2584 770 2862 
Q 544 3141 544 3541 
Q 544 4100 942 4425 
Q 1341 4750 2034 4750 
Q 2731 4750 3128 4425 
Q 3525 4100 3525 3541 
Q 3525 3141 3298 2862 
Q 3072 2584 2669 2484 
Q 3125 2378 3379 2068 
Q 3634 1759 3634 1313 
Q 3634 634 3220 271 
Q 2806 -91 2034 -91 
Q 1263 -91 848 271 
Q 434 634 434 1313 
Q 434 1759 690 2068 
Q 947 2378 1403 2484 
z
M 1172 3481 
Q 1172 3119 1398 2916 
Q 1625 2713 2034 2713 
Q 2441 2713 2670 2916 
Q 2900 3119 2900 3481 
Q 2900 3844 2670 4047 
Q 2441 4250 2034 4250 
Q 1625 4250 1398 4047 
Q 1172 3844 1172 3481 
z
" transform="scale(0.015625)"/>
       </defs>
       <use xlink:href="#DejaVuSans-30"/>
       <use xlink:href="#DejaVuSans-2e" x="63.623047"/>
       <use xlink:href="#DejaVuSans-38" x="95.410156"/>
      </g>
     </g>
    </g>
    <g id="xtick_3">
     <g id="line2d_3">
      <path d="M 184.32184 223.956 
L 184.32184 7.2 
" clip-path="url(#pa0a7695e24)" style="fill: none; stroke: #ffffff; stroke-linecap: round"/>
     </g>
     <g id="text_3">
      <!-- 0.8 -->
      <g style="fill: #262626" transform="translate(173.825777 243.485937) scale(0.132 -0.132)">
       <use xlink:href="#DejaVuSans-30"/>
       <use xlink:href="#DejaVuSans-2e" x="63.623047"/>
       <use xlink:href="#DejaVuSans-38" x="95.410156"/>
      </g>
     </g>
    </g>
    <g id="xtick_4">
     <g id="line2d_4">
      <path d="M 240.269947 223.956 
L 240.269947 7.2 
" clip-path="url(#pa0a7695e24)" style="fill: none; stroke: #ffffff; stroke-linecap: round"/>
     </g>
     <g id="text_4">
      <!-- 0.9 -->
      <g style="fill: #262626" transform="translate(229.773885 243.485937) scale(0.132 -0.132)">
       <defs>
        <path id="DejaVuSans-39" d="M 703 97 
L 703 672 
Q 941 559 1184 500 
Q 1428 441 1663 441 
Q 2288 441 2617 861 
Q 2947 1281 2994 2138 
Q 2813 1869 2534 1725 
Q 2256 1581 1919 1581 
Q 1219 1581 811 2004 
Q 403 2428 403 3163 
Q 403 3881 828 4315 
Q 1253 4750 1959 4750 
Q 2769 4750 3195 4129 
Q 3622 3509 3622 2328 
Q 3622 1225 3098 567 
Q 2575 -91 1691 -91 
Q 1453 -91 1209 -44 
Q 966 3 703 97 
z
M 1959 2075 
Q 2384 2075 2632 2365 
Q 2881 2656 2881 3163 
Q 2881 3666 2632 3958 
Q 2384 4250 1959 4250 
Q 1534 4250 1286 3958 
Q 1038 3666 1038 3163 
Q 1038 2656 1286 2365 
Q 1534 2075 1959 2075 
z
" transform="scale(0.015625)"/>
       </defs>
       <use xlink:href="#DejaVuSans-30"/>
       <use xlink:href="#DejaVuSans-2e" x="63.623047"/>
       <use xlink:href="#DejaVuSans-39" x="95.410156"/>
      </g>
     </g>
    </g>
    <g id="xtick_5">
     <g id="line2d_5">
      <path d="M 296.218055 223.956 
L 296.218055 7.2 
" clip-path="url(#pa0a7695e24)" style="fill: none; stroke: #ffffff; stroke-linecap: round"/>
     </g>
     <g id="text_5">
      <!-- 1.0 -->
      <g style="fill: #262626" transform="translate(285.721992 243.485937) scale(0.132 -0.132)">
       <defs>
        <path id="DejaVuSans-31" d="M 794 531 
L 1825 531 
L 1825 4091 
L 703 3866 
L 703 4441 
L 1819 4666 
L 2450 4666 
L 2450 531 
L 3481 531 
L 3481 0 
L 794 0 
L 794 531 
z
" transform="scale(0.015625)"/>
       </defs>
       <use xlink:href="#DejaVuSans-31"/>
       <use xlink:href="#DejaVuSans-2e" x="63.623047"/>
       <use xlink:href="#DejaVuSans-30" x="95.410156"/>
      </g>
     </g>
    </g>
    <g id="xtick_6">
     <g id="line2d_6">
      <path d="M 352.166162 223.956 
L 352.166162 7.2 
" clip-path="url(#pa0a7695e24)" style="fill: none; stroke: #ffffff; stroke-linecap: round"/>
     </g>
     <g id="text_6">
      <!-- 1.1 -->
      <g style="fill: #262626" transform="translate(341.6701 243.485937) scale(0.132 -0.132)">
       <use xlink:href="#DejaVuSans-31"/>
       <use xlink:href="#DejaVuSans-2e" x="63.623047"/>
       <use xlink:href="#DejaVuSans-31" x="95.410156"/>
      </g>
     </g>
    </g>
    <g id="xtick_7">
     <g id="line2d_7">
      <path d="M 408.11427 223.956 
L 408.11427 7.2 
" clip-path="url(#pa0a7695e24)" style="fill: none; stroke: #ffffff; stroke-linecap: round"/>
     </g>
     <g id="text_7">
      <!-- 1.2 -->
      <g style="fill: #262626" transform="translate(397.618207 243.485937) scale(0.132 -0.132)">
       <defs>
        <path id="DejaVuSans-32" d="M 1228 531 
L 3431 531 
L 3431 0 
L 469 0 
L 469 531 
Q 828 903 1448 1529 
Q 2069 2156 2228 2338 
Q 2531 2678 2651 2914 
Q 2772 3150 2772 3378 
Q 2772 3750 2511 3984 
Q 2250 4219 1831 4219 
Q 1534 4219 1204 4116 
Q 875 4013 500 3803 
L 500 4441 
Q 881 4594 1212 4672 
Q 1544 4750 1819 4750 
Q 2544 4750 2975 4387 
Q 3406 4025 3406 3419 
Q 3406 3131 3298 2873 
Q 3191 2616 2906 2266 
Q 2828 2175 2409 1742 
Q 1991 1309 1228 531 
z
" transform="scale(0.015625)"/>
       </defs>
       <use xlink:href="#DejaVuSans-31"/>
       <use xlink:href="#DejaVuSans-2e" x="63.623047"/>
       <use xlink:href="#DejaVuSans-32" x="95.410156"/>
      </g>
     </g>
    </g>
    <g id="xtick_8">
     <g id="line2d_8">
      <path d="M 464.062377 223.956 
L 464.062377 7.2 
" clip-path="url(#pa0a7695e24)" style="fill: none; stroke: #ffffff; stroke-linecap: round"/>
     </g>
     <g id="text_8">
      <!-- 1.3 -->
      <g style="fill: #262626" transform="translate(453.566315 243.485937) scale(0.132 -0.132)">
       <defs>
        <path id="DejaVuSans-33" d="M 2597 2516 
Q 3050 2419 3304 2112 
Q 3559 1806 3559 1356 
Q 3559 666 3084 287 
Q 2609 -91 1734 -91 
Q 1441 -91 1130 -33 
Q 819 25 488 141 
L 488 750 
Q 750 597 1062 519 
Q 1375 441 1716 441 
Q 2309 441 2620 675 
Q 2931 909 2931 1356 
Q 2931 1769 2642 2001 
Q 2353 2234 1838 2234 
L 1294 2234 
L 1294 2753 
L 1863 2753 
Q 2328 2753 2575 2939 
Q 2822 3125 2822 3475 
Q 2822 3834 2567 4026 
Q 2313 4219 1838 4219 
Q 1578 4219 1281 4162 
Q 984 4106 628 3988 
L 628 4550 
Q 988 4650 1302 4700 
Q 1616 4750 1894 4750 
Q 2613 4750 3031 4423 
Q 3450 4097 3450 3541 
Q 3450 3153 3228 2886 
Q 3006 2619 2597 2516 
z
" transform="scale(0.015625)"/>
       </defs>
       <use xlink:href="#DejaVuSans-31"/>
       <use xlink:href="#DejaVuSans-2e" x="63.623047"/>
       <use xlink:href="#DejaVuSans-33" x="95.410156"/>
      </g>
     </g>
    </g>
    <g id="xtick_9">
     <g id="line2d_9">
      <path d="M 520.010485 223.956 
L 520.010485 7.2 
" clip-path="url(#pa0a7695e24)" style="fill: none; stroke: #ffffff; stroke-linecap: round"/>
     </g>
     <g id="text_9">
      <!-- 1.4 -->
      <g style="fill: #262626" transform="translate(509.514422 243.485937) scale(0.132 -0.132)">
       <defs>
        <path id="DejaVuSans-34" d="M 2419 4116 
L 825 1625 
L 2419 1625 
L 2419 4116 
z
M 2253 4666 
L 3047 4666 
L 3047 1625 
L 3713 1625 
L 3713 1100 
L 3047 1100 
L 3047 0 
L 2419 0 
L 2419 1100 
L 313 1100 
L 313 1709 
L 2253 4666 
z
" transform="scale(0.015625)"/>
       </defs>
       <use xlink:href="#DejaVuSans-31"/>
       <use xlink:href="#DejaVuSans-2e" x="63.623047"/>
       <use xlink:href="#DejaVuSans-34" x="95.410156"/>
      </g>
     </g>
    </g>
    <g id="text_10">
     <!-- SLO ($ per 10,000 invocations) -->
     <g style="fill: #262626" transform="translate(184.57868 261.172875) scale(0.144 -0.144)">
      <defs>
       <path id="DejaVuSans-53" d="M 3425 4513 
L 3425 3897 
Q 3066 4069 2747 4153 
Q 2428 4238 2131 4238 
Q 1616 4238 1336 4038 
Q 1056 3838 1056 3469 
Q 1056 3159 1242 3001 
Q 1428 2844 1947 2747 
L 2328 2669 
Q 3034 2534 3370 2195 
Q 3706 1856 3706 1288 
Q 3706 609 3251 259 
Q 2797 -91 1919 -91 
Q 1588 -91 1214 -16 
Q 841 59 441 206 
L 441 856 
Q 825 641 1194 531 
Q 1563 422 1919 422 
Q 2459 422 2753 634 
Q 3047 847 3047 1241 
Q 3047 1584 2836 1778 
Q 2625 1972 2144 2069 
L 1759 2144 
Q 1053 2284 737 2584 
Q 422 2884 422 3419 
Q 422 4038 858 4394 
Q 1294 4750 2059 4750 
Q 2388 4750 2728 4690 
Q 3069 4631 3425 4513 
z
" transform="scale(0.015625)"/>
       <path id="DejaVuSans-4c" d="M 628 4666 
L 1259 4666 
L 1259 531 
L 3531 531 
L 3531 0 
L 628 0 
L 628 4666 
z
" transform="scale(0.015625)"/>
       <path id="DejaVuSans-4f" d="M 2522 4238 
Q 1834 4238 1429 3725 
Q 1025 3213 1025 2328 
Q 1025 1447 1429 934 
Q 1834 422 2522 422 
Q 3209 422 3611 934 
Q 4013 1447 4013 2328 
Q 4013 3213 3611 3725 
Q 3209 4238 2522 4238 
z
M 2522 4750 
Q 3503 4750 4090 4092 
Q 4678 3434 4678 2328 
Q 4678 1225 4090 567 
Q 3503 -91 2522 -91 
Q 1538 -91 948 565 
Q 359 1222 359 2328 
Q 359 3434 948 4092 
Q 1538 4750 2522 4750 
z
" transform="scale(0.015625)"/>
       <path id="DejaVuSans-20" transform="scale(0.015625)"/>
       <path id="DejaVuSans-28" d="M 1984 4856 
Q 1566 4138 1362 3434 
Q 1159 2731 1159 2009 
Q 1159 1288 1364 580 
Q 1569 -128 1984 -844 
L 1484 -844 
Q 1016 -109 783 600 
Q 550 1309 550 2009 
Q 550 2706 781 3412 
Q 1013 4119 1484 4856 
L 1984 4856 
z
" transform="scale(0.015625)"/>
       <path id="DejaVuSans-24" d="M 2163 -941 
L 1850 -941 
L 1847 0 
Q 1519 6 1191 76 
Q 863 147 531 288 
L 531 850 
Q 850 650 1176 548 
Q 1503 447 1850 444 
L 1850 1869 
Q 1159 1981 845 2250 
Q 531 2519 531 2988 
Q 531 3497 872 3790 
Q 1213 4084 1850 4128 
L 1850 4863 
L 2163 4863 
L 2163 4138 
Q 2453 4125 2725 4076 
Q 2997 4028 3256 3944 
L 3256 3397 
Q 2997 3528 2723 3600 
Q 2450 3672 2163 3684 
L 2163 2350 
Q 2872 2241 3206 1959 
Q 3541 1678 3541 1191 
Q 3541 663 3186 358 
Q 2831 53 2163 6 
L 2163 -941 
z
M 1850 2406 
L 1850 3688 
Q 1488 3647 1297 3481 
Q 1106 3316 1106 3041 
Q 1106 2772 1282 2622 
Q 1459 2472 1850 2406 
z
M 2163 1806 
L 2163 453 
Q 2559 506 2761 678 
Q 2963 850 2963 1131 
Q 2963 1406 2770 1568 
Q 2578 1731 2163 1806 
z
" transform="scale(0.015625)"/>
       <path id="DejaVuSans-70" d="M 1159 525 
L 1159 -1331 
L 581 -1331 
L 581 3500 
L 1159 3500 
L 1159 2969 
Q 1341 3281 1617 3432 
Q 1894 3584 2278 3584 
Q 2916 3584 3314 3078 
Q 3713 2572 3713 1747 
Q 3713 922 3314 415 
Q 2916 -91 2278 -91 
Q 1894 -91 1617 61 
Q 1341 213 1159 525 
z
M 3116 1747 
Q 3116 2381 2855 2742 
Q 2594 3103 2138 3103 
Q 1681 3103 1420 2742 
Q 1159 2381 1159 1747 
Q 1159 1113 1420 752 
Q 1681 391 2138 391 
Q 2594 391 2855 752 
Q 3116 1113 3116 1747 
z
" transform="scale(0.015625)"/>
       <path id="DejaVuSans-65" d="M 3597 1894 
L 3597 1613 
L 953 1613 
Q 991 1019 1311 708 
Q 1631 397 2203 397 
Q 2534 397 2845 478 
Q 3156 559 3463 722 
L 3463 178 
Q 3153 47 2828 -22 
Q 2503 -91 2169 -91 
Q 1331 -91 842 396 
Q 353 884 353 1716 
Q 353 2575 817 3079 
Q 1281 3584 2069 3584 
Q 2775 3584 3186 3129 
Q 3597 2675 3597 1894 
z
M 3022 2063 
Q 3016 2534 2758 2815 
Q 2500 3097 2075 3097 
Q 1594 3097 1305 2825 
Q 1016 2553 972 2059 
L 3022 2063 
z
" transform="scale(0.015625)"/>
       <path id="DejaVuSans-72" d="M 2631 2963 
Q 2534 3019 2420 3045 
Q 2306 3072 2169 3072 
Q 1681 3072 1420 2755 
Q 1159 2438 1159 1844 
L 1159 0 
L 581 0 
L 581 3500 
L 1159 3500 
L 1159 2956 
Q 1341 3275 1631 3429 
Q 1922 3584 2338 3584 
Q 2397 3584 2469 3576 
Q 2541 3569 2628 3553 
L 2631 2963 
z
" transform="scale(0.015625)"/>
       <path id="DejaVuSans-2c" d="M 750 794 
L 1409 794 
L 1409 256 
L 897 -744 
L 494 -744 
L 750 256 
L 750 794 
z
" transform="scale(0.015625)"/>
       <path id="DejaVuSans-69" d="M 603 3500 
L 1178 3500 
L 1178 0 
L 603 0 
L 603 3500 
z
M 603 4863 
L 1178 4863 
L 1178 4134 
L 603 4134 
L 603 4863 
z
" transform="scale(0.015625)"/>
       <path id="DejaVuSans-6e" d="M 3513 2113 
L 3513 0 
L 2938 0 
L 2938 2094 
Q 2938 2591 2744 2837 
Q 2550 3084 2163 3084 
Q 1697 3084 1428 2787 
Q 1159 2491 1159 1978 
L 1159 0 
L 581 0 
L 581 3500 
L 1159 3500 
L 1159 2956 
Q 1366 3272 1645 3428 
Q 1925 3584 2291 3584 
Q 2894 3584 3203 3211 
Q 3513 2838 3513 2113 
z
" transform="scale(0.015625)"/>
       <path id="DejaVuSans-76" d="M 191 3500 
L 800 3500 
L 1894 563 
L 2988 3500 
L 3597 3500 
L 2284 0 
L 1503 0 
L 191 3500 
z
" transform="scale(0.015625)"/>
       <path id="DejaVuSans-6f" d="M 1959 3097 
Q 1497 3097 1228 2736 
Q 959 2375 959 1747 
Q 959 1119 1226 758 
Q 1494 397 1959 397 
Q 2419 397 2687 759 
Q 2956 1122 2956 1747 
Q 2956 2369 2687 2733 
Q 2419 3097 1959 3097 
z
M 1959 3584 
Q 2709 3584 3137 3096 
Q 3566 2609 3566 1747 
Q 3566 888 3137 398 
Q 2709 -91 1959 -91 
Q 1206 -91 779 398 
Q 353 888 353 1747 
Q 353 2609 779 3096 
Q 1206 3584 1959 3584 
z
" transform="scale(0.015625)"/>
       <path id="DejaVuSans-63" d="M 3122 3366 
L 3122 2828 
Q 2878 2963 2633 3030 
Q 2388 3097 2138 3097 
Q 1578 3097 1268 2742 
Q 959 2388 959 1747 
Q 959 1106 1268 751 
Q 1578 397 2138 397 
Q 2388 397 2633 464 
Q 2878 531 3122 666 
L 3122 134 
Q 2881 22 2623 -34 
Q 2366 -91 2075 -91 
Q 1284 -91 818 406 
Q 353 903 353 1747 
Q 353 2603 823 3093 
Q 1294 3584 2113 3584 
Q 2378 3584 2631 3529 
Q 2884 3475 3122 3366 
z
" transform="scale(0.015625)"/>
       <path id="DejaVuSans-61" d="M 2194 1759 
Q 1497 1759 1228 1600 
Q 959 1441 959 1056 
Q 959 750 1161 570 
Q 1363 391 1709 391 
Q 2188 391 2477 730 
Q 2766 1069 2766 1631 
L 2766 1759 
L 2194 1759 
z
M 3341 1997 
L 3341 0 
L 2766 0 
L 2766 531 
Q 2569 213 2275 61 
Q 1981 -91 1556 -91 
Q 1019 -91 701 211 
Q 384 513 384 1019 
Q 384 1609 779 1909 
Q 1175 2209 1959 2209 
L 2766 2209 
L 2766 2266 
Q 2766 2663 2505 2880 
Q 2244 3097 1772 3097 
Q 1472 3097 1187 3025 
Q 903 2953 641 2809 
L 641 3341 
Q 956 3463 1253 3523 
Q 1550 3584 1831 3584 
Q 2591 3584 2966 3190 
Q 3341 2797 3341 1997 
z
" transform="scale(0.015625)"/>
       <path id="DejaVuSans-74" d="M 1172 4494 
L 1172 3500 
L 2356 3500 
L 2356 3053 
L 1172 3053 
L 1172 1153 
Q 1172 725 1289 603 
Q 1406 481 1766 481 
L 2356 481 
L 2356 0 
L 1766 0 
Q 1100 0 847 248 
Q 594 497 594 1153 
L 594 3053 
L 172 3053 
L 172 3500 
L 594 3500 
L 594 4494 
L 1172 4494 
z
" transform="scale(0.015625)"/>
       <path id="DejaVuSans-73" d="M 2834 3397 
L 2834 2853 
Q 2591 2978 2328 3040 
Q 2066 3103 1784 3103 
Q 1356 3103 1142 2972 
Q 928 2841 928 2578 
Q 928 2378 1081 2264 
Q 1234 2150 1697 2047 
L 1894 2003 
Q 2506 1872 2764 1633 
Q 3022 1394 3022 966 
Q 3022 478 2636 193 
Q 2250 -91 1575 -91 
Q 1294 -91 989 -36 
Q 684 19 347 128 
L 347 722 
Q 666 556 975 473 
Q 1284 391 1588 391 
Q 1994 391 2212 530 
Q 2431 669 2431 922 
Q 2431 1156 2273 1281 
Q 2116 1406 1581 1522 
L 1381 1569 
Q 847 1681 609 1914 
Q 372 2147 372 2553 
Q 372 3047 722 3315 
Q 1072 3584 1716 3584 
Q 2034 3584 2315 3537 
Q 2597 3491 2834 3397 
z
" transform="scale(0.015625)"/>
       <path id="DejaVuSans-29" d="M 513 4856 
L 1013 4856 
Q 1481 4119 1714 3412 
Q 1947 2706 1947 2009 
Q 1947 1309 1714 600 
Q 1481 -109 1013 -844 
L 513 -844 
Q 928 -128 1133 580 
Q 1338 1288 1338 2009 
Q 1338 2731 1133 3434 
Q 928 4138 513 4856 
z
" transform="scale(0.015625)"/>
      </defs>
      <use xlink:href="#DejaVuSans-53"/>
      <use xlink:href="#DejaVuSans-4c" x="63.476562"/>
      <use xlink:href="#DejaVuSans-4f" x="115.564453"/>
      <use xlink:href="#DejaVuSans-20" x="194.275391"/>
      <use xlink:href="#DejaVuSans-28" x="226.0625"/>
      <use xlink:href="#DejaVuSans-24" x="265.076172"/>
      <use xlink:href="#DejaVuSans-20" x="328.699219"/>
      <use xlink:href="#DejaVuSans-70" x="360.486328"/>
      <use xlink:href="#DejaVuSans-65" x="423.962891"/>
      <use xlink:href="#DejaVuSans-72" x="485.486328"/>
      <use xlink:href="#DejaVuSans-20" x="526.599609"/>
      <use xlink:href="#DejaVuSans-31" x="558.386719"/>
      <use xlink:href="#DejaVuSans-30" x="622.009766"/>
      <use xlink:href="#DejaVuSans-2c" x="685.632812"/>
      <use xlink:href="#DejaVuSans-30" x="717.419922"/>
      <use xlink:href="#DejaVuSans-30" x="781.042969"/>
      <use xlink:href="#DejaVuSans-30" x="844.666016"/>
      <use xlink:href="#DejaVuSans-20" x="908.289062"/>
      <use xlink:href="#DejaVuSans-69" x="940.076172"/>
      <use xlink:href="#DejaVuSans-6e" x="967.859375"/>
      <use xlink:href="#DejaVuSans-76" x="1031.238281"/>
      <use xlink:href="#DejaVuSans-6f" x="1090.417969"/>
      <use xlink:href="#DejaVuSans-63" x="1151.599609"/>
      <use xlink:href="#DejaVuSans-61" x="1206.580078"/>
      <use xlink:href="#DejaVuSans-74" x="1267.859375"/>
      <use xlink:href="#DejaVuSans-69" x="1307.068359"/>
      <use xlink:href="#DejaVuSans-6f" x="1334.851562"/>
      <use xlink:href="#DejaVuSans-6e" x="1396.033203"/>
      <use xlink:href="#DejaVuSans-73" x="1459.412109"/>
      <use xlink:href="#DejaVuSans-29" x="1511.511719"/>
     </g>
    </g>
   </g>
   <g id="matplotlib.axis_2">
    <g id="ytick_1">
     <g id="line2d_10">
      <path d="M 72.425625 213.962208 
L 520.010485 213.962208 
" clip-path="url(#pa0a7695e24)" style="fill: none; stroke: #ffffff; stroke-linecap: round"/>
     </g>
     <g id="text_11">
      <!-- 0 -->
      <g style="fill: #262626" transform="translate(54.527125 218.977176) scale(0.132 -0.132)">
       <use xlink:href="#DejaVuSans-30"/>
      </g>
     </g>
    </g>
    <g id="ytick_2">
     <g id="line2d_11">
      <path d="M 72.425625 185.712801 
L 520.010485 185.712801 
" clip-path="url(#pa0a7695e24)" style="fill: none; stroke: #ffffff; stroke-linecap: round"/>
     </g>
     <g id="text_12">
      <!-- 200 -->
      <g style="fill: #262626" transform="translate(37.730125 190.72777) scale(0.132 -0.132)">
       <use xlink:href="#DejaVuSans-32"/>
       <use xlink:href="#DejaVuSans-30" x="63.623047"/>
       <use xlink:href="#DejaVuSans-30" x="127.246094"/>
      </g>
     </g>
    </g>
    <g id="ytick_3">
     <g id="line2d_12">
      <path d="M 72.425625 157.463395 
L 520.010485 157.463395 
" clip-path="url(#pa0a7695e24)" style="fill: none; stroke: #ffffff; stroke-linecap: round"/>
     </g>
     <g id="text_13">
      <!-- 400 -->
      <g style="fill: #262626" transform="translate(37.730125 162.478364) scale(0.132 -0.132)">
       <use xlink:href="#DejaVuSans-34"/>
       <use xlink:href="#DejaVuSans-30" x="63.623047"/>
       <use xlink:href="#DejaVuSans-30" x="127.246094"/>
      </g>
     </g>
    </g>
    <g id="ytick_4">
     <g id="line2d_13">
      <path d="M 72.425625 129.213988 
L 520.010485 129.213988 
" clip-path="url(#pa0a7695e24)" style="fill: none; stroke: #ffffff; stroke-linecap: round"/>
     </g>
     <g id="text_14">
      <!-- 600 -->
      <g style="fill: #262626" transform="translate(37.730125 134.228957) scale(0.132 -0.132)">
       <defs>
        <path id="DejaVuSans-36" d="M 2113 2584 
Q 1688 2584 1439 2293 
Q 1191 2003 1191 1497 
Q 1191 994 1439 701 
Q 1688 409 2113 409 
Q 2538 409 2786 701 
Q 3034 994 3034 1497 
Q 3034 2003 2786 2293 
Q 2538 2584 2113 2584 
z
M 3366 4563 
L 3366 3988 
Q 3128 4100 2886 4159 
Q 2644 4219 2406 4219 
Q 1781 4219 1451 3797 
Q 1122 3375 1075 2522 
Q 1259 2794 1537 2939 
Q 1816 3084 2150 3084 
Q 2853 3084 3261 2657 
Q 3669 2231 3669 1497 
Q 3669 778 3244 343 
Q 2819 -91 2113 -91 
Q 1303 -91 875 529 
Q 447 1150 447 2328 
Q 447 3434 972 4092 
Q 1497 4750 2381 4750 
Q 2619 4750 2861 4703 
Q 3103 4656 3366 4563 
z
" transform="scale(0.015625)"/>
       </defs>
       <use xlink:href="#DejaVuSans-36"/>
       <use xlink:href="#DejaVuSans-30" x="63.623047"/>
       <use xlink:href="#DejaVuSans-30" x="127.246094"/>
      </g>
     </g>
    </g>
    <g id="ytick_5">
     <g id="line2d_14">
      <path d="M 72.425625 100.964582 
L 520.010485 100.964582 
" clip-path="url(#pa0a7695e24)" style="fill: none; stroke: #ffffff; stroke-linecap: round"/>
     </g>
     <g id="text_15">
      <!-- 800 -->
      <g style="fill: #262626" transform="translate(37.730125 105.979551) scale(0.132 -0.132)">
       <use xlink:href="#DejaVuSans-38"/>
       <use xlink:href="#DejaVuSans-30" x="63.623047"/>
       <use xlink:href="#DejaVuSans-30" x="127.246094"/>
      </g>
     </g>
    </g>
    <g id="ytick_6">
     <g id="line2d_15">
      <path d="M 72.425625 72.715176 
L 520.010485 72.715176 
" clip-path="url(#pa0a7695e24)" style="fill: none; stroke: #ffffff; stroke-linecap: round"/>
     </g>
     <g id="text_16">
      <!-- 1,000 -->
      <g style="fill: #262626" transform="translate(25.1365 77.730144) scale(0.132 -0.132)">
       <use xlink:href="#DejaVuSans-31"/>
       <use xlink:href="#DejaVuSans-2c" x="63.623047"/>
       <use xlink:href="#DejaVuSans-30" x="95.410156"/>
       <use xlink:href="#DejaVuSans-30" x="159.033203"/>
       <use xlink:href="#DejaVuSans-30" x="222.65625"/>
      </g>
     </g>
    </g>
    <g id="ytick_7">
     <g id="line2d_16">
      <path d="M 72.425625 44.465769 
L 520.010485 44.465769 
" clip-path="url(#pa0a7695e24)" style="fill: none; stroke: #ffffff; stroke-linecap: round"/>
     </g>
     <g id="text_17">
      <!-- 1,200 -->
      <g style="fill: #262626" transform="translate(25.1365 49.480738) scale(0.132 -0.132)">
       <use xlink:href="#DejaVuSans-31"/>
       <use xlink:href="#DejaVuSans-2c" x="63.623047"/>
       <use xlink:href="#DejaVuSans-32" x="95.410156"/>
       <use xlink:href="#DejaVuSans-30" x="159.033203"/>
       <use xlink:href="#DejaVuSans-30" x="222.65625"/>
      </g>
     </g>
    </g>
    <g id="ytick_8">
     <g id="line2d_17">
      <path d="M 72.425625 16.216363 
L 520.010485 16.216363 
" clip-path="url(#pa0a7695e24)" style="fill: none; stroke: #ffffff; stroke-linecap: round"/>
     </g>
     <g id="text_18">
      <!-- 1,400 -->
      <g style="fill: #262626" transform="translate(25.1365 21.231332) scale(0.132 -0.132)">
       <use xlink:href="#DejaVuSans-31"/>
       <use xlink:href="#DejaVuSans-2c" x="63.623047"/>
       <use xlink:href="#DejaVuSans-34" x="95.410156"/>
       <use xlink:href="#DejaVuSans-30" x="159.033203"/>
       <use xlink:href="#DejaVuSans-30" x="222.65625"/>
      </g>
     </g>
    </g>
    <g id="text_19">
     <!-- Response Time (s) -->
     <g style="fill: #262626" transform="translate(18.14175 181.720125) rotate(-90) scale(0.144 -0.144)">
      <defs>
       <path id="DejaVuSans-52" d="M 2841 2188 
Q 3044 2119 3236 1894 
Q 3428 1669 3622 1275 
L 4263 0 
L 3584 0 
L 2988 1197 
Q 2756 1666 2539 1819 
Q 2322 1972 1947 1972 
L 1259 1972 
L 1259 0 
L 628 0 
L 628 4666 
L 2053 4666 
Q 2853 4666 3247 4331 
Q 3641 3997 3641 3322 
Q 3641 2881 3436 2590 
Q 3231 2300 2841 2188 
z
M 1259 4147 
L 1259 2491 
L 2053 2491 
Q 2509 2491 2742 2702 
Q 2975 2913 2975 3322 
Q 2975 3731 2742 3939 
Q 2509 4147 2053 4147 
L 1259 4147 
z
" transform="scale(0.015625)"/>
       <path id="DejaVuSans-54" d="M -19 4666 
L 3928 4666 
L 3928 4134 
L 2272 4134 
L 2272 0 
L 1638 0 
L 1638 4134 
L -19 4134 
L -19 4666 
z
" transform="scale(0.015625)"/>
       <path id="DejaVuSans-6d" d="M 3328 2828 
Q 3544 3216 3844 3400 
Q 4144 3584 4550 3584 
Q 5097 3584 5394 3201 
Q 5691 2819 5691 2113 
L 5691 0 
L 5113 0 
L 5113 2094 
Q 5113 2597 4934 2840 
Q 4756 3084 4391 3084 
Q 3944 3084 3684 2787 
Q 3425 2491 3425 1978 
L 3425 0 
L 2847 0 
L 2847 2094 
Q 2847 2600 2669 2842 
Q 2491 3084 2119 3084 
Q 1678 3084 1418 2786 
Q 1159 2488 1159 1978 
L 1159 0 
L 581 0 
L 581 3500 
L 1159 3500 
L 1159 2956 
Q 1356 3278 1631 3431 
Q 1906 3584 2284 3584 
Q 2666 3584 2933 3390 
Q 3200 3197 3328 2828 
z
" transform="scale(0.015625)"/>
      </defs>
      <use xlink:href="#DejaVuSans-52"/>
      <use xlink:href="#DejaVuSans-65" x="64.982422"/>
      <use xlink:href="#DejaVuSans-73" x="126.505859"/>
      <use xlink:href="#DejaVuSans-70" x="178.605469"/>
      <use xlink:href="#DejaVuSans-6f" x="242.082031"/>
      <use xlink:href="#DejaVuSans-6e" x="303.263672"/>
      <use xlink:href="#DejaVuSans-73" x="366.642578"/>
      <use xlink:href="#DejaVuSans-65" x="418.742188"/>
      <use xlink:href="#DejaVuSans-20" x="480.265625"/>
      <use xlink:href="#DejaVuSans-54" x="512.052734"/>
      <use xlink:href="#DejaVuSans-69" x="570.011719"/>
      <use xlink:href="#DejaVuSans-6d" x="597.794922"/>
      <use xlink:href="#DejaVuSans-65" x="695.207031"/>
      <use xlink:href="#DejaVuSans-20" x="756.730469"/>
      <use xlink:href="#DejaVuSans-28" x="788.517578"/>
      <use xlink:href="#DejaVuSans-73" x="827.53125"/>
      <use xlink:href="#DejaVuSans-29" x="879.630859"/>
     </g>
    </g>
   </g>
   <g id="PolyCollection_1"/>
   <g id="PolyCollection_2"/>
   <g id="PolyCollection_3"/>
   <g id="PolyCollection_4"/>
   <g id="PolyCollection_5"/>
   <g id="line2d_18">
    <path d="M 72.425625 127.862254 
L 78.819694 125.778861 
L 85.213764 125.170086 
L 91.607833 124.561311 
L 98.001903 124.540124 
L 104.395972 123.931349 
L 110.790042 121.847956 
L 117.184111 121.847956 
L 123.57818 121.847956 
L 129.97225 115.178271 
L 136.366319 114.24604 
L 142.760389 112.183834 
L 149.154458 110.10044 
L 155.548528 110.10044 
L 161.942597 109.16821 
L 168.336666 108.741644 
L 174.730736 108.741644 
L 181.124805 105.533924 
L 187.518875 104.894075 
L 193.912944 102.384115 
L 200.307014 102.384115 
L 206.701083 102.384115 
L 213.095152 102.319141 
L 219.489222 100.035177 
L 225.883291 99.25973 
L 232.277361 96.987066 
L 238.67143 96.650898 
L 245.0655 96.650898 
L 251.459569 96.650898 
L 257.853638 94.146588 
L 264.247708 93.590075 
L 270.641777 91.700189 
L 277.035847 90.587163 
L 283.429916 90.030649 
L 289.823986 89.612558 
L 296.218055 89.557472 
L 302.612124 87.444416 
L 309.006194 86.342689 
L 315.400263 84.263533 
L 321.794333 83.860979 
L 328.188402 82.803039 
L 334.582472 81.346782 
L 340.976541 78.565628 
L 347.37061 76.617831 
L 353.76468 76.290138 
L 360.158749 75.470905 
L 366.552819 74.188382 
L 372.946888 73.256152 
L 379.340958 72.893147 
L 385.735027 70.261715 
L 392.129096 69.89871 
L 398.523166 69.89871 
L 404.917235 68.836532 
L 411.311305 67.950913 
L 417.705374 66.888736 
L 424.099443 63.229025 
L 430.493513 63.229025 
L 436.887582 62.166847 
L 443.281652 60.219051 
L 449.675721 59.241621 
L 456.069791 58.658271 
L 462.46386 57.675192 
L 468.857929 57.675192 
L 475.251999 57.675192 
L 481.646068 56.968957 
L 488.040138 51.937737 
L 494.434207 51.005507 
L 500.828277 51.005507 
L 507.222346 51.005507 
L 513.616415 50.299272 
L 520.010485 48.351475 
" clip-path="url(#pa0a7695e24)" style="fill: none; stroke: #dd8452; stroke-width: 1.5; stroke-linecap: round"/>
   </g>
   <g id="line2d_19">
    <path d="M 72.425625 127.075508 
L 78.819694 127.075508 
L 85.213764 126.466734 
L 91.607833 123.956774 
L 98.001903 122.921433 
L 104.395972 122.068301 
L 110.790042 121.459526 
L 117.184111 121.459526 
L 123.57818 121.459526 
L 129.97225 114.507347 
L 136.366319 114.007333 
L 142.760389 117.422686 
L 149.154458 115.209345 
L 155.548528 108.53966 
L 161.942597 108.53966 
L 168.336666 107.60743 
L 174.730736 107.586243 
L 181.124805 104.591806 
L 187.518875 102.508412 
L 193.912944 102.293717 
L 200.307014 101.971673 
L 206.701083 101.864326 
L 213.095152 99.65381 
L 219.489222 98.475809 
L 225.883291 96.133934 
L 232.277361 95.543521 
L 238.67143 95.515272 
L 245.0655 95.402274 
L 251.459569 95.374025 
L 257.853638 93.426228 
L 264.247708 92.092856 
L 270.641777 91.729851 
L 277.035847 91.729851 
L 283.429916 89.782055 
L 289.823986 88.735414 
L 296.218055 86.787618 
L 302.612124 86.516423 
L 309.006194 84.74801 
L 315.400263 84.527665 
L 321.794333 84.16466 
L 328.188402 84.16466 
L 334.582472 79.140503 
L 340.976541 78.078326 
L 347.37061 77.494975 
L 353.76468 75.083888 
L 360.158749 74.500538 
L 366.552819 74.500538 
L 372.946888 74.500538 
L 379.340958 73.568308 
L 385.735027 71.620511 
L 392.129096 70.558334 
L 398.523166 69.580904 
L 404.917235 68.997554 
L 411.311305 68.997554 
L 417.705374 64.950826 
L 424.099443 63.617454 
L 430.493513 62.548214 
L 436.887582 62.327869 
L 443.281652 62.327869 
L 449.675721 62.327869 
L 456.069791 61.621634 
L 462.46386 59.574964 
L 468.857929 58.868729 
L 475.251999 57.444959 
L 481.646068 57.042405 
L 488.040138 55.577673 
L 494.434207 54.772565 
L 500.828277 50.489955 
L 507.222346 49.78372 
L 513.616415 48.85149 
L 520.010485 47.752588 
" clip-path="url(#pa0a7695e24)" style="fill: none; stroke: #4c72b0; stroke-width: 1.5; stroke-linecap: round"/>
   </g>
   <g id="line2d_20">
    <path d="M 72.425625 166.544166 
L 78.819694 166.544166 
L 85.213764 166.544166 
L 91.607833 166.544166 
L 98.001903 166.544166 
L 104.395972 166.544166 
L 110.790042 166.544166 
L 117.184111 166.544166 
L 123.57818 166.544166 
L 129.97225 166.544166 
L 136.366319 166.544166 
L 142.760389 166.544166 
L 149.154458 166.544166 
L 155.548528 166.544166 
L 161.942597 166.544166 
L 168.336666 166.544166 
L 174.730736 166.544166 
L 181.124805 166.544166 
L 187.518875 166.544166 
L 193.912944 166.544166 
L 200.307014 166.544166 
L 206.701083 166.544166 
L 213.095152 166.544166 
L 219.489222 166.544166 
L 225.883291 166.544166 
L 232.277361 166.544166 
L 238.67143 166.544166 
L 245.0655 166.544166 
L 251.459569 166.544166 
L 257.853638 166.544166 
L 264.247708 166.544166 
L 270.641777 166.544166 
L 277.035847 166.544166 
L 283.429916 166.544166 
L 289.823986 166.544166 
L 296.218055 166.544166 
L 302.612124 166.544166 
L 309.006194 166.544166 
L 315.400263 166.544166 
L 321.794333 166.544166 
L 328.188402 166.544166 
L 334.582472 166.544166 
L 340.976541 166.544166 
L 347.37061 166.544166 
L 353.76468 166.544166 
L 360.158749 166.544166 
L 366.552819 166.544166 
L 372.946888 166.544166 
L 379.340958 166.544166 
L 385.735027 166.544166 
L 392.129096 166.544166 
L 398.523166 166.544166 
L 404.917235 166.544166 
L 411.311305 166.544166 
L 417.705374 166.544166 
L 424.099443 166.544166 
L 430.493513 166.544166 
L 436.887582 166.544166 
L 443.281652 166.544166 
L 449.675721 166.544166 
L 456.069791 166.544166 
L 462.46386 166.544166 
L 468.857929 166.544166 
L 475.251999 166.544166 
L 481.646068 166.544166 
L 488.040138 166.544166 
L 494.434207 166.544166 
L 500.828277 166.544166 
L 507.222346 166.544166 
L 513.616415 166.544166 
L 520.010485 166.544166 
" clip-path="url(#pa0a7695e24)" style="fill: none; stroke: #55a868; stroke-width: 1.5; stroke-linecap: round"/>
   </g>
   <g id="line2d_21">
    <path d="M 72.425625 123.490659 
L 78.819694 120.94115 
L 85.213764 120.886063 
L 91.607833 119.401557 
L 98.001903 116.645828 
L 104.395972 116.586504 
L 110.790042 114.658482 
L 117.184111 114.014395 
L 123.57818 112.455028 
L 129.97225 110.389997 
L 136.366319 109.38008 
L 142.760389 108.334852 
L 149.154458 106.620113 
L 155.548528 104.831926 
L 161.942597 99.677822 
L 168.336666 96.498351 
L 174.730736 96.636773 
L 181.124805 98.183428 
L 187.518875 98.165066 
L 193.912944 94.898022 
L 200.307014 86.784793 
L 206.701083 88.493882 
L 213.095152 90.070199 
L 219.489222 90.051836 
L 225.883291 90.070199 
L 232.277361 80.708345 
L 238.67143 80.689983 
L 245.0655 80.410314 
L 251.459569 81.956969 
L 257.853638 81.938607 
L 264.247708 73.84374 
L 270.641777 73.84374 
L 277.035847 72.267423 
L 283.429916 72.278722 
L 289.823986 73.825377 
L 296.218055 73.825377 
L 302.612124 70.558334 
L 309.006194 64.463524 
L 315.400263 60.387135 
L 321.794333 65.73051 
L 328.188402 65.712148 
L 334.582472 57.617281 
L 340.976541 59.305183 
L 347.37061 60.695053 
L 353.76468 55.066359 
L 360.158749 48.221528 
L 366.552819 48.831715 
L 372.946888 48.292151 
L 379.340958 49.061948 
L 385.735027 48.82324 
L 392.129096 49.995591 
L 398.523166 48.563346 
L 404.917235 48.006832 
L 411.311305 46.595775 
L 417.705374 37.722636 
L 424.099443 38.50797 
L 430.493513 37.098324 
L 436.887582 35.444321 
L 443.281652 34.937245 
L 449.675721 33.39624 
L 456.069791 37.180247 
L 462.46386 34.362369 
L 468.857929 32.951311 
L 475.251999 28.598078 
L 481.646068 20.764517 
L 488.040138 21.662849 
L 494.434207 23.353576 
L 500.828277 22.08659 
L 507.222346 17.052545 
L 513.616415 22.414283 
L 520.010485 23.486348 
" clip-path="url(#pa0a7695e24)" style="fill: none; stroke: #c44e52; stroke-width: 1.5; stroke-linecap: round"/>
   </g>
   <g id="line2d_22">
    <path d="M 72.425625 214.103455 
L 78.819694 214.103455 
L 85.213764 214.103455 
L 91.607833 214.103455 
L 98.001903 214.103455 
L 104.395972 214.103455 
L 110.790042 214.103455 
L 117.184111 214.103455 
L 123.57818 214.103455 
L 129.97225 214.103455 
L 136.366319 214.103455 
L 142.760389 214.103455 
L 149.154458 214.103455 
L 155.548528 214.103455 
L 161.942597 214.103455 
L 168.336666 214.103455 
L 174.730736 214.103455 
L 181.124805 214.103455 
L 187.518875 214.103455 
L 193.912944 214.103455 
L 200.307014 214.103455 
L 206.701083 214.103455 
L 213.095152 214.103455 
L 219.489222 214.103455 
L 225.883291 214.103455 
L 232.277361 214.103455 
L 238.67143 214.103455 
L 245.0655 214.103455 
L 251.459569 214.103455 
L 257.853638 214.103455 
L 264.247708 214.103455 
L 270.641777 214.103455 
L 277.035847 214.103455 
L 283.429916 214.103455 
L 289.823986 214.103455 
L 296.218055 214.103455 
L 302.612124 214.103455 
L 309.006194 214.103455 
L 315.400263 214.103455 
L 321.794333 214.103455 
L 328.188402 214.103455 
L 334.582472 214.103455 
L 340.976541 214.103455 
L 347.37061 214.103455 
L 353.76468 214.103455 
L 360.158749 214.103455 
L 366.552819 214.103455 
L 372.946888 214.103455 
L 379.340958 214.103455 
L 385.735027 214.103455 
L 392.129096 214.103455 
L 398.523166 214.103455 
L 404.917235 214.103455 
L 411.311305 214.103455 
L 417.705374 214.103455 
L 424.099443 214.103455 
L 430.493513 214.103455 
L 436.887582 214.103455 
L 443.281652 214.103455 
L 449.675721 214.103455 
L 456.069791 214.103455 
L 462.46386 214.103455 
L 468.857929 214.103455 
L 475.251999 214.103455 
L 481.646068 214.103455 
L 488.040138 214.103455 
L 494.434207 214.103455 
L 500.828277 214.103455 
L 507.222346 214.103455 
L 513.616415 214.103455 
L 520.010485 214.103455 
" clip-path="url(#pa0a7695e24)" style="fill: none; stroke-dasharray: 4.5,4.5; stroke-dashoffset: 0; stroke: #000000; stroke-width: 1.5"/>
   </g>
   <g id="line2d_23"/>
   <g id="line2d_24"/>
   <g id="line2d_25"/>
   <g id="line2d_26"/>
   <g id="line2d_27"/>
   <g id="patch_3">
    <path d="M 72.425625 223.956 
L 72.425625 7.2 
" style="fill: none; stroke: #ffffff; stroke-width: 1.25; stroke-linejoin: miter; stroke-linecap: square"/>
   </g>
   <g id="patch_4">
    <path d="M 72.425625 223.956 
L 520.010485 223.956 
" style="fill: none; stroke: #ffffff; stroke-width: 1.25; stroke-linejoin: miter; stroke-linecap: square"/>
   </g>
  </g>
  <g id="legend_1">
   <g id="patch_5">
    <path d="M 86.453625 127.883625 
L 201.506062 127.883625 
Q 204.146062 127.883625 204.146062 125.243625 
L 204.146062 29.688 
Q 204.146062 27.048 201.506062 27.048 
L 86.453625 27.048 
Q 83.813625 27.048 83.813625 29.688 
L 83.813625 125.243625 
Q 83.813625 127.883625 86.453625 127.883625 
z
" style="fill: #eaeaf2; opacity: 0.8; stroke: #cccccc; stroke-linejoin: miter"/>
   </g>
   <g id="line2d_28">
    <path d="M 89.093625 37.737937 
L 102.293625 37.737937 
L 115.493625 37.737937 
" style="fill: none; stroke: #dd8452; stroke-width: 1.5; stroke-linecap: round"/>
   </g>
   <g id="text_20">
    <!-- CF-Oracle -->
    <g style="fill: #262626" transform="translate(126.053625 42.357937) scale(0.132 -0.132)">
     <defs>
      <path id="DejaVuSans-43" d="M 4122 4306 
L 4122 3641 
Q 3803 3938 3442 4084 
Q 3081 4231 2675 4231 
Q 1875 4231 1450 3742 
Q 1025 3253 1025 2328 
Q 1025 1406 1450 917 
Q 1875 428 2675 428 
Q 3081 428 3442 575 
Q 3803 722 4122 1019 
L 4122 359 
Q 3791 134 3420 21 
Q 3050 -91 2638 -91 
Q 1578 -91 968 557 
Q 359 1206 359 2328 
Q 359 3453 968 4101 
Q 1578 4750 2638 4750 
Q 3056 4750 3426 4639 
Q 3797 4528 4122 4306 
z
" transform="scale(0.015625)"/>
      <path id="DejaVuSans-46" d="M 628 4666 
L 3309 4666 
L 3309 4134 
L 1259 4134 
L 1259 2759 
L 3109 2759 
L 3109 2228 
L 1259 2228 
L 1259 0 
L 628 0 
L 628 4666 
z
" transform="scale(0.015625)"/>
      <path id="DejaVuSans-2d" d="M 313 2009 
L 1997 2009 
L 1997 1497 
L 313 1497 
L 313 2009 
z
" transform="scale(0.015625)"/>
      <path id="DejaVuSans-6c" d="M 603 4863 
L 1178 4863 
L 1178 0 
L 603 0 
L 603 4863 
z
" transform="scale(0.015625)"/>
     </defs>
     <use xlink:href="#DejaVuSans-43"/>
     <use xlink:href="#DejaVuSans-46" x="69.824219"/>
     <use xlink:href="#DejaVuSans-2d" x="127.34375"/>
     <use xlink:href="#DejaVuSans-4f" x="166.177734"/>
     <use xlink:href="#DejaVuSans-72" x="244.888672"/>
     <use xlink:href="#DejaVuSans-61" x="286.001953"/>
     <use xlink:href="#DejaVuSans-63" x="347.28125"/>
     <use xlink:href="#DejaVuSans-6c" x="402.261719"/>
     <use xlink:href="#DejaVuSans-65" x="430.044922"/>
    </g>
   </g>
   <g id="line2d_29">
    <path d="M 89.093625 57.113062 
L 102.293625 57.113062 
L 115.493625 57.113062 
" style="fill: none; stroke: #4c72b0; stroke-width: 1.5; stroke-linecap: round"/>
   </g>
   <g id="text_21">
    <!-- ChunkFunc -->
    <g style="fill: #262626" transform="translate(126.053625 61.733062) scale(0.132 -0.132)">
     <defs>
      <path id="DejaVuSans-68" d="M 3513 2113 
L 3513 0 
L 2938 0 
L 2938 2094 
Q 2938 2591 2744 2837 
Q 2550 3084 2163 3084 
Q 1697 3084 1428 2787 
Q 1159 2491 1159 1978 
L 1159 0 
L 581 0 
L 581 4863 
L 1159 4863 
L 1159 2956 
Q 1366 3272 1645 3428 
Q 1925 3584 2291 3584 
Q 2894 3584 3203 3211 
Q 3513 2838 3513 2113 
z
" transform="scale(0.015625)"/>
      <path id="DejaVuSans-75" d="M 544 1381 
L 544 3500 
L 1119 3500 
L 1119 1403 
Q 1119 906 1312 657 
Q 1506 409 1894 409 
Q 2359 409 2629 706 
Q 2900 1003 2900 1516 
L 2900 3500 
L 3475 3500 
L 3475 0 
L 2900 0 
L 2900 538 
Q 2691 219 2414 64 
Q 2138 -91 1772 -91 
Q 1169 -91 856 284 
Q 544 659 544 1381 
z
M 1991 3584 
L 1991 3584 
z
" transform="scale(0.015625)"/>
      <path id="DejaVuSans-6b" d="M 581 4863 
L 1159 4863 
L 1159 1991 
L 2875 3500 
L 3609 3500 
L 1753 1863 
L 3688 0 
L 2938 0 
L 1159 1709 
L 1159 0 
L 581 0 
L 581 4863 
z
" transform="scale(0.015625)"/>
     </defs>
     <use xlink:href="#DejaVuSans-43"/>
     <use xlink:href="#DejaVuSans-68" x="69.824219"/>
     <use xlink:href="#DejaVuSans-75" x="133.203125"/>
     <use xlink:href="#DejaVuSans-6e" x="196.582031"/>
     <use xlink:href="#DejaVuSans-6b" x="259.960938"/>
     <use xlink:href="#DejaVuSans-46" x="317.871094"/>
     <use xlink:href="#DejaVuSans-75" x="369.890625"/>
     <use xlink:href="#DejaVuSans-6e" x="433.269531"/>
     <use xlink:href="#DejaVuSans-63" x="496.648438"/>
    </g>
   </g>
   <g id="line2d_30">
    <path d="M 89.093625 76.488187 
L 102.293625 76.488187 
L 115.493625 76.488187 
" style="fill: none; stroke: #55a868; stroke-width: 1.5; stroke-linecap: round"/>
   </g>
   <g id="text_22">
    <!-- SLAM -->
    <g style="fill: #262626" transform="translate(126.053625 81.108187) scale(0.132 -0.132)">
     <defs>
      <path id="DejaVuSans-41" d="M 2188 4044 
L 1331 1722 
L 3047 1722 
L 2188 4044 
z
M 1831 4666 
L 2547 4666 
L 4325 0 
L 3669 0 
L 3244 1197 
L 1141 1197 
L 716 0 
L 50 0 
L 1831 4666 
z
" transform="scale(0.015625)"/>
      <path id="DejaVuSans-4d" d="M 628 4666 
L 1569 4666 
L 2759 1491 
L 3956 4666 
L 4897 4666 
L 4897 0 
L 4281 0 
L 4281 4097 
L 3078 897 
L 2444 897 
L 1241 4097 
L 1241 0 
L 628 0 
L 628 4666 
z
" transform="scale(0.015625)"/>
     </defs>
     <use xlink:href="#DejaVuSans-53"/>
     <use xlink:href="#DejaVuSans-4c" x="63.476562"/>
     <use xlink:href="#DejaVuSans-41" x="121.439453"/>
     <use xlink:href="#DejaVuSans-4d" x="189.847656"/>
    </g>
   </g>
   <g id="line2d_31">
    <path d="M 89.093625 95.863313 
L 102.293625 95.863313 
L 115.493625 95.863313 
" style="fill: none; stroke: #c44e52; stroke-width: 1.5; stroke-linecap: round"/>
   </g>
   <g id="text_23">
    <!-- StepConf -->
    <g style="fill: #262626" transform="translate(126.053625 100.483313) scale(0.132 -0.132)">
     <defs>
      <path id="DejaVuSans-66" d="M 2375 4863 
L 2375 4384 
L 1825 4384 
Q 1516 4384 1395 4259 
Q 1275 4134 1275 3809 
L 1275 3500 
L 2222 3500 
L 2222 3053 
L 1275 3053 
L 1275 0 
L 697 0 
L 697 3053 
L 147 3053 
L 147 3500 
L 697 3500 
L 697 3744 
Q 697 4328 969 4595 
Q 1241 4863 1831 4863 
L 2375 4863 
z
" transform="scale(0.015625)"/>
     </defs>
     <use xlink:href="#DejaVuSans-53"/>
     <use xlink:href="#DejaVuSans-74" x="63.476562"/>
     <use xlink:href="#DejaVuSans-65" x="102.685547"/>
     <use xlink:href="#DejaVuSans-70" x="164.208984"/>
     <use xlink:href="#DejaVuSans-43" x="227.685547"/>
     <use xlink:href="#DejaVuSans-6f" x="297.509766"/>
     <use xlink:href="#DejaVuSans-6e" x="358.691406"/>
     <use xlink:href="#DejaVuSans-66" x="422.070312"/>
    </g>
   </g>
   <g id="line2d_32">
    <path d="M 89.093625 115.238437 
L 102.293625 115.238437 
L 115.493625 115.238437 
" style="fill: none; stroke-dasharray: 4.5,4.5; stroke-dashoffset: 0; stroke: #000000; stroke-width: 1.5"/>
   </g>
   <g id="text_24">
    <!-- SLO -->
    <g style="fill: #262626" transform="translate(126.053625 119.858437) scale(0.132 -0.132)">
     <use xlink:href="#DejaVuSans-53"/>
     <use xlink:href="#DejaVuSans-4c" x="63.476562"/>
     <use xlink:href="#DejaVuSans-4f" x="115.564453"/>
    </g>
   </g>
  </g>
 </g>
 <defs>
  <clipPath id="pa0a7695e24">
   <rect x="72.425625" y="7.2" width="447.58486" height="216.756"/>
  </clipPath>
 </defs>
</svg>
