<?xml version="1.0" encoding="utf-8" standalone="no"?>
<!DOCTYPE svg PUBLIC "-//W3C//DTD SVG 1.1//EN"
  "http://www.w3.org/Graphics/SVG/1.1/DTD/svg11.dtd">
<svg xmlns:xlink="http://www.w3.org/1999/xlink" width="543.318664pt" height="271.367625pt" viewBox="0 0 543.318664 271.367625" xmlns="http://www.w3.org/2000/svg" version="1.1">
 <metadata>
  <rdf:RDF xmlns:dc="http://purl.org/dc/elements/1.1/" xmlns:cc="http://creativecommons.org/ns#" xmlns:rdf="http://www.w3.org/1999/02/22-rdf-syntax-ns#">
   <cc:Work>
    <dc:type rdf:resource="http://purl.org/dc/dcmitype/StillImage"/>
    <dc:date>2024-11-16T19:55:33.140518</dc:date>
    <dc:format>image/svg+xml</dc:format>
    <dc:creator>
     <cc:Agent>
      <dc:title>Matplotlib v3.9.2, https://matplotlib.org/</dc:title>
     </cc:Agent>
    </dc:creator>
   </cc:Work>
  </rdf:RDF>
 </metadata>
 <defs>
  <style type="text/css">*{stroke-linejoin: round; stroke-linecap: butt}</style>
 </defs>
 <g id="figure_1">
  <g id="patch_1">
   <path d="M 0 271.367625 
L 543.318664 271.367625 
L 543.318664 0 
L 0 0 
z
" style="fill: #ffffff"/>
  </g>
  <g id="axes_1">
   <g id="patch_2">
    <path d="M 72.425625 223.956 
L 517.224102 223.956 
L 517.224102 7.2 
L 72.425625 7.2 
z
" style="fill: #eaeaf2"/>
   </g>
   <g id="matplotlib.axis_1">
    <g id="xtick_1">
     <g id="line2d_1">
      <path d="M 72.425625 223.956 
L 72.425625 7.2 
" clip-path="url(#p6003f42ee1)" style="fill: none; stroke: #ffffff; stroke-linecap: round"/>
     </g>
     <g id="text_1">
      <!-- 954 -->
      <g style="fill: #262626" transform="translate(59.827875 243.485937) scale(0.132 -0.132)">
       <defs>
        <path id="DejaVuSans-39" d="M 703 97 
L 703 672 
Q 941 559 1184 500 
Q 1428 441 1663 441 
Q 2288 441 2617 861 
Q 2947 1281 2994 2138 
Q 2813 1869 2534 1725 
Q 2256 1581 1919 1581 
Q 1219 1581 811 2004 
Q 403 2428 403 3163 
Q 403 3881 828 4315 
Q 1253 4750 1959 4750 
Q 2769 4750 3195 4129 
Q 3622 3509 3622 2328 
Q 3622 1225 3098 567 
Q 2575 -91 1691 -91 
Q 1453 -91 1209 -44 
Q 966 3 703 97 
z
M 1959 2075 
Q 2384 2075 2632 2365 
Q 2881 2656 2881 3163 
Q 2881 3666 2632 3958 
Q 2384 4250 1959 4250 
Q 1534 4250 1286 3958 
Q 1038 3666 1038 3163 
Q 1038 2656 1286 2365 
Q 1534 2075 1959 2075 
z
" transform="scale(0.015625)"/>
        <path id="DejaVuSans-35" d="M 691 4666 
L 3169 4666 
L 3169 4134 
L 1269 4134 
L 1269 2991 
Q 1406 3038 1543 3061 
Q 1681 3084 1819 3084 
Q 2600 3084 3056 2656 
Q 3513 2228 3513 1497 
Q 3513 744 3044 326 
Q 2575 -91 1722 -91 
Q 1428 -91 1123 -41 
Q 819 9 494 109 
L 494 744 
Q 775 591 1075 516 
Q 1375 441 1709 441 
Q 2250 441 2565 725 
Q 2881 1009 2881 1497 
Q 2881 1984 2565 2268 
Q 2250 2553 1709 2553 
Q 1456 2553 1204 2497 
Q 953 2441 691 2322 
L 691 4666 
z
" transform="scale(0.015625)"/>
        <path id="DejaVuSans-34" d="M 2419 4116 
L 825 1625 
L 2419 1625 
L 2419 4116 
z
M 2253 4666 
L 3047 4666 
L 3047 1625 
L 3713 1625 
L 3713 1100 
L 3047 1100 
L 3047 0 
L 2419 0 
L 2419 1100 
L 313 1100 
L 313 1709 
L 2253 4666 
z
" transform="scale(0.015625)"/>
       </defs>
       <use xlink:href="#DejaVuSans-39"/>
       <use xlink:href="#DejaVuSans-35" x="63.623047"/>
       <use xlink:href="#DejaVuSans-34" x="127.246094"/>
      </g>
     </g>
    </g>
    <g id="xtick_2">
     <g id="line2d_2">
      <path d="M 128.025435 223.956 
L 128.025435 7.2 
" clip-path="url(#p6003f42ee1)" style="fill: none; stroke: #ffffff; stroke-linecap: round"/>
     </g>
     <g id="text_2">
      <!-- 1,082 -->
      <g style="fill: #262626" transform="translate(109.130872 243.485937) scale(0.132 -0.132)">
       <defs>
        <path id="DejaVuSans-31" d="M 794 531 
L 1825 531 
L 1825 4091 
L 703 3866 
L 703 4441 
L 1819 4666 
L 2450 4666 
L 2450 531 
L 3481 531 
L 3481 0 
L 794 0 
L 794 531 
z
" transform="scale(0.015625)"/>
        <path id="DejaVuSans-2c" d="M 750 794 
L 1409 794 
L 1409 256 
L 897 -744 
L 494 -744 
L 750 256 
L 750 794 
z
" transform="scale(0.015625)"/>
        <path id="DejaVuSans-30" d="M 2034 4250 
Q 1547 4250 1301 3770 
Q 1056 3291 1056 2328 
Q 1056 1369 1301 889 
Q 1547 409 2034 409 
Q 2525 409 2770 889 
Q 3016 1369 3016 2328 
Q 3016 3291 2770 3770 
Q 2525 4250 2034 4250 
z
M 2034 4750 
Q 2819 4750 3233 4129 
Q 3647 3509 3647 2328 
Q 3647 1150 3233 529 
Q 2819 -91 2034 -91 
Q 1250 -91 836 529 
Q 422 1150 422 2328 
Q 422 3509 836 4129 
Q 1250 4750 2034 4750 
z
" transform="scale(0.015625)"/>
        <path id="DejaVuSans-38" d="M 2034 2216 
Q 1584 2216 1326 1975 
Q 1069 1734 1069 1313 
Q 1069 891 1326 650 
Q 1584 409 2034 409 
Q 2484 409 2743 651 
Q 3003 894 3003 1313 
Q 3003 1734 2745 1975 
Q 2488 2216 2034 2216 
z
M 1403 2484 
Q 997 2584 770 2862 
Q 544 3141 544 3541 
Q 544 4100 942 4425 
Q 1341 4750 2034 4750 
Q 2731 4750 3128 4425 
Q 3525 4100 3525 3541 
Q 3525 3141 3298 2862 
Q 3072 2584 2669 2484 
Q 3125 2378 3379 2068 
Q 3634 1759 3634 1313 
Q 3634 634 3220 271 
Q 2806 -91 2034 -91 
Q 1263 -91 848 271 
Q 434 634 434 1313 
Q 434 1759 690 2068 
Q 947 2378 1403 2484 
z
M 1172 3481 
Q 1172 3119 1398 2916 
Q 1625 2713 2034 2713 
Q 2441 2713 2670 2916 
Q 2900 3119 2900 3481 
Q 2900 3844 2670 4047 
Q 2441 4250 2034 4250 
Q 1625 4250 1398 4047 
Q 1172 3844 1172 3481 
z
" transform="scale(0.015625)"/>
        <path id="DejaVuSans-32" d="M 1228 531 
L 3431 531 
L 3431 0 
L 469 0 
L 469 531 
Q 828 903 1448 1529 
Q 2069 2156 2228 2338 
Q 2531 2678 2651 2914 
Q 2772 3150 2772 3378 
Q 2772 3750 2511 3984 
Q 2250 4219 1831 4219 
Q 1534 4219 1204 4116 
Q 875 4013 500 3803 
L 500 4441 
Q 881 4594 1212 4672 
Q 1544 4750 1819 4750 
Q 2544 4750 2975 4387 
Q 3406 4025 3406 3419 
Q 3406 3131 3298 2873 
Q 3191 2616 2906 2266 
Q 2828 2175 2409 1742 
Q 1991 1309 1228 531 
z
" transform="scale(0.015625)"/>
       </defs>
       <use xlink:href="#DejaVuSans-31"/>
       <use xlink:href="#DejaVuSans-2c" x="63.623047"/>
       <use xlink:href="#DejaVuSans-30" x="95.410156"/>
       <use xlink:href="#DejaVuSans-38" x="159.033203"/>
       <use xlink:href="#DejaVuSans-32" x="222.65625"/>
      </g>
     </g>
    </g>
    <g id="xtick_3">
     <g id="line2d_3">
      <path d="M 183.625244 223.956 
L 183.625244 7.2 
" clip-path="url(#p6003f42ee1)" style="fill: none; stroke: #ffffff; stroke-linecap: round"/>
     </g>
     <g id="text_3">
      <!-- 1,210 -->
      <g style="fill: #262626" transform="translate(164.730682 243.485937) scale(0.132 -0.132)">
       <use xlink:href="#DejaVuSans-31"/>
       <use xlink:href="#DejaVuSans-2c" x="63.623047"/>
       <use xlink:href="#DejaVuSans-32" x="95.410156"/>
       <use xlink:href="#DejaVuSans-31" x="159.033203"/>
       <use xlink:href="#DejaVuSans-30" x="222.65625"/>
      </g>
     </g>
    </g>
    <g id="xtick_4">
     <g id="line2d_4">
      <path d="M 239.225054 223.956 
L 239.225054 7.2 
" clip-path="url(#p6003f42ee1)" style="fill: none; stroke: #ffffff; stroke-linecap: round"/>
     </g>
     <g id="text_4">
      <!-- 1,339 -->
      <g style="fill: #262626" transform="translate(220.330491 243.485937) scale(0.132 -0.132)">
       <defs>
        <path id="DejaVuSans-33" d="M 2597 2516 
Q 3050 2419 3304 2112 
Q 3559 1806 3559 1356 
Q 3559 666 3084 287 
Q 2609 -91 1734 -91 
Q 1441 -91 1130 -33 
Q 819 25 488 141 
L 488 750 
Q 750 597 1062 519 
Q 1375 441 1716 441 
Q 2309 441 2620 675 
Q 2931 909 2931 1356 
Q 2931 1769 2642 2001 
Q 2353 2234 1838 2234 
L 1294 2234 
L 1294 2753 
L 1863 2753 
Q 2328 2753 2575 2939 
Q 2822 3125 2822 3475 
Q 2822 3834 2567 4026 
Q 2313 4219 1838 4219 
Q 1578 4219 1281 4162 
Q 984 4106 628 3988 
L 628 4550 
Q 988 4650 1302 4700 
Q 1616 4750 1894 4750 
Q 2613 4750 3031 4423 
Q 3450 4097 3450 3541 
Q 3450 3153 3228 2886 
Q 3006 2619 2597 2516 
z
" transform="scale(0.015625)"/>
       </defs>
       <use xlink:href="#DejaVuSans-31"/>
       <use xlink:href="#DejaVuSans-2c" x="63.623047"/>
       <use xlink:href="#DejaVuSans-33" x="95.410156"/>
       <use xlink:href="#DejaVuSans-33" x="159.033203"/>
       <use xlink:href="#DejaVuSans-39" x="222.65625"/>
      </g>
     </g>
    </g>
    <g id="xtick_5">
     <g id="line2d_5">
      <path d="M 294.824863 223.956 
L 294.824863 7.2 
" clip-path="url(#p6003f42ee1)" style="fill: none; stroke: #ffffff; stroke-linecap: round"/>
     </g>
     <g id="text_5">
      <!-- 1,467 -->
      <g style="fill: #262626" transform="translate(275.930301 243.485937) scale(0.132 -0.132)">
       <defs>
        <path id="DejaVuSans-36" d="M 2113 2584 
Q 1688 2584 1439 2293 
Q 1191 2003 1191 1497 
Q 1191 994 1439 701 
Q 1688 409 2113 409 
Q 2538 409 2786 701 
Q 3034 994 3034 1497 
Q 3034 2003 2786 2293 
Q 2538 2584 2113 2584 
z
M 3366 4563 
L 3366 3988 
Q 3128 4100 2886 4159 
Q 2644 4219 2406 4219 
Q 1781 4219 1451 3797 
Q 1122 3375 1075 2522 
Q 1259 2794 1537 2939 
Q 1816 3084 2150 3084 
Q 2853 3084 3261 2657 
Q 3669 2231 3669 1497 
Q 3669 778 3244 343 
Q 2819 -91 2113 -91 
Q 1303 -91 875 529 
Q 447 1150 447 2328 
Q 447 3434 972 4092 
Q 1497 4750 2381 4750 
Q 2619 4750 2861 4703 
Q 3103 4656 3366 4563 
z
" transform="scale(0.015625)"/>
        <path id="DejaVuSans-37" d="M 525 4666 
L 3525 4666 
L 3525 4397 
L 1831 0 
L 1172 0 
L 2766 4134 
L 525 4134 
L 525 4666 
z
" transform="scale(0.015625)"/>
       </defs>
       <use xlink:href="#DejaVuSans-31"/>
       <use xlink:href="#DejaVuSans-2c" x="63.623047"/>
       <use xlink:href="#DejaVuSans-34" x="95.410156"/>
       <use xlink:href="#DejaVuSans-36" x="159.033203"/>
       <use xlink:href="#DejaVuSans-37" x="222.65625"/>
      </g>
     </g>
    </g>
    <g id="xtick_6">
     <g id="line2d_6">
      <path d="M 350.424673 223.956 
L 350.424673 7.2 
" clip-path="url(#p6003f42ee1)" style="fill: none; stroke: #ffffff; stroke-linecap: round"/>
     </g>
     <g id="text_6">
      <!-- 1,596 -->
      <g style="fill: #262626" transform="translate(331.53011 243.485937) scale(0.132 -0.132)">
       <use xlink:href="#DejaVuSans-31"/>
       <use xlink:href="#DejaVuSans-2c" x="63.623047"/>
       <use xlink:href="#DejaVuSans-35" x="95.410156"/>
       <use xlink:href="#DejaVuSans-39" x="159.033203"/>
       <use xlink:href="#DejaVuSans-36" x="222.65625"/>
      </g>
     </g>
    </g>
    <g id="xtick_7">
     <g id="line2d_7">
      <path d="M 406.024482 223.956 
L 406.024482 7.2 
" clip-path="url(#p6003f42ee1)" style="fill: none; stroke: #ffffff; stroke-linecap: round"/>
     </g>
     <g id="text_7">
      <!-- 1,724 -->
      <g style="fill: #262626" transform="translate(387.12992 243.485937) scale(0.132 -0.132)">
       <use xlink:href="#DejaVuSans-31"/>
       <use xlink:href="#DejaVuSans-2c" x="63.623047"/>
       <use xlink:href="#DejaVuSans-37" x="95.410156"/>
       <use xlink:href="#DejaVuSans-32" x="159.033203"/>
       <use xlink:href="#DejaVuSans-34" x="222.65625"/>
      </g>
     </g>
    </g>
    <g id="xtick_8">
     <g id="line2d_8">
      <path d="M 461.624292 223.956 
L 461.624292 7.2 
" clip-path="url(#p6003f42ee1)" style="fill: none; stroke: #ffffff; stroke-linecap: round"/>
     </g>
     <g id="text_8">
      <!-- 1,852 -->
      <g style="fill: #262626" transform="translate(442.72973 243.485937) scale(0.132 -0.132)">
       <use xlink:href="#DejaVuSans-31"/>
       <use xlink:href="#DejaVuSans-2c" x="63.623047"/>
       <use xlink:href="#DejaVuSans-38" x="95.410156"/>
       <use xlink:href="#DejaVuSans-35" x="159.033203"/>
       <use xlink:href="#DejaVuSans-32" x="222.65625"/>
      </g>
     </g>
    </g>
    <g id="xtick_9">
     <g id="line2d_9">
      <path d="M 517.224102 223.956 
L 517.224102 7.2 
" clip-path="url(#p6003f42ee1)" style="fill: none; stroke: #ffffff; stroke-linecap: round"/>
     </g>
     <g id="text_9">
      <!-- 1,981 -->
      <g style="fill: #262626" transform="translate(498.329539 243.485937) scale(0.132 -0.132)">
       <use xlink:href="#DejaVuSans-31"/>
       <use xlink:href="#DejaVuSans-2c" x="63.623047"/>
       <use xlink:href="#DejaVuSans-39" x="95.410156"/>
       <use xlink:href="#DejaVuSans-38" x="159.033203"/>
       <use xlink:href="#DejaVuSans-31" x="222.65625"/>
      </g>
     </g>
    </g>
    <g id="text_10">
     <!-- SLO (s) -->
     <g style="fill: #262626" transform="translate(269.178238 261.172875) scale(0.144 -0.144)">
      <defs>
       <path id="DejaVuSans-53" d="M 3425 4513 
L 3425 3897 
Q 3066 4069 2747 4153 
Q 2428 4238 2131 4238 
Q 1616 4238 1336 4038 
Q 1056 3838 1056 3469 
Q 1056 3159 1242 3001 
Q 1428 2844 1947 2747 
L 2328 2669 
Q 3034 2534 3370 2195 
Q 3706 1856 3706 1288 
Q 3706 609 3251 259 
Q 2797 -91 1919 -91 
Q 1588 -91 1214 -16 
Q 841 59 441 206 
L 441 856 
Q 825 641 1194 531 
Q 1563 422 1919 422 
Q 2459 422 2753 634 
Q 3047 847 3047 1241 
Q 3047 1584 2836 1778 
Q 2625 1972 2144 2069 
L 1759 2144 
Q 1053 2284 737 2584 
Q 422 2884 422 3419 
Q 422 4038 858 4394 
Q 1294 4750 2059 4750 
Q 2388 4750 2728 4690 
Q 3069 4631 3425 4513 
z
" transform="scale(0.015625)"/>
       <path id="DejaVuSans-4c" d="M 628 4666 
L 1259 4666 
L 1259 531 
L 3531 531 
L 3531 0 
L 628 0 
L 628 4666 
z
" transform="scale(0.015625)"/>
       <path id="DejaVuSans-4f" d="M 2522 4238 
Q 1834 4238 1429 3725 
Q 1025 3213 1025 2328 
Q 1025 1447 1429 934 
Q 1834 422 2522 422 
Q 3209 422 3611 934 
Q 4013 1447 4013 2328 
Q 4013 3213 3611 3725 
Q 3209 4238 2522 4238 
z
M 2522 4750 
Q 3503 4750 4090 4092 
Q 4678 3434 4678 2328 
Q 4678 1225 4090 567 
Q 3503 -91 2522 -91 
Q 1538 -91 948 565 
Q 359 1222 359 2328 
Q 359 3434 948 4092 
Q 1538 4750 2522 4750 
z
" transform="scale(0.015625)"/>
       <path id="DejaVuSans-20" transform="scale(0.015625)"/>
       <path id="DejaVuSans-28" d="M 1984 4856 
Q 1566 4138 1362 3434 
Q 1159 2731 1159 2009 
Q 1159 1288 1364 580 
Q 1569 -128 1984 -844 
L 1484 -844 
Q 1016 -109 783 600 
Q 550 1309 550 2009 
Q 550 2706 781 3412 
Q 1013 4119 1484 4856 
L 1984 4856 
z
" transform="scale(0.015625)"/>
       <path id="DejaVuSans-73" d="M 2834 3397 
L 2834 2853 
Q 2591 2978 2328 3040 
Q 2066 3103 1784 3103 
Q 1356 3103 1142 2972 
Q 928 2841 928 2578 
Q 928 2378 1081 2264 
Q 1234 2150 1697 2047 
L 1894 2003 
Q 2506 1872 2764 1633 
Q 3022 1394 3022 966 
Q 3022 478 2636 193 
Q 2250 -91 1575 -91 
Q 1294 -91 989 -36 
Q 684 19 347 128 
L 347 722 
Q 666 556 975 473 
Q 1284 391 1588 391 
Q 1994 391 2212 530 
Q 2431 669 2431 922 
Q 2431 1156 2273 1281 
Q 2116 1406 1581 1522 
L 1381 1569 
Q 847 1681 609 1914 
Q 372 2147 372 2553 
Q 372 3047 722 3315 
Q 1072 3584 1716 3584 
Q 2034 3584 2315 3537 
Q 2597 3491 2834 3397 
z
" transform="scale(0.015625)"/>
       <path id="DejaVuSans-29" d="M 513 4856 
L 1013 4856 
Q 1481 4119 1714 3412 
Q 1947 2706 1947 2009 
Q 1947 1309 1714 600 
Q 1481 -109 1013 -844 
L 513 -844 
Q 928 -128 1133 580 
Q 1338 1288 1338 2009 
Q 1338 2731 1133 3434 
Q 928 4138 513 4856 
z
" transform="scale(0.015625)"/>
      </defs>
      <use xlink:href="#DejaVuSans-53"/>
      <use xlink:href="#DejaVuSans-4c" x="63.476562"/>
      <use xlink:href="#DejaVuSans-4f" x="115.564453"/>
      <use xlink:href="#DejaVuSans-20" x="194.275391"/>
      <use xlink:href="#DejaVuSans-28" x="226.0625"/>
      <use xlink:href="#DejaVuSans-73" x="265.076172"/>
      <use xlink:href="#DejaVuSans-29" x="317.175781"/>
     </g>
    </g>
   </g>
   <g id="matplotlib.axis_2">
    <g id="ytick_1">
     <g id="line2d_10">
      <path d="M 72.425625 205.194275 
L 517.224102 205.194275 
" clip-path="url(#p6003f42ee1)" style="fill: none; stroke: #ffffff; stroke-linecap: round"/>
     </g>
     <g id="text_11">
      <!-- 1,000 -->
      <g style="fill: #262626" transform="translate(25.1365 210.209244) scale(0.132 -0.132)">
       <use xlink:href="#DejaVuSans-31"/>
       <use xlink:href="#DejaVuSans-2c" x="63.623047"/>
       <use xlink:href="#DejaVuSans-30" x="95.410156"/>
       <use xlink:href="#DejaVuSans-30" x="159.033203"/>
       <use xlink:href="#DejaVuSans-30" x="222.65625"/>
      </g>
     </g>
    </g>
    <g id="ytick_2">
     <g id="line2d_11">
      <path d="M 72.425625 174.319659 
L 517.224102 174.319659 
" clip-path="url(#p6003f42ee1)" style="fill: none; stroke: #ffffff; stroke-linecap: round"/>
     </g>
     <g id="text_12">
      <!-- 1,200 -->
      <g style="fill: #262626" transform="translate(25.1365 179.334628) scale(0.132 -0.132)">
       <use xlink:href="#DejaVuSans-31"/>
       <use xlink:href="#DejaVuSans-2c" x="63.623047"/>
       <use xlink:href="#DejaVuSans-32" x="95.410156"/>
       <use xlink:href="#DejaVuSans-30" x="159.033203"/>
       <use xlink:href="#DejaVuSans-30" x="222.65625"/>
      </g>
     </g>
    </g>
    <g id="ytick_3">
     <g id="line2d_12">
      <path d="M 72.425625 143.445043 
L 517.224102 143.445043 
" clip-path="url(#p6003f42ee1)" style="fill: none; stroke: #ffffff; stroke-linecap: round"/>
     </g>
     <g id="text_13">
      <!-- 1,400 -->
      <g style="fill: #262626" transform="translate(25.1365 148.460011) scale(0.132 -0.132)">
       <use xlink:href="#DejaVuSans-31"/>
       <use xlink:href="#DejaVuSans-2c" x="63.623047"/>
       <use xlink:href="#DejaVuSans-34" x="95.410156"/>
       <use xlink:href="#DejaVuSans-30" x="159.033203"/>
       <use xlink:href="#DejaVuSans-30" x="222.65625"/>
      </g>
     </g>
    </g>
    <g id="ytick_4">
     <g id="line2d_13">
      <path d="M 72.425625 112.570426 
L 517.224102 112.570426 
" clip-path="url(#p6003f42ee1)" style="fill: none; stroke: #ffffff; stroke-linecap: round"/>
     </g>
     <g id="text_14">
      <!-- 1,600 -->
      <g style="fill: #262626" transform="translate(25.1365 117.585395) scale(0.132 -0.132)">
       <use xlink:href="#DejaVuSans-31"/>
       <use xlink:href="#DejaVuSans-2c" x="63.623047"/>
       <use xlink:href="#DejaVuSans-36" x="95.410156"/>
       <use xlink:href="#DejaVuSans-30" x="159.033203"/>
       <use xlink:href="#DejaVuSans-30" x="222.65625"/>
      </g>
     </g>
    </g>
    <g id="ytick_5">
     <g id="line2d_14">
      <path d="M 72.425625 81.69581 
L 517.224102 81.69581 
" clip-path="url(#p6003f42ee1)" style="fill: none; stroke: #ffffff; stroke-linecap: round"/>
     </g>
     <g id="text_15">
      <!-- 1,800 -->
      <g style="fill: #262626" transform="translate(25.1365 86.710779) scale(0.132 -0.132)">
       <use xlink:href="#DejaVuSans-31"/>
       <use xlink:href="#DejaVuSans-2c" x="63.623047"/>
       <use xlink:href="#DejaVuSans-38" x="95.410156"/>
       <use xlink:href="#DejaVuSans-30" x="159.033203"/>
       <use xlink:href="#DejaVuSans-30" x="222.65625"/>
      </g>
     </g>
    </g>
    <g id="ytick_6">
     <g id="line2d_15">
      <path d="M 72.425625 50.821194 
L 517.224102 50.821194 
" clip-path="url(#p6003f42ee1)" style="fill: none; stroke: #ffffff; stroke-linecap: round"/>
     </g>
     <g id="text_16">
      <!-- 2,000 -->
      <g style="fill: #262626" transform="translate(25.1365 55.836163) scale(0.132 -0.132)">
       <use xlink:href="#DejaVuSans-32"/>
       <use xlink:href="#DejaVuSans-2c" x="63.623047"/>
       <use xlink:href="#DejaVuSans-30" x="95.410156"/>
       <use xlink:href="#DejaVuSans-30" x="159.033203"/>
       <use xlink:href="#DejaVuSans-30" x="222.65625"/>
      </g>
     </g>
    </g>
    <g id="ytick_7">
     <g id="line2d_16">
      <path d="M 72.425625 19.946578 
L 517.224102 19.946578 
" clip-path="url(#p6003f42ee1)" style="fill: none; stroke: #ffffff; stroke-linecap: round"/>
     </g>
     <g id="text_17">
      <!-- 2,200 -->
      <g style="fill: #262626" transform="translate(25.1365 24.961546) scale(0.132 -0.132)">
       <use xlink:href="#DejaVuSans-32"/>
       <use xlink:href="#DejaVuSans-2c" x="63.623047"/>
       <use xlink:href="#DejaVuSans-32" x="95.410156"/>
       <use xlink:href="#DejaVuSans-30" x="159.033203"/>
       <use xlink:href="#DejaVuSans-30" x="222.65625"/>
      </g>
     </g>
    </g>
    <g id="text_18">
     <!-- Response Time (s) -->
     <g style="fill: #262626" transform="translate(18.14175 181.720125) rotate(-90) scale(0.144 -0.144)">
      <defs>
       <path id="DejaVuSans-52" d="M 2841 2188 
Q 3044 2119 3236 1894 
Q 3428 1669 3622 1275 
L 4263 0 
L 3584 0 
L 2988 1197 
Q 2756 1666 2539 1819 
Q 2322 1972 1947 1972 
L 1259 1972 
L 1259 0 
L 628 0 
L 628 4666 
L 2053 4666 
Q 2853 4666 3247 4331 
Q 3641 3997 3641 3322 
Q 3641 2881 3436 2590 
Q 3231 2300 2841 2188 
z
M 1259 4147 
L 1259 2491 
L 2053 2491 
Q 2509 2491 2742 2702 
Q 2975 2913 2975 3322 
Q 2975 3731 2742 3939 
Q 2509 4147 2053 4147 
L 1259 4147 
z
" transform="scale(0.015625)"/>
       <path id="DejaVuSans-65" d="M 3597 1894 
L 3597 1613 
L 953 1613 
Q 991 1019 1311 708 
Q 1631 397 2203 397 
Q 2534 397 2845 478 
Q 3156 559 3463 722 
L 3463 178 
Q 3153 47 2828 -22 
Q 2503 -91 2169 -91 
Q 1331 -91 842 396 
Q 353 884 353 1716 
Q 353 2575 817 3079 
Q 1281 3584 2069 3584 
Q 2775 3584 3186 3129 
Q 3597 2675 3597 1894 
z
M 3022 2063 
Q 3016 2534 2758 2815 
Q 2500 3097 2075 3097 
Q 1594 3097 1305 2825 
Q 1016 2553 972 2059 
L 3022 2063 
z
" transform="scale(0.015625)"/>
       <path id="DejaVuSans-70" d="M 1159 525 
L 1159 -1331 
L 581 -1331 
L 581 3500 
L 1159 3500 
L 1159 2969 
Q 1341 3281 1617 3432 
Q 1894 3584 2278 3584 
Q 2916 3584 3314 3078 
Q 3713 2572 3713 1747 
Q 3713 922 3314 415 
Q 2916 -91 2278 -91 
Q 1894 -91 1617 61 
Q 1341 213 1159 525 
z
M 3116 1747 
Q 3116 2381 2855 2742 
Q 2594 3103 2138 3103 
Q 1681 3103 1420 2742 
Q 1159 2381 1159 1747 
Q 1159 1113 1420 752 
Q 1681 391 2138 391 
Q 2594 391 2855 752 
Q 3116 1113 3116 1747 
z
" transform="scale(0.015625)"/>
       <path id="DejaVuSans-6f" d="M 1959 3097 
Q 1497 3097 1228 2736 
Q 959 2375 959 1747 
Q 959 1119 1226 758 
Q 1494 397 1959 397 
Q 2419 397 2687 759 
Q 2956 1122 2956 1747 
Q 2956 2369 2687 2733 
Q 2419 3097 1959 3097 
z
M 1959 3584 
Q 2709 3584 3137 3096 
Q 3566 2609 3566 1747 
Q 3566 888 3137 398 
Q 2709 -91 1959 -91 
Q 1206 -91 779 398 
Q 353 888 353 1747 
Q 353 2609 779 3096 
Q 1206 3584 1959 3584 
z
" transform="scale(0.015625)"/>
       <path id="DejaVuSans-6e" d="M 3513 2113 
L 3513 0 
L 2938 0 
L 2938 2094 
Q 2938 2591 2744 2837 
Q 2550 3084 2163 3084 
Q 1697 3084 1428 2787 
Q 1159 2491 1159 1978 
L 1159 0 
L 581 0 
L 581 3500 
L 1159 3500 
L 1159 2956 
Q 1366 3272 1645 3428 
Q 1925 3584 2291 3584 
Q 2894 3584 3203 3211 
Q 3513 2838 3513 2113 
z
" transform="scale(0.015625)"/>
       <path id="DejaVuSans-54" d="M -19 4666 
L 3928 4666 
L 3928 4134 
L 2272 4134 
L 2272 0 
L 1638 0 
L 1638 4134 
L -19 4134 
L -19 4666 
z
" transform="scale(0.015625)"/>
       <path id="DejaVuSans-69" d="M 603 3500 
L 1178 3500 
L 1178 0 
L 603 0 
L 603 3500 
z
M 603 4863 
L 1178 4863 
L 1178 4134 
L 603 4134 
L 603 4863 
z
" transform="scale(0.015625)"/>
       <path id="DejaVuSans-6d" d="M 3328 2828 
Q 3544 3216 3844 3400 
Q 4144 3584 4550 3584 
Q 5097 3584 5394 3201 
Q 5691 2819 5691 2113 
L 5691 0 
L 5113 0 
L 5113 2094 
Q 5113 2597 4934 2840 
Q 4756 3084 4391 3084 
Q 3944 3084 3684 2787 
Q 3425 2491 3425 1978 
L 3425 0 
L 2847 0 
L 2847 2094 
Q 2847 2600 2669 2842 
Q 2491 3084 2119 3084 
Q 1678 3084 1418 2786 
Q 1159 2488 1159 1978 
L 1159 0 
L 581 0 
L 581 3500 
L 1159 3500 
L 1159 2956 
Q 1356 3278 1631 3431 
Q 1906 3584 2284 3584 
Q 2666 3584 2933 3390 
Q 3200 3197 3328 2828 
z
" transform="scale(0.015625)"/>
      </defs>
      <use xlink:href="#DejaVuSans-52"/>
      <use xlink:href="#DejaVuSans-65" x="64.982422"/>
      <use xlink:href="#DejaVuSans-73" x="126.505859"/>
      <use xlink:href="#DejaVuSans-70" x="178.605469"/>
      <use xlink:href="#DejaVuSans-6f" x="242.082031"/>
      <use xlink:href="#DejaVuSans-6e" x="303.263672"/>
      <use xlink:href="#DejaVuSans-73" x="366.642578"/>
      <use xlink:href="#DejaVuSans-65" x="418.742188"/>
      <use xlink:href="#DejaVuSans-20" x="480.265625"/>
      <use xlink:href="#DejaVuSans-54" x="512.052734"/>
      <use xlink:href="#DejaVuSans-69" x="570.011719"/>
      <use xlink:href="#DejaVuSans-6d" x="597.794922"/>
      <use xlink:href="#DejaVuSans-65" x="695.207031"/>
      <use xlink:href="#DejaVuSans-20" x="756.730469"/>
      <use xlink:href="#DejaVuSans-28" x="788.517578"/>
      <use xlink:href="#DejaVuSans-73" x="827.53125"/>
      <use xlink:href="#DejaVuSans-29" x="879.630859"/>
     </g>
    </g>
   </g>
   <g id="PolyCollection_1"/>
   <g id="PolyCollection_2"/>
   <g id="PolyCollection_3"/>
   <g id="PolyCollection_4"/>
   <g id="PolyCollection_5"/>
   <g id="line2d_17">
    <path d="M 72.425625 212.350394 
L 78.779889 210.413166 
L 85.134153 208.475938 
L 91.488417 206.53871 
L 97.842681 203.356155 
L 104.196945 202.835146 
L 110.551209 199.620172 
L 116.905473 196.487016 
L 123.259737 195.916607 
L 129.614001 192.701634 
L 135.968265 190.764406 
L 142.322528 188.827178 
L 148.676792 185.644623 
L 155.031056 184.399295 
L 161.38532 181.21674 
L 167.739584 179.971412 
L 174.093848 176.134006 
L 180.448112 174.159728 
L 186.802376 171.669073 
L 193.15664 169.305004 
L 199.510904 167.93309 
L 205.865168 165.995862 
L 212.219432 162.813307 
L 218.573696 162.813307 
L 224.92796 162.813307 
L 231.282224 157.121571 
L 237.636488 157.121571 
L 243.990752 151.429836 
L 250.345016 151.429836 
L 256.69928 151.429836 
L 263.053544 145.7381 
L 269.407808 145.7381 
L 275.762071 140.046365 
L 282.116335 140.046365 
L 288.470599 140.046365 
L 294.824863 134.354629 
L 301.179127 134.354629 
L 307.533391 128.662894 
L 313.887655 128.662894 
L 320.241919 125.000393 
L 326.596183 125.000393 
L 332.950447 119.482481 
L 339.304711 119.308657 
L 345.658975 119.308657 
L 352.013239 113.616922 
L 358.367503 113.616922 
L 364.721767 108.163538 
L 371.076031 107.925186 
L 377.430295 107.925186 
L 383.784559 102.233451 
L 390.138823 102.233451 
L 396.493087 96.844595 
L 402.84735 96.541715 
L 409.201614 92.879214 
L 415.555878 90.041373 
L 421.910142 89.216712 
L 428.264406 85.688516 
L 434.61867 85.554211 
L 440.972934 81.89171 
L 447.327198 81.89171 
L 453.681462 76.488343 
L 460.035726 76.199974 
L 466.38999 72.537473 
L 472.744254 69.672771 
L 479.098518 68.874971 
L 485.452782 65.346775 
L 491.807046 65.21247 
L 498.16131 61.549969 
L 504.515574 61.549969 
L 510.869838 56.248643 
L 517.224102 55.858233 
" clip-path="url(#p6003f42ee1)" style="fill: none; stroke: #dd8452; stroke-width: 1.5; stroke-linecap: round"/>
   </g>
   <g id="line2d_18">
    <path d="M 72.425625 214.103455 
L 78.779889 210.628053 
L 85.134153 209.412983 
L 91.488417 206.448402 
L 97.842681 204.492186 
L 104.196945 202.548784 
L 110.551209 199.620635 
L 116.905473 197.683407 
L 123.259737 195.74618 
L 129.614001 193.808952 
L 135.968265 191.871724 
L 142.322528 189.934496 
L 148.676792 187.997268 
L 155.031056 186.060041 
L 161.38532 184.122813 
L 167.739584 182.185585 
L 174.093848 176.493849 
L 180.448112 176.493849 
L 186.802376 176.493849 
L 193.15664 174.556622 
L 199.510904 170.89412 
L 205.865168 165.202385 
L 212.219432 165.202385 
L 218.573696 165.202385 
L 224.92796 163.265157 
L 231.282224 155.732986 
L 237.636488 153.698966 
L 243.990752 153.698966 
L 250.345016 153.83574 
L 256.69928 148.099237 
L 263.053544 144.436735 
L 269.407808 142.499508 
L 275.762071 140.56228 
L 282.116335 138.625052 
L 288.470599 140.743823 
L 294.824863 134.962551 
L 301.179127 131.300049 
L 307.533391 131.300049 
L 313.887655 129.368996 
L 320.241919 127.425594 
L 326.596183 123.763092 
L 332.950447 120.190127 
L 339.304711 120.100591 
L 345.658975 116.43809 
L 352.013239 112.989858 
L 358.367503 112.775588 
L 364.721767 112.775588 
L 371.076031 107.083853 
L 377.430295 103.634078 
L 383.784559 103.421351 
L 390.138823 99.75885 
L 396.493087 99.75885 
L 402.84735 96.141117 
L 409.201614 92.540982 
L 415.555878 92.433847 
L 421.910142 92.433847 
L 428.264406 86.742112 
L 434.61867 83.253435 
L 440.972934 83.07961 
L 447.327198 79.417109 
L 453.681462 81.580648 
L 460.035726 75.754608 
L 466.38999 72.271179 
L 472.744254 74.389178 
L 479.098518 68.429605 
L 485.452782 68.429605 
L 491.807046 64.811872 
L 498.16131 64.767104 
L 504.515574 59.075368 
L 510.869838 59.075368 
L 517.224102 59.075368 
" clip-path="url(#p6003f42ee1)" style="fill: none; stroke: #4c72b0; stroke-width: 1.5; stroke-linecap: round"/>
   </g>
   <g id="line2d_19">
    <path d="M 72.425625 189.60105 
L 78.779889 188.346152 
L 85.134153 184.484046 
L 91.488417 181.298094 
L 97.842681 179.367041 
L 104.196945 176.18109 
L 110.551209 172.995138 
L 116.905473 171.064085 
L 123.259737 167.878133 
L 129.614001 165.947081 
L 135.968265 162.813307 
L 142.322528 162.813307 
L 148.676792 159.205145 
L 155.031056 159.205145 
L 161.38532 153.577011 
L 167.739584 153.577011 
L 174.093848 149.968849 
L 180.448112 149.968849 
L 186.802376 146.360687 
L 193.15664 146.360687 
L 199.510904 140.732553 
L 205.865168 137.124391 
L 212.219432 137.124391 
L 218.573696 133.516229 
L 224.92796 133.516229 
L 231.282224 127.888095 
L 237.636488 127.888095 
L 243.990752 124.279933 
L 250.345016 124.279933 
L 256.69928 120.671771 
L 263.053544 120.671771 
L 269.407808 115.043638 
L 275.762071 111.435476 
L 282.116335 111.435476 
L 288.470599 107.827314 
L 294.824863 107.827314 
L 301.179127 104.219151 
L 307.533391 104.219151 
L 313.887655 100.610989 
L 320.241919 100.610989 
L 326.596183 94.982856 
L 332.950447 91.374694 
L 339.304711 91.374694 
L 345.658975 85.74656 
L 352.013239 85.74656 
L 358.367503 80.118426 
L 364.721767 80.118426 
L 371.076031 74.490292 
L 377.430295 74.490292 
L 383.784559 68.862158 
L 390.138823 68.862158 
L 396.493087 65.253996 
L 402.84735 59.625863 
L 409.201614 59.625863 
L 415.555878 56.017701 
L 421.910142 56.017701 
L 428.264406 52.409539 
L 434.61867 52.409539 
L 440.972934 48.801376 
L 447.327198 48.801376 
L 453.681462 43.173243 
L 460.035726 43.173243 
L 466.38999 37.545109 
L 472.744254 31.916975 
L 479.098518 31.916975 
L 485.452782 28.308813 
L 491.807046 28.308813 
L 498.16131 22.680679 
L 504.515574 22.680679 
L 510.869838 17.052545 
L 517.224102 17.052545 
" clip-path="url(#p6003f42ee1)" style="fill: none; stroke: #55a868; stroke-width: 1.5; stroke-linecap: round"/>
   </g>
   <g id="line2d_20">
    <path d="M 72.425625 202.331581 
L 78.779889 200.74478 
L 85.134153 197.085829 
L 91.488417 195.026029 
L 97.842681 193.095748 
L 104.196945 191.578106 
L 110.551209 187.387803 
L 116.905473 186.421737 
L 123.259737 184.879704 
L 129.614001 182.734844 
L 135.968265 179.971875 
L 142.322528 178.434165 
L 148.676792 176.220146 
L 155.031056 173.526336 
L 161.38532 171.963926 
L 167.739584 168.673772 
L 174.093848 166.827933 
L 180.448112 164.314894 
L 186.802376 163.096273 
L 193.15664 160.382394 
L 199.510904 158.472182 
L 205.865168 155.474565 
L 212.219432 153.887764 
L 218.573696 152.350054 
L 224.92796 148.452751 
L 231.282224 146.870273 
L 237.636488 145.32824 
L 243.990752 143.506792 
L 250.345016 140.236707 
L 256.69928 138.306426 
L 263.053544 136.484978 
L 269.407808 134.270959 
L 275.762071 130.980806 
L 282.116335 129.463164 
L 288.470599 127.273536 
L 294.824863 125.343255 
L 301.179127 122.709496 
L 307.533391 121.433139 
L 313.887655 118.433207 
L 320.241919 116.505242 
L 326.596183 114.132528 
L 332.950447 111.595097 
L 339.304711 110.642152 
L 345.658975 107.01068 
L 352.013239 105.734323 
L 358.367503 102.202885 
L 364.721767 100.013257 
L 371.076031 98.082976 
L 377.430295 96.746105 
L 383.784559 94.152792 
L 390.138823 92.490194 
L 396.493087 89.104946 
L 402.84735 87.905776 
L 409.201614 85.975495 
L 415.555878 83.381873 
L 421.910142 81.067666 
L 428.264406 78.474044 
L 434.61867 76.791377 
L 440.972934 72.752978 
L 447.327198 70.822697 
L 453.681462 70.137743 
L 460.035726 68.324477 
L 466.38999 64.148685 
L 472.744254 62.832191 
L 479.098518 60.90191 
L 485.452782 59.720185 
L 491.807046 54.912852 
L 498.16131 53.904487 
L 504.515574 52.297618 
L 510.869838 50.79248 
L 517.224102 49.250448 
" clip-path="url(#p6003f42ee1)" style="fill: none; stroke: #c44e52; stroke-width: 1.5; stroke-linecap: round"/>
   </g>
   <g id="line2d_21">
    <path d="M 72.425625 212.338044 
L 78.779889 210.073082 
L 85.134153 207.80812 
L 91.488417 205.543158 
L 97.842681 203.278197 
L 104.196945 201.013235 
L 110.551209 198.748273 
L 116.905473 196.483311 
L 123.259737 194.218349 
L 129.614001 191.953387 
L 135.968265 189.688425 
L 142.322528 187.423464 
L 148.676792 185.158502 
L 155.031056 182.89354 
L 161.38532 180.628578 
L 167.739584 178.363616 
L 174.093848 176.098654 
L 180.448112 173.833693 
L 186.802376 171.568731 
L 193.15664 169.303769 
L 199.510904 167.038807 
L 205.865168 164.773845 
L 212.219432 162.508883 
L 218.573696 160.243921 
L 224.92796 157.97896 
L 231.282224 155.713998 
L 237.636488 153.449036 
L 243.990752 151.184074 
L 250.345016 148.919112 
L 256.69928 146.65415 
L 263.053544 144.389188 
L 269.407808 142.124227 
L 275.762071 139.859265 
L 282.116335 137.594303 
L 288.470599 135.329341 
L 294.824863 133.064379 
L 301.179127 130.799417 
L 307.533391 128.534456 
L 313.887655 126.269494 
L 320.241919 124.004532 
L 326.596183 121.73957 
L 332.950447 119.474608 
L 339.304711 117.209646 
L 345.658975 114.944684 
L 352.013239 112.679723 
L 358.367503 110.414761 
L 364.721767 108.149799 
L 371.076031 105.884837 
L 377.430295 103.619875 
L 383.784559 101.354913 
L 390.138823 99.089951 
L 396.493087 96.82499 
L 402.84735 94.560028 
L 409.201614 92.295066 
L 415.555878 90.030104 
L 421.910142 87.765142 
L 428.264406 85.50018 
L 434.61867 83.235219 
L 440.972934 80.970257 
L 447.327198 78.705295 
L 453.681462 76.440333 
L 460.035726 74.175371 
L 466.38999 71.910409 
L 472.744254 69.645447 
L 479.098518 67.380486 
L 485.452782 65.115524 
L 491.807046 62.850562 
L 498.16131 60.5856 
L 504.515574 58.320638 
L 510.869838 56.055676 
L 517.224102 53.790714 
" clip-path="url(#p6003f42ee1)" style="fill: none; stroke-dasharray: 4.5,4.5; stroke-dashoffset: 0; stroke: #000000; stroke-width: 1.5"/>
   </g>
   <g id="line2d_22"/>
   <g id="line2d_23"/>
   <g id="line2d_24"/>
   <g id="line2d_25"/>
   <g id="line2d_26"/>
   <g id="patch_3">
    <path d="M 72.425625 223.956 
L 72.425625 7.2 
" style="fill: none; stroke: #ffffff; stroke-width: 1.25; stroke-linejoin: miter; stroke-linecap: square"/>
   </g>
   <g id="patch_4">
    <path d="M 72.425625 223.956 
L 517.224102 223.956 
" style="fill: none; stroke: #ffffff; stroke-width: 1.25; stroke-linejoin: miter; stroke-linecap: square"/>
   </g>
  </g>
  <g id="legend_1">
   <g id="patch_5">
    <path d="M 86.453625 127.883625 
L 201.506062 127.883625 
Q 204.146062 127.883625 204.146062 125.243625 
L 204.146062 29.688 
Q 204.146062 27.048 201.506062 27.048 
L 86.453625 27.048 
Q 83.813625 27.048 83.813625 29.688 
L 83.813625 125.243625 
Q 83.813625 127.883625 86.453625 127.883625 
z
" style="fill: #eaeaf2; opacity: 0.8; stroke: #cccccc; stroke-linejoin: miter"/>
   </g>
   <g id="line2d_27">
    <path d="M 89.093625 37.737937 
L 102.293625 37.737937 
L 115.493625 37.737937 
" style="fill: none; stroke: #dd8452; stroke-width: 1.5; stroke-linecap: round"/>
   </g>
   <g id="text_19">
    <!-- CF-Oracle -->
    <g style="fill: #262626" transform="translate(126.053625 42.357937) scale(0.132 -0.132)">
     <defs>
      <path id="DejaVuSans-43" d="M 4122 4306 
L 4122 3641 
Q 3803 3938 3442 4084 
Q 3081 4231 2675 4231 
Q 1875 4231 1450 3742 
Q 1025 3253 1025 2328 
Q 1025 1406 1450 917 
Q 1875 428 2675 428 
Q 3081 428 3442 575 
Q 3803 722 4122 1019 
L 4122 359 
Q 3791 134 3420 21 
Q 3050 -91 2638 -91 
Q 1578 -91 968 557 
Q 359 1206 359 2328 
Q 359 3453 968 4101 
Q 1578 4750 2638 4750 
Q 3056 4750 3426 4639 
Q 3797 4528 4122 4306 
z
" transform="scale(0.015625)"/>
      <path id="DejaVuSans-46" d="M 628 4666 
L 3309 4666 
L 3309 4134 
L 1259 4134 
L 1259 2759 
L 3109 2759 
L 3109 2228 
L 1259 2228 
L 1259 0 
L 628 0 
L 628 4666 
z
" transform="scale(0.015625)"/>
      <path id="DejaVuSans-2d" d="M 313 2009 
L 1997 2009 
L 1997 1497 
L 313 1497 
L 313 2009 
z
" transform="scale(0.015625)"/>
      <path id="DejaVuSans-72" d="M 2631 2963 
Q 2534 3019 2420 3045 
Q 2306 3072 2169 3072 
Q 1681 3072 1420 2755 
Q 1159 2438 1159 1844 
L 1159 0 
L 581 0 
L 581 3500 
L 1159 3500 
L 1159 2956 
Q 1341 3275 1631 3429 
Q 1922 3584 2338 3584 
Q 2397 3584 2469 3576 
Q 2541 3569 2628 3553 
L 2631 2963 
z
" transform="scale(0.015625)"/>
      <path id="DejaVuSans-61" d="M 2194 1759 
Q 1497 1759 1228 1600 
Q 959 1441 959 1056 
Q 959 750 1161 570 
Q 1363 391 1709 391 
Q 2188 391 2477 730 
Q 2766 1069 2766 1631 
L 2766 1759 
L 2194 1759 
z
M 3341 1997 
L 3341 0 
L 2766 0 
L 2766 531 
Q 2569 213 2275 61 
Q 1981 -91 1556 -91 
Q 1019 -91 701 211 
Q 384 513 384 1019 
Q 384 1609 779 1909 
Q 1175 2209 1959 2209 
L 2766 2209 
L 2766 2266 
Q 2766 2663 2505 2880 
Q 2244 3097 1772 3097 
Q 1472 3097 1187 3025 
Q 903 2953 641 2809 
L 641 3341 
Q 956 3463 1253 3523 
Q 1550 3584 1831 3584 
Q 2591 3584 2966 3190 
Q 3341 2797 3341 1997 
z
" transform="scale(0.015625)"/>
      <path id="DejaVuSans-63" d="M 3122 3366 
L 3122 2828 
Q 2878 2963 2633 3030 
Q 2388 3097 2138 3097 
Q 1578 3097 1268 2742 
Q 959 2388 959 1747 
Q 959 1106 1268 751 
Q 1578 397 2138 397 
Q 2388 397 2633 464 
Q 2878 531 3122 666 
L 3122 134 
Q 2881 22 2623 -34 
Q 2366 -91 2075 -91 
Q 1284 -91 818 406 
Q 353 903 353 1747 
Q 353 2603 823 3093 
Q 1294 3584 2113 3584 
Q 2378 3584 2631 3529 
Q 2884 3475 3122 3366 
z
" transform="scale(0.015625)"/>
      <path id="DejaVuSans-6c" d="M 603 4863 
L 1178 4863 
L 1178 0 
L 603 0 
L 603 4863 
z
" transform="scale(0.015625)"/>
     </defs>
     <use xlink:href="#DejaVuSans-43"/>
     <use xlink:href="#DejaVuSans-46" x="69.824219"/>
     <use xlink:href="#DejaVuSans-2d" x="127.34375"/>
     <use xlink:href="#DejaVuSans-4f" x="166.177734"/>
     <use xlink:href="#DejaVuSans-72" x="244.888672"/>
     <use xlink:href="#DejaVuSans-61" x="286.001953"/>
     <use xlink:href="#DejaVuSans-63" x="347.28125"/>
     <use xlink:href="#DejaVuSans-6c" x="402.261719"/>
     <use xlink:href="#DejaVuSans-65" x="430.044922"/>
    </g>
   </g>
   <g id="line2d_28">
    <path d="M 89.093625 57.113062 
L 102.293625 57.113062 
L 115.493625 57.113062 
" style="fill: none; stroke: #4c72b0; stroke-width: 1.5; stroke-linecap: round"/>
   </g>
   <g id="text_20">
    <!-- ChunkFunc -->
    <g style="fill: #262626" transform="translate(126.053625 61.733062) scale(0.132 -0.132)">
     <defs>
      <path id="DejaVuSans-68" d="M 3513 2113 
L 3513 0 
L 2938 0 
L 2938 2094 
Q 2938 2591 2744 2837 
Q 2550 3084 2163 3084 
Q 1697 3084 1428 2787 
Q 1159 2491 1159 1978 
L 1159 0 
L 581 0 
L 581 4863 
L 1159 4863 
L 1159 2956 
Q 1366 3272 1645 3428 
Q 1925 3584 2291 3584 
Q 2894 3584 3203 3211 
Q 3513 2838 3513 2113 
z
" transform="scale(0.015625)"/>
      <path id="DejaVuSans-75" d="M 544 1381 
L 544 3500 
L 1119 3500 
L 1119 1403 
Q 1119 906 1312 657 
Q 1506 409 1894 409 
Q 2359 409 2629 706 
Q 2900 1003 2900 1516 
L 2900 3500 
L 3475 3500 
L 3475 0 
L 2900 0 
L 2900 538 
Q 2691 219 2414 64 
Q 2138 -91 1772 -91 
Q 1169 -91 856 284 
Q 544 659 544 1381 
z
M 1991 3584 
L 1991 3584 
z
" transform="scale(0.015625)"/>
      <path id="DejaVuSans-6b" d="M 581 4863 
L 1159 4863 
L 1159 1991 
L 2875 3500 
L 3609 3500 
L 1753 1863 
L 3688 0 
L 2938 0 
L 1159 1709 
L 1159 0 
L 581 0 
L 581 4863 
z
" transform="scale(0.015625)"/>
     </defs>
     <use xlink:href="#DejaVuSans-43"/>
     <use xlink:href="#DejaVuSans-68" x="69.824219"/>
     <use xlink:href="#DejaVuSans-75" x="133.203125"/>
     <use xlink:href="#DejaVuSans-6e" x="196.582031"/>
     <use xlink:href="#DejaVuSans-6b" x="259.960938"/>
     <use xlink:href="#DejaVuSans-46" x="317.871094"/>
     <use xlink:href="#DejaVuSans-75" x="369.890625"/>
     <use xlink:href="#DejaVuSans-6e" x="433.269531"/>
     <use xlink:href="#DejaVuSans-63" x="496.648438"/>
    </g>
   </g>
   <g id="line2d_29">
    <path d="M 89.093625 76.488187 
L 102.293625 76.488187 
L 115.493625 76.488187 
" style="fill: none; stroke: #55a868; stroke-width: 1.5; stroke-linecap: round"/>
   </g>
   <g id="text_21">
    <!-- SLAM -->
    <g style="fill: #262626" transform="translate(126.053625 81.108187) scale(0.132 -0.132)">
     <defs>
      <path id="DejaVuSans-41" d="M 2188 4044 
L 1331 1722 
L 3047 1722 
L 2188 4044 
z
M 1831 4666 
L 2547 4666 
L 4325 0 
L 3669 0 
L 3244 1197 
L 1141 1197 
L 716 0 
L 50 0 
L 1831 4666 
z
" transform="scale(0.015625)"/>
      <path id="DejaVuSans-4d" d="M 628 4666 
L 1569 4666 
L 2759 1491 
L 3956 4666 
L 4897 4666 
L 4897 0 
L 4281 0 
L 4281 4097 
L 3078 897 
L 2444 897 
L 1241 4097 
L 1241 0 
L 628 0 
L 628 4666 
z
" transform="scale(0.015625)"/>
     </defs>
     <use xlink:href="#DejaVuSans-53"/>
     <use xlink:href="#DejaVuSans-4c" x="63.476562"/>
     <use xlink:href="#DejaVuSans-41" x="121.439453"/>
     <use xlink:href="#DejaVuSans-4d" x="189.847656"/>
    </g>
   </g>
   <g id="line2d_30">
    <path d="M 89.093625 95.863313 
L 102.293625 95.863313 
L 115.493625 95.863313 
" style="fill: none; stroke: #c44e52; stroke-width: 1.5; stroke-linecap: round"/>
   </g>
   <g id="text_22">
    <!-- StepConf -->
    <g style="fill: #262626" transform="translate(126.053625 100.483313) scale(0.132 -0.132)">
     <defs>
      <path id="DejaVuSans-74" d="M 1172 4494 
L 1172 3500 
L 2356 3500 
L 2356 3053 
L 1172 3053 
L 1172 1153 
Q 1172 725 1289 603 
Q 1406 481 1766 481 
L 2356 481 
L 2356 0 
L 1766 0 
Q 1100 0 847 248 
Q 594 497 594 1153 
L 594 3053 
L 172 3053 
L 172 3500 
L 594 3500 
L 594 4494 
L 1172 4494 
z
" transform="scale(0.015625)"/>
      <path id="DejaVuSans-66" d="M 2375 4863 
L 2375 4384 
L 1825 4384 
Q 1516 4384 1395 4259 
Q 1275 4134 1275 3809 
L 1275 3500 
L 2222 3500 
L 2222 3053 
L 1275 3053 
L 1275 0 
L 697 0 
L 697 3053 
L 147 3053 
L 147 3500 
L 697 3500 
L 697 3744 
Q 697 4328 969 4595 
Q 1241 4863 1831 4863 
L 2375 4863 
z
" transform="scale(0.015625)"/>
     </defs>
     <use xlink:href="#DejaVuSans-53"/>
     <use xlink:href="#DejaVuSans-74" x="63.476562"/>
     <use xlink:href="#DejaVuSans-65" x="102.685547"/>
     <use xlink:href="#DejaVuSans-70" x="164.208984"/>
     <use xlink:href="#DejaVuSans-43" x="227.685547"/>
     <use xlink:href="#DejaVuSans-6f" x="297.509766"/>
     <use xlink:href="#DejaVuSans-6e" x="358.691406"/>
     <use xlink:href="#DejaVuSans-66" x="422.070312"/>
    </g>
   </g>
   <g id="line2d_31">
    <path d="M 89.093625 115.238437 
L 102.293625 115.238437 
L 115.493625 115.238437 
" style="fill: none; stroke-dasharray: 4.5,4.5; stroke-dashoffset: 0; stroke: #000000; stroke-width: 1.5"/>
   </g>
   <g id="text_23">
    <!-- SLO -->
    <g style="fill: #262626" transform="translate(126.053625 119.858437) scale(0.132 -0.132)">
     <use xlink:href="#DejaVuSans-53"/>
     <use xlink:href="#DejaVuSans-4c" x="63.476562"/>
     <use xlink:href="#DejaVuSans-4f" x="115.564453"/>
    </g>
   </g>
  </g>
 </g>
 <defs>
  <clipPath id="p6003f42ee1">
   <rect x="72.425625" y="7.2" width="444.798477" height="216.756"/>
  </clipPath>
 </defs>
</svg>
