<?xml version="1.0" encoding="utf-8" standalone="no"?>
<!DOCTYPE svg PUBLIC "-//W3C//DTD SVG 1.1//EN"
  "http://www.w3.org/Graphics/SVG/1.1/DTD/svg11.dtd">
<svg xmlns:xlink="http://www.w3.org/1999/xlink" width="541.332904pt" height="271.474765pt" viewBox="0 0 541.332904 271.474765" xmlns="http://www.w3.org/2000/svg" version="1.1">
 <metadata>
  <rdf:RDF xmlns:dc="http://purl.org/dc/elements/1.1/" xmlns:cc="http://creativecommons.org/ns#" xmlns:rdf="http://www.w3.org/1999/02/22-rdf-syntax-ns#">
   <cc:Work>
    <dc:type rdf:resource="http://purl.org/dc/dcmitype/StillImage"/>
    <dc:date>2024-11-16T19:55:40.441755</dc:date>
    <dc:format>image/svg+xml</dc:format>
    <dc:creator>
     <cc:Agent>
      <dc:title>Matplotlib v3.9.2, https://matplotlib.org/</dc:title>
     </cc:Agent>
    </dc:creator>
   </cc:Work>
  </rdf:RDF>
 </metadata>
 <defs>
  <style type="text/css">*{stroke-linejoin: round; stroke-linecap: butt}</style>
 </defs>
 <g id="figure_1">
  <g id="patch_1">
   <path d="M 0 271.474765 
L 541.332904 271.474765 
L 541.332904 0 
L 0 0 
z
" style="fill: #ffffff"/>
  </g>
  <g id="axes_1">
   <g id="patch_2">
    <path d="M 72.425625 224.06314 
L 515.238341 224.06314 
L 515.238341 10.422776 
L 72.425625 10.422776 
z
" style="fill: #eaeaf2"/>
   </g>
   <g id="matplotlib.axis_1">
    <g id="xtick_1">
     <g id="line2d_1">
      <path d="M 72.425625 224.06314 
L 72.425625 10.422776 
" clip-path="url(#pd89d493b7f)" style="fill: none; stroke: #ffffff; stroke-linecap: round"/>
     </g>
     <g id="text_1">
      <!-- 2,379 -->
      <g style="fill: #262626" transform="translate(53.531063 243.593078) scale(0.132 -0.132)">
       <defs>
        <path id="DejaVuSans-32" d="M 1228 531 
L 3431 531 
L 3431 0 
L 469 0 
L 469 531 
Q 828 903 1448 1529 
Q 2069 2156 2228 2338 
Q 2531 2678 2651 2914 
Q 2772 3150 2772 3378 
Q 2772 3750 2511 3984 
Q 2250 4219 1831 4219 
Q 1534 4219 1204 4116 
Q 875 4013 500 3803 
L 500 4441 
Q 881 4594 1212 4672 
Q 1544 4750 1819 4750 
Q 2544 4750 2975 4387 
Q 3406 4025 3406 3419 
Q 3406 3131 3298 2873 
Q 3191 2616 2906 2266 
Q 2828 2175 2409 1742 
Q 1991 1309 1228 531 
z
" transform="scale(0.015625)"/>
        <path id="DejaVuSans-2c" d="M 750 794 
L 1409 794 
L 1409 256 
L 897 -744 
L 494 -744 
L 750 256 
L 750 794 
z
" transform="scale(0.015625)"/>
        <path id="DejaVuSans-33" d="M 2597 2516 
Q 3050 2419 3304 2112 
Q 3559 1806 3559 1356 
Q 3559 666 3084 287 
Q 2609 -91 1734 -91 
Q 1441 -91 1130 -33 
Q 819 25 488 141 
L 488 750 
Q 750 597 1062 519 
Q 1375 441 1716 441 
Q 2309 441 2620 675 
Q 2931 909 2931 1356 
Q 2931 1769 2642 2001 
Q 2353 2234 1838 2234 
L 1294 2234 
L 1294 2753 
L 1863 2753 
Q 2328 2753 2575 2939 
Q 2822 3125 2822 3475 
Q 2822 3834 2567 4026 
Q 2313 4219 1838 4219 
Q 1578 4219 1281 4162 
Q 984 4106 628 3988 
L 628 4550 
Q 988 4650 1302 4700 
Q 1616 4750 1894 4750 
Q 2613 4750 3031 4423 
Q 3450 4097 3450 3541 
Q 3450 3153 3228 2886 
Q 3006 2619 2597 2516 
z
" transform="scale(0.015625)"/>
        <path id="DejaVuSans-37" d="M 525 4666 
L 3525 4666 
L 3525 4397 
L 1831 0 
L 1172 0 
L 2766 4134 
L 525 4134 
L 525 4666 
z
" transform="scale(0.015625)"/>
        <path id="DejaVuSans-39" d="M 703 97 
L 703 672 
Q 941 559 1184 500 
Q 1428 441 1663 441 
Q 2288 441 2617 861 
Q 2947 1281 2994 2138 
Q 2813 1869 2534 1725 
Q 2256 1581 1919 1581 
Q 1219 1581 811 2004 
Q 403 2428 403 3163 
Q 403 3881 828 4315 
Q 1253 4750 1959 4750 
Q 2769 4750 3195 4129 
Q 3622 3509 3622 2328 
Q 3622 1225 3098 567 
Q 2575 -91 1691 -91 
Q 1453 -91 1209 -44 
Q 966 3 703 97 
z
M 1959 2075 
Q 2384 2075 2632 2365 
Q 2881 2656 2881 3163 
Q 2881 3666 2632 3958 
Q 2384 4250 1959 4250 
Q 1534 4250 1286 3958 
Q 1038 3666 1038 3163 
Q 1038 2656 1286 2365 
Q 1534 2075 1959 2075 
z
" transform="scale(0.015625)"/>
       </defs>
       <use xlink:href="#DejaVuSans-32"/>
       <use xlink:href="#DejaVuSans-2c" x="63.623047"/>
       <use xlink:href="#DejaVuSans-33" x="95.410156"/>
       <use xlink:href="#DejaVuSans-37" x="159.033203"/>
       <use xlink:href="#DejaVuSans-39" x="222.65625"/>
      </g>
     </g>
    </g>
    <g id="xtick_2">
     <g id="line2d_2">
      <path d="M 127.777215 224.06314 
L 127.777215 10.422776 
" clip-path="url(#pd89d493b7f)" style="fill: none; stroke: #ffffff; stroke-linecap: round"/>
     </g>
     <g id="text_2">
      <!-- 2,699 -->
      <g style="fill: #262626" transform="translate(108.882652 243.593078) scale(0.132 -0.132)">
       <defs>
        <path id="DejaVuSans-36" d="M 2113 2584 
Q 1688 2584 1439 2293 
Q 1191 2003 1191 1497 
Q 1191 994 1439 701 
Q 1688 409 2113 409 
Q 2538 409 2786 701 
Q 3034 994 3034 1497 
Q 3034 2003 2786 2293 
Q 2538 2584 2113 2584 
z
M 3366 4563 
L 3366 3988 
Q 3128 4100 2886 4159 
Q 2644 4219 2406 4219 
Q 1781 4219 1451 3797 
Q 1122 3375 1075 2522 
Q 1259 2794 1537 2939 
Q 1816 3084 2150 3084 
Q 2853 3084 3261 2657 
Q 3669 2231 3669 1497 
Q 3669 778 3244 343 
Q 2819 -91 2113 -91 
Q 1303 -91 875 529 
Q 447 1150 447 2328 
Q 447 3434 972 4092 
Q 1497 4750 2381 4750 
Q 2619 4750 2861 4703 
Q 3103 4656 3366 4563 
z
" transform="scale(0.015625)"/>
       </defs>
       <use xlink:href="#DejaVuSans-32"/>
       <use xlink:href="#DejaVuSans-2c" x="63.623047"/>
       <use xlink:href="#DejaVuSans-36" x="95.410156"/>
       <use xlink:href="#DejaVuSans-39" x="159.033203"/>
       <use xlink:href="#DejaVuSans-39" x="222.65625"/>
      </g>
     </g>
    </g>
    <g id="xtick_3">
     <g id="line2d_3">
      <path d="M 183.128804 224.06314 
L 183.128804 10.422776 
" clip-path="url(#pd89d493b7f)" style="fill: none; stroke: #ffffff; stroke-linecap: round"/>
     </g>
     <g id="text_3">
      <!-- 3,019 -->
      <g style="fill: #262626" transform="translate(164.234242 243.593078) scale(0.132 -0.132)">
       <defs>
        <path id="DejaVuSans-30" d="M 2034 4250 
Q 1547 4250 1301 3770 
Q 1056 3291 1056 2328 
Q 1056 1369 1301 889 
Q 1547 409 2034 409 
Q 2525 409 2770 889 
Q 3016 1369 3016 2328 
Q 3016 3291 2770 3770 
Q 2525 4250 2034 4250 
z
M 2034 4750 
Q 2819 4750 3233 4129 
Q 3647 3509 3647 2328 
Q 3647 1150 3233 529 
Q 2819 -91 2034 -91 
Q 1250 -91 836 529 
Q 422 1150 422 2328 
Q 422 3509 836 4129 
Q 1250 4750 2034 4750 
z
" transform="scale(0.015625)"/>
        <path id="DejaVuSans-31" d="M 794 531 
L 1825 531 
L 1825 4091 
L 703 3866 
L 703 4441 
L 1819 4666 
L 2450 4666 
L 2450 531 
L 3481 531 
L 3481 0 
L 794 0 
L 794 531 
z
" transform="scale(0.015625)"/>
       </defs>
       <use xlink:href="#DejaVuSans-33"/>
       <use xlink:href="#DejaVuSans-2c" x="63.623047"/>
       <use xlink:href="#DejaVuSans-30" x="95.410156"/>
       <use xlink:href="#DejaVuSans-31" x="159.033203"/>
       <use xlink:href="#DejaVuSans-39" x="222.65625"/>
      </g>
     </g>
    </g>
    <g id="xtick_4">
     <g id="line2d_4">
      <path d="M 238.480394 224.06314 
L 238.480394 10.422776 
" clip-path="url(#pd89d493b7f)" style="fill: none; stroke: #ffffff; stroke-linecap: round"/>
     </g>
     <g id="text_4">
      <!-- 3,339 -->
      <g style="fill: #262626" transform="translate(219.585831 243.593078) scale(0.132 -0.132)">
       <use xlink:href="#DejaVuSans-33"/>
       <use xlink:href="#DejaVuSans-2c" x="63.623047"/>
       <use xlink:href="#DejaVuSans-33" x="95.410156"/>
       <use xlink:href="#DejaVuSans-33" x="159.033203"/>
       <use xlink:href="#DejaVuSans-39" x="222.65625"/>
      </g>
     </g>
    </g>
    <g id="xtick_5">
     <g id="line2d_5">
      <path d="M 293.831983 224.06314 
L 293.831983 10.422776 
" clip-path="url(#pd89d493b7f)" style="fill: none; stroke: #ffffff; stroke-linecap: round"/>
     </g>
     <g id="text_5">
      <!-- 3,659 -->
      <g style="fill: #262626" transform="translate(274.937421 243.593078) scale(0.132 -0.132)">
       <defs>
        <path id="DejaVuSans-35" d="M 691 4666 
L 3169 4666 
L 3169 4134 
L 1269 4134 
L 1269 2991 
Q 1406 3038 1543 3061 
Q 1681 3084 1819 3084 
Q 2600 3084 3056 2656 
Q 3513 2228 3513 1497 
Q 3513 744 3044 326 
Q 2575 -91 1722 -91 
Q 1428 -91 1123 -41 
Q 819 9 494 109 
L 494 744 
Q 775 591 1075 516 
Q 1375 441 1709 441 
Q 2250 441 2565 725 
Q 2881 1009 2881 1497 
Q 2881 1984 2565 2268 
Q 2250 2553 1709 2553 
Q 1456 2553 1204 2497 
Q 953 2441 691 2322 
L 691 4666 
z
" transform="scale(0.015625)"/>
       </defs>
       <use xlink:href="#DejaVuSans-33"/>
       <use xlink:href="#DejaVuSans-2c" x="63.623047"/>
       <use xlink:href="#DejaVuSans-36" x="95.410156"/>
       <use xlink:href="#DejaVuSans-35" x="159.033203"/>
       <use xlink:href="#DejaVuSans-39" x="222.65625"/>
      </g>
     </g>
    </g>
    <g id="xtick_6">
     <g id="line2d_6">
      <path d="M 349.183573 224.06314 
L 349.183573 10.422776 
" clip-path="url(#pd89d493b7f)" style="fill: none; stroke: #ffffff; stroke-linecap: round"/>
     </g>
     <g id="text_6">
      <!-- 3,980 -->
      <g style="fill: #262626" transform="translate(330.28901 243.593078) scale(0.132 -0.132)">
       <defs>
        <path id="DejaVuSans-38" d="M 2034 2216 
Q 1584 2216 1326 1975 
Q 1069 1734 1069 1313 
Q 1069 891 1326 650 
Q 1584 409 2034 409 
Q 2484 409 2743 651 
Q 3003 894 3003 1313 
Q 3003 1734 2745 1975 
Q 2488 2216 2034 2216 
z
M 1403 2484 
Q 997 2584 770 2862 
Q 544 3141 544 3541 
Q 544 4100 942 4425 
Q 1341 4750 2034 4750 
Q 2731 4750 3128 4425 
Q 3525 4100 3525 3541 
Q 3525 3141 3298 2862 
Q 3072 2584 2669 2484 
Q 3125 2378 3379 2068 
Q 3634 1759 3634 1313 
Q 3634 634 3220 271 
Q 2806 -91 2034 -91 
Q 1263 -91 848 271 
Q 434 634 434 1313 
Q 434 1759 690 2068 
Q 947 2378 1403 2484 
z
M 1172 3481 
Q 1172 3119 1398 2916 
Q 1625 2713 2034 2713 
Q 2441 2713 2670 2916 
Q 2900 3119 2900 3481 
Q 2900 3844 2670 4047 
Q 2441 4250 2034 4250 
Q 1625 4250 1398 4047 
Q 1172 3844 1172 3481 
z
" transform="scale(0.015625)"/>
       </defs>
       <use xlink:href="#DejaVuSans-33"/>
       <use xlink:href="#DejaVuSans-2c" x="63.623047"/>
       <use xlink:href="#DejaVuSans-39" x="95.410156"/>
       <use xlink:href="#DejaVuSans-38" x="159.033203"/>
       <use xlink:href="#DejaVuSans-30" x="222.65625"/>
      </g>
     </g>
    </g>
    <g id="xtick_7">
     <g id="line2d_7">
      <path d="M 404.535162 224.06314 
L 404.535162 10.422776 
" clip-path="url(#pd89d493b7f)" style="fill: none; stroke: #ffffff; stroke-linecap: round"/>
     </g>
     <g id="text_7">
      <!-- 4,300 -->
      <g style="fill: #262626" transform="translate(385.6406 243.593078) scale(0.132 -0.132)">
       <defs>
        <path id="DejaVuSans-34" d="M 2419 4116 
L 825 1625 
L 2419 1625 
L 2419 4116 
z
M 2253 4666 
L 3047 4666 
L 3047 1625 
L 3713 1625 
L 3713 1100 
L 3047 1100 
L 3047 0 
L 2419 0 
L 2419 1100 
L 313 1100 
L 313 1709 
L 2253 4666 
z
" transform="scale(0.015625)"/>
       </defs>
       <use xlink:href="#DejaVuSans-34"/>
       <use xlink:href="#DejaVuSans-2c" x="63.623047"/>
       <use xlink:href="#DejaVuSans-33" x="95.410156"/>
       <use xlink:href="#DejaVuSans-30" x="159.033203"/>
       <use xlink:href="#DejaVuSans-30" x="222.65625"/>
      </g>
     </g>
    </g>
    <g id="xtick_8">
     <g id="line2d_8">
      <path d="M 459.886752 224.06314 
L 459.886752 10.422776 
" clip-path="url(#pd89d493b7f)" style="fill: none; stroke: #ffffff; stroke-linecap: round"/>
     </g>
     <g id="text_8">
      <!-- 4,620 -->
      <g style="fill: #262626" transform="translate(440.992189 243.593078) scale(0.132 -0.132)">
       <use xlink:href="#DejaVuSans-34"/>
       <use xlink:href="#DejaVuSans-2c" x="63.623047"/>
       <use xlink:href="#DejaVuSans-36" x="95.410156"/>
       <use xlink:href="#DejaVuSans-32" x="159.033203"/>
       <use xlink:href="#DejaVuSans-30" x="222.65625"/>
      </g>
     </g>
    </g>
    <g id="xtick_9">
     <g id="line2d_9">
      <path d="M 515.238341 224.06314 
L 515.238341 10.422776 
" clip-path="url(#pd89d493b7f)" style="fill: none; stroke: #ffffff; stroke-linecap: round"/>
     </g>
     <g id="text_9">
      <!-- 4,940 -->
      <g style="fill: #262626" transform="translate(496.343779 243.593078) scale(0.132 -0.132)">
       <use xlink:href="#DejaVuSans-34"/>
       <use xlink:href="#DejaVuSans-2c" x="63.623047"/>
       <use xlink:href="#DejaVuSans-39" x="95.410156"/>
       <use xlink:href="#DejaVuSans-34" x="159.033203"/>
       <use xlink:href="#DejaVuSans-30" x="222.65625"/>
      </g>
     </g>
    </g>
    <g id="text_10">
     <!-- SLO (s) -->
     <g style="fill: #262626" transform="translate(268.185358 261.280015) scale(0.144 -0.144)">
      <defs>
       <path id="DejaVuSans-53" d="M 3425 4513 
L 3425 3897 
Q 3066 4069 2747 4153 
Q 2428 4238 2131 4238 
Q 1616 4238 1336 4038 
Q 1056 3838 1056 3469 
Q 1056 3159 1242 3001 
Q 1428 2844 1947 2747 
L 2328 2669 
Q 3034 2534 3370 2195 
Q 3706 1856 3706 1288 
Q 3706 609 3251 259 
Q 2797 -91 1919 -91 
Q 1588 -91 1214 -16 
Q 841 59 441 206 
L 441 856 
Q 825 641 1194 531 
Q 1563 422 1919 422 
Q 2459 422 2753 634 
Q 3047 847 3047 1241 
Q 3047 1584 2836 1778 
Q 2625 1972 2144 2069 
L 1759 2144 
Q 1053 2284 737 2584 
Q 422 2884 422 3419 
Q 422 4038 858 4394 
Q 1294 4750 2059 4750 
Q 2388 4750 2728 4690 
Q 3069 4631 3425 4513 
z
" transform="scale(0.015625)"/>
       <path id="DejaVuSans-4c" d="M 628 4666 
L 1259 4666 
L 1259 531 
L 3531 531 
L 3531 0 
L 628 0 
L 628 4666 
z
" transform="scale(0.015625)"/>
       <path id="DejaVuSans-4f" d="M 2522 4238 
Q 1834 4238 1429 3725 
Q 1025 3213 1025 2328 
Q 1025 1447 1429 934 
Q 1834 422 2522 422 
Q 3209 422 3611 934 
Q 4013 1447 4013 2328 
Q 4013 3213 3611 3725 
Q 3209 4238 2522 4238 
z
M 2522 4750 
Q 3503 4750 4090 4092 
Q 4678 3434 4678 2328 
Q 4678 1225 4090 567 
Q 3503 -91 2522 -91 
Q 1538 -91 948 565 
Q 359 1222 359 2328 
Q 359 3434 948 4092 
Q 1538 4750 2522 4750 
z
" transform="scale(0.015625)"/>
       <path id="DejaVuSans-20" transform="scale(0.015625)"/>
       <path id="DejaVuSans-28" d="M 1984 4856 
Q 1566 4138 1362 3434 
Q 1159 2731 1159 2009 
Q 1159 1288 1364 580 
Q 1569 -128 1984 -844 
L 1484 -844 
Q 1016 -109 783 600 
Q 550 1309 550 2009 
Q 550 2706 781 3412 
Q 1013 4119 1484 4856 
L 1984 4856 
z
" transform="scale(0.015625)"/>
       <path id="DejaVuSans-73" d="M 2834 3397 
L 2834 2853 
Q 2591 2978 2328 3040 
Q 2066 3103 1784 3103 
Q 1356 3103 1142 2972 
Q 928 2841 928 2578 
Q 928 2378 1081 2264 
Q 1234 2150 1697 2047 
L 1894 2003 
Q 2506 1872 2764 1633 
Q 3022 1394 3022 966 
Q 3022 478 2636 193 
Q 2250 -91 1575 -91 
Q 1294 -91 989 -36 
Q 684 19 347 128 
L 347 722 
Q 666 556 975 473 
Q 1284 391 1588 391 
Q 1994 391 2212 530 
Q 2431 669 2431 922 
Q 2431 1156 2273 1281 
Q 2116 1406 1581 1522 
L 1381 1569 
Q 847 1681 609 1914 
Q 372 2147 372 2553 
Q 372 3047 722 3315 
Q 1072 3584 1716 3584 
Q 2034 3584 2315 3537 
Q 2597 3491 2834 3397 
z
" transform="scale(0.015625)"/>
       <path id="DejaVuSans-29" d="M 513 4856 
L 1013 4856 
Q 1481 4119 1714 3412 
Q 1947 2706 1947 2009 
Q 1947 1309 1714 600 
Q 1481 -109 1013 -844 
L 513 -844 
Q 928 -128 1133 580 
Q 1338 1288 1338 2009 
Q 1338 2731 1133 3434 
Q 928 4138 513 4856 
z
" transform="scale(0.015625)"/>
      </defs>
      <use xlink:href="#DejaVuSans-53"/>
      <use xlink:href="#DejaVuSans-4c" x="63.476562"/>
      <use xlink:href="#DejaVuSans-4f" x="115.564453"/>
      <use xlink:href="#DejaVuSans-20" x="194.275391"/>
      <use xlink:href="#DejaVuSans-28" x="226.0625"/>
      <use xlink:href="#DejaVuSans-73" x="265.076172"/>
      <use xlink:href="#DejaVuSans-29" x="317.175781"/>
     </g>
    </g>
   </g>
   <g id="matplotlib.axis_2">
    <g id="ytick_1">
     <g id="line2d_10">
      <path d="M 72.425625 204.69353 
L 515.238341 204.69353 
" clip-path="url(#pd89d493b7f)" style="fill: none; stroke: #ffffff; stroke-linecap: round"/>
     </g>
     <g id="text_11">
      <!-- 2,500 -->
      <g style="fill: #262626" transform="translate(25.1365 209.708499) scale(0.132 -0.132)">
       <use xlink:href="#DejaVuSans-32"/>
       <use xlink:href="#DejaVuSans-2c" x="63.623047"/>
       <use xlink:href="#DejaVuSans-35" x="95.410156"/>
       <use xlink:href="#DejaVuSans-30" x="159.033203"/>
       <use xlink:href="#DejaVuSans-30" x="222.65625"/>
      </g>
     </g>
    </g>
    <g id="ytick_2">
     <g id="line2d_11">
      <path d="M 72.425625 177.196593 
L 515.238341 177.196593 
" clip-path="url(#pd89d493b7f)" style="fill: none; stroke: #ffffff; stroke-linecap: round"/>
     </g>
     <g id="text_12">
      <!-- 3,000 -->
      <g style="fill: #262626" transform="translate(25.1365 182.211562) scale(0.132 -0.132)">
       <use xlink:href="#DejaVuSans-33"/>
       <use xlink:href="#DejaVuSans-2c" x="63.623047"/>
       <use xlink:href="#DejaVuSans-30" x="95.410156"/>
       <use xlink:href="#DejaVuSans-30" x="159.033203"/>
       <use xlink:href="#DejaVuSans-30" x="222.65625"/>
      </g>
     </g>
    </g>
    <g id="ytick_3">
     <g id="line2d_12">
      <path d="M 72.425625 149.699656 
L 515.238341 149.699656 
" clip-path="url(#pd89d493b7f)" style="fill: none; stroke: #ffffff; stroke-linecap: round"/>
     </g>
     <g id="text_13">
      <!-- 3,500 -->
      <g style="fill: #262626" transform="translate(25.1365 154.714624) scale(0.132 -0.132)">
       <use xlink:href="#DejaVuSans-33"/>
       <use xlink:href="#DejaVuSans-2c" x="63.623047"/>
       <use xlink:href="#DejaVuSans-35" x="95.410156"/>
       <use xlink:href="#DejaVuSans-30" x="159.033203"/>
       <use xlink:href="#DejaVuSans-30" x="222.65625"/>
      </g>
     </g>
    </g>
    <g id="ytick_4">
     <g id="line2d_13">
      <path d="M 72.425625 122.202718 
L 515.238341 122.202718 
" clip-path="url(#pd89d493b7f)" style="fill: none; stroke: #ffffff; stroke-linecap: round"/>
     </g>
     <g id="text_14">
      <!-- 4,000 -->
      <g style="fill: #262626" transform="translate(25.1365 127.217687) scale(0.132 -0.132)">
       <use xlink:href="#DejaVuSans-34"/>
       <use xlink:href="#DejaVuSans-2c" x="63.623047"/>
       <use xlink:href="#DejaVuSans-30" x="95.410156"/>
       <use xlink:href="#DejaVuSans-30" x="159.033203"/>
       <use xlink:href="#DejaVuSans-30" x="222.65625"/>
      </g>
     </g>
    </g>
    <g id="ytick_5">
     <g id="line2d_14">
      <path d="M 72.425625 94.705781 
L 515.238341 94.705781 
" clip-path="url(#pd89d493b7f)" style="fill: none; stroke: #ffffff; stroke-linecap: round"/>
     </g>
     <g id="text_15">
      <!-- 4,500 -->
      <g style="fill: #262626" transform="translate(25.1365 99.72075) scale(0.132 -0.132)">
       <use xlink:href="#DejaVuSans-34"/>
       <use xlink:href="#DejaVuSans-2c" x="63.623047"/>
       <use xlink:href="#DejaVuSans-35" x="95.410156"/>
       <use xlink:href="#DejaVuSans-30" x="159.033203"/>
       <use xlink:href="#DejaVuSans-30" x="222.65625"/>
      </g>
     </g>
    </g>
    <g id="ytick_6">
     <g id="line2d_15">
      <path d="M 72.425625 67.208843 
L 515.238341 67.208843 
" clip-path="url(#pd89d493b7f)" style="fill: none; stroke: #ffffff; stroke-linecap: round"/>
     </g>
     <g id="text_16">
      <!-- 5,000 -->
      <g style="fill: #262626" transform="translate(25.1365 72.223812) scale(0.132 -0.132)">
       <use xlink:href="#DejaVuSans-35"/>
       <use xlink:href="#DejaVuSans-2c" x="63.623047"/>
       <use xlink:href="#DejaVuSans-30" x="95.410156"/>
       <use xlink:href="#DejaVuSans-30" x="159.033203"/>
       <use xlink:href="#DejaVuSans-30" x="222.65625"/>
      </g>
     </g>
    </g>
    <g id="ytick_7">
     <g id="line2d_16">
      <path d="M 72.425625 39.711906 
L 515.238341 39.711906 
" clip-path="url(#pd89d493b7f)" style="fill: none; stroke: #ffffff; stroke-linecap: round"/>
     </g>
     <g id="text_17">
      <!-- 5,500 -->
      <g style="fill: #262626" transform="translate(25.1365 44.726875) scale(0.132 -0.132)">
       <use xlink:href="#DejaVuSans-35"/>
       <use xlink:href="#DejaVuSans-2c" x="63.623047"/>
       <use xlink:href="#DejaVuSans-35" x="95.410156"/>
       <use xlink:href="#DejaVuSans-30" x="159.033203"/>
       <use xlink:href="#DejaVuSans-30" x="222.65625"/>
      </g>
     </g>
    </g>
    <g id="ytick_8">
     <g id="line2d_17">
      <path d="M 72.425625 12.214969 
L 515.238341 12.214969 
" clip-path="url(#pd89d493b7f)" style="fill: none; stroke: #ffffff; stroke-linecap: round"/>
     </g>
     <g id="text_18">
      <!-- 6,000 -->
      <g style="fill: #262626" transform="translate(25.1365 17.229937) scale(0.132 -0.132)">
       <use xlink:href="#DejaVuSans-36"/>
       <use xlink:href="#DejaVuSans-2c" x="63.623047"/>
       <use xlink:href="#DejaVuSans-30" x="95.410156"/>
       <use xlink:href="#DejaVuSans-30" x="159.033203"/>
       <use xlink:href="#DejaVuSans-30" x="222.65625"/>
      </g>
     </g>
    </g>
    <g id="text_19">
     <!-- Response Time (s) -->
     <g style="fill: #262626" transform="translate(18.14175 183.385083) rotate(-90) scale(0.144 -0.144)">
      <defs>
       <path id="DejaVuSans-52" d="M 2841 2188 
Q 3044 2119 3236 1894 
Q 3428 1669 3622 1275 
L 4263 0 
L 3584 0 
L 2988 1197 
Q 2756 1666 2539 1819 
Q 2322 1972 1947 1972 
L 1259 1972 
L 1259 0 
L 628 0 
L 628 4666 
L 2053 4666 
Q 2853 4666 3247 4331 
Q 3641 3997 3641 3322 
Q 3641 2881 3436 2590 
Q 3231 2300 2841 2188 
z
M 1259 4147 
L 1259 2491 
L 2053 2491 
Q 2509 2491 2742 2702 
Q 2975 2913 2975 3322 
Q 2975 3731 2742 3939 
Q 2509 4147 2053 4147 
L 1259 4147 
z
" transform="scale(0.015625)"/>
       <path id="DejaVuSans-65" d="M 3597 1894 
L 3597 1613 
L 953 1613 
Q 991 1019 1311 708 
Q 1631 397 2203 397 
Q 2534 397 2845 478 
Q 3156 559 3463 722 
L 3463 178 
Q 3153 47 2828 -22 
Q 2503 -91 2169 -91 
Q 1331 -91 842 396 
Q 353 884 353 1716 
Q 353 2575 817 3079 
Q 1281 3584 2069 3584 
Q 2775 3584 3186 3129 
Q 3597 2675 3597 1894 
z
M 3022 2063 
Q 3016 2534 2758 2815 
Q 2500 3097 2075 3097 
Q 1594 3097 1305 2825 
Q 1016 2553 972 2059 
L 3022 2063 
z
" transform="scale(0.015625)"/>
       <path id="DejaVuSans-70" d="M 1159 525 
L 1159 -1331 
L 581 -1331 
L 581 3500 
L 1159 3500 
L 1159 2969 
Q 1341 3281 1617 3432 
Q 1894 3584 2278 3584 
Q 2916 3584 3314 3078 
Q 3713 2572 3713 1747 
Q 3713 922 3314 415 
Q 2916 -91 2278 -91 
Q 1894 -91 1617 61 
Q 1341 213 1159 525 
z
M 3116 1747 
Q 3116 2381 2855 2742 
Q 2594 3103 2138 3103 
Q 1681 3103 1420 2742 
Q 1159 2381 1159 1747 
Q 1159 1113 1420 752 
Q 1681 391 2138 391 
Q 2594 391 2855 752 
Q 3116 1113 3116 1747 
z
" transform="scale(0.015625)"/>
       <path id="DejaVuSans-6f" d="M 1959 3097 
Q 1497 3097 1228 2736 
Q 959 2375 959 1747 
Q 959 1119 1226 758 
Q 1494 397 1959 397 
Q 2419 397 2687 759 
Q 2956 1122 2956 1747 
Q 2956 2369 2687 2733 
Q 2419 3097 1959 3097 
z
M 1959 3584 
Q 2709 3584 3137 3096 
Q 3566 2609 3566 1747 
Q 3566 888 3137 398 
Q 2709 -91 1959 -91 
Q 1206 -91 779 398 
Q 353 888 353 1747 
Q 353 2609 779 3096 
Q 1206 3584 1959 3584 
z
" transform="scale(0.015625)"/>
       <path id="DejaVuSans-6e" d="M 3513 2113 
L 3513 0 
L 2938 0 
L 2938 2094 
Q 2938 2591 2744 2837 
Q 2550 3084 2163 3084 
Q 1697 3084 1428 2787 
Q 1159 2491 1159 1978 
L 1159 0 
L 581 0 
L 581 3500 
L 1159 3500 
L 1159 2956 
Q 1366 3272 1645 3428 
Q 1925 3584 2291 3584 
Q 2894 3584 3203 3211 
Q 3513 2838 3513 2113 
z
" transform="scale(0.015625)"/>
       <path id="DejaVuSans-54" d="M -19 4666 
L 3928 4666 
L 3928 4134 
L 2272 4134 
L 2272 0 
L 1638 0 
L 1638 4134 
L -19 4134 
L -19 4666 
z
" transform="scale(0.015625)"/>
       <path id="DejaVuSans-69" d="M 603 3500 
L 1178 3500 
L 1178 0 
L 603 0 
L 603 3500 
z
M 603 4863 
L 1178 4863 
L 1178 4134 
L 603 4134 
L 603 4863 
z
" transform="scale(0.015625)"/>
       <path id="DejaVuSans-6d" d="M 3328 2828 
Q 3544 3216 3844 3400 
Q 4144 3584 4550 3584 
Q 5097 3584 5394 3201 
Q 5691 2819 5691 2113 
L 5691 0 
L 5113 0 
L 5113 2094 
Q 5113 2597 4934 2840 
Q 4756 3084 4391 3084 
Q 3944 3084 3684 2787 
Q 3425 2491 3425 1978 
L 3425 0 
L 2847 0 
L 2847 2094 
Q 2847 2600 2669 2842 
Q 2491 3084 2119 3084 
Q 1678 3084 1418 2786 
Q 1159 2488 1159 1978 
L 1159 0 
L 581 0 
L 581 3500 
L 1159 3500 
L 1159 2956 
Q 1356 3278 1631 3431 
Q 1906 3584 2284 3584 
Q 2666 3584 2933 3390 
Q 3200 3197 3328 2828 
z
" transform="scale(0.015625)"/>
      </defs>
      <use xlink:href="#DejaVuSans-52"/>
      <use xlink:href="#DejaVuSans-65" x="64.982422"/>
      <use xlink:href="#DejaVuSans-73" x="126.505859"/>
      <use xlink:href="#DejaVuSans-70" x="178.605469"/>
      <use xlink:href="#DejaVuSans-6f" x="242.082031"/>
      <use xlink:href="#DejaVuSans-6e" x="303.263672"/>
      <use xlink:href="#DejaVuSans-73" x="366.642578"/>
      <use xlink:href="#DejaVuSans-65" x="418.742188"/>
      <use xlink:href="#DejaVuSans-20" x="480.265625"/>
      <use xlink:href="#DejaVuSans-54" x="512.052734"/>
      <use xlink:href="#DejaVuSans-69" x="570.011719"/>
      <use xlink:href="#DejaVuSans-6d" x="597.794922"/>
      <use xlink:href="#DejaVuSans-65" x="695.207031"/>
      <use xlink:href="#DejaVuSans-20" x="756.730469"/>
      <use xlink:href="#DejaVuSans-28" x="788.517578"/>
      <use xlink:href="#DejaVuSans-73" x="827.53125"/>
      <use xlink:href="#DejaVuSans-29" x="879.630859"/>
     </g>
    </g>
   </g>
   <g id="PolyCollection_1"/>
   <g id="PolyCollection_2"/>
   <g id="PolyCollection_3"/>
   <g id="PolyCollection_4"/>
   <g id="PolyCollection_5"/>
   <g id="line2d_18">
    <path d="M 72.425625 212.261072 
L 78.751521 212.260302 
L 85.077417 208.846833 
L 91.403313 208.846833 
L 97.729209 205.388543 
L 104.055105 201.975568 
L 110.381001 201.975568 
L 116.706897 198.518763 
L 123.032793 198.562593 
L 129.358688 195.105788 
L 135.684584 191.692813 
L 142.01048 191.692813 
L 148.336376 188.279838 
L 154.662272 188.279838 
L 160.988168 184.866864 
L 167.314064 181.453889 
L 173.63996 181.453889 
L 179.965856 179.186381 
L 186.291752 177.366359 
L 192.617648 175.353033 
L 198.943544 173.764095 
L 205.26944 173.764095 
L 211.595336 173.764095 
L 217.921232 173.764095 
L 224.247128 163.57461 
L 230.573024 162.659292 
L 236.89892 162.659292 
L 243.224815 162.659292 
L 249.550711 162.659292 
L 255.876607 153.385125 
L 262.202503 151.554489 
L 268.528399 151.554489 
L 274.854295 151.554489 
L 281.180191 151.554489 
L 287.506087 143.164128 
L 293.831983 141.086185 
L 300.157879 140.541801 
L 306.483775 140.541801 
L 312.809671 140.541801 
L 319.135567 133.101734 
L 325.461463 131.229523 
L 331.787359 129.529112 
L 338.113255 129.529112 
L 344.439151 129.529112 
L 350.765047 123.03934 
L 357.090942 120.891499 
L 363.416838 119.060808 
L 369.742734 118.516424 
L 376.06863 118.516424 
L 382.394526 112.98657 
L 388.720422 111.066349 
L 395.046318 109.044774 
L 401.372214 107.411621 
L 407.69811 107.411621 
L 414.024006 102.924175 
L 420.349902 100.845352 
L 426.675798 98.70675 
L 433.001694 96.943317 
L 439.32759 96.398932 
L 445.653486 92.871405 
L 451.979382 90.655867 
L 458.305278 88.8816 
L 464.631174 86.927282 
L 470.957069 85.294129 
L 477.282965 82.809011 
L 483.608861 80.799205 
L 489.934757 78.660603 
L 496.260653 76.886336 
L 502.586549 75.01011 
L 508.912445 72.756241 
L 515.238341 70.60972 
" clip-path="url(#pd89d493b7f)" style="fill: none; stroke: #dd8452; stroke-width: 1.5; stroke-linecap: round"/>
   </g>
   <g id="line2d_19">
    <path d="M 72.425625 214.352214 
L 78.751521 210.93924 
L 85.077417 207.490959 
L 91.403313 207.482435 
L 97.729209 204.06946 
L 104.055105 203.189888 
L 110.381001 202.298767 
L 116.706897 200.520375 
L 123.032793 197.06357 
L 129.358688 193.650595 
L 135.684584 192.609836 
L 142.01048 191.558958 
L 148.336376 188.145488 
L 154.662272 188.145488 
L 160.988168 184.732514 
L 167.314064 184.774859 
L 173.63996 181.318054 
L 179.965856 177.904804 
L 186.291752 177.904804 
L 192.617648 177.904804 
L 198.943544 177.904804 
L 205.26944 177.904804 
L 211.595336 167.164335 
L 217.921232 166.800001 
L 224.247128 166.800001 
L 230.573024 166.800001 
L 236.89892 166.800001 
L 243.224815 157.525834 
L 249.550711 155.695198 
L 255.876607 155.695198 
L 262.202503 155.695198 
L 268.528399 155.695198 
L 274.854295 147.304837 
L 281.180191 145.226894 
L 287.506087 144.682509 
L 293.831983 144.682509 
L 300.157879 144.682509 
L 306.483775 137.242443 
L 312.809671 135.005897 
L 319.135567 133.669821 
L 325.461463 133.669821 
L 331.787359 133.669821 
L 338.113255 127.180049 
L 344.439151 124.936574 
L 350.765047 123.157357 
L 357.090942 121.15426 
L 363.416838 118.876524 
L 369.742734 118.516424 
L 376.06863 118.516424 
L 382.394526 113.008457 
L 388.720422 111.066349 
L 395.046318 108.747697 
L 401.372214 107.411621 
L 407.69811 107.411621 
L 414.024006 102.946063 
L 420.349902 100.845352 
L 426.675798 98.70675 
L 433.001694 96.943317 
L 439.32759 96.398932 
L 445.653486 92.893293 
L 451.979382 90.655867 
L 458.305278 88.8816 
L 464.631174 86.927282 
L 470.957069 85.294129 
L 477.282965 82.830898 
L 483.608861 80.799205 
L 489.934757 78.660603 
L 496.260653 76.886336 
L 502.586549 74.825825 
L 508.912445 72.778128 
L 515.238341 70.74011 
" clip-path="url(#pd89d493b7f)" style="fill: none; stroke: #4c72b0; stroke-width: 1.5; stroke-linecap: round"/>
   </g>
   <g id="line2d_20">
    <path d="M 72.425625 188.7122 
L 78.751521 188.7122 
L 85.077417 185.260675 
L 91.403313 181.809149 
L 97.729209 178.337936 
L 104.055105 178.337936 
L 110.381001 174.88641 
L 116.706897 171.434885 
L 123.032793 167.983359 
L 129.358688 167.983359 
L 135.684584 164.512146 
L 142.01048 161.06062 
L 148.336376 161.06062 
L 154.662272 157.609095 
L 160.988168 154.157569 
L 167.314064 151.105354 
L 173.63996 151.105354 
L 179.965856 151.105354 
L 186.291752 151.105354 
L 192.617648 141.002374 
L 198.943544 141.002374 
L 205.26944 141.002374 
L 211.595336 141.002374 
L 217.921232 130.899395 
L 224.247128 130.899395 
L 230.573024 130.899395 
L 236.89892 130.899395 
L 243.224815 120.796415 
L 249.550711 120.796415 
L 255.876607 120.796415 
L 262.202503 120.796415 
L 268.528399 110.693435 
L 274.854295 110.693435 
L 281.180191 110.693435 
L 287.506087 110.693435 
L 293.831983 100.663872 
L 300.157879 100.663872 
L 306.483775 100.663872 
L 312.809671 100.663872 
L 319.135567 90.560892 
L 325.461463 90.560892 
L 331.787359 90.560892 
L 338.113255 90.560892 
L 344.439151 80.457913 
L 350.765047 80.457913 
L 357.090942 80.457913 
L 363.416838 80.457913 
L 369.742734 80.457913 
L 376.06863 70.42835 
L 382.394526 70.42835 
L 388.720422 70.42835 
L 395.046318 70.42835 
L 401.372214 60.32537 
L 407.69811 60.32537 
L 414.024006 60.32537 
L 420.349902 60.32537 
L 426.675798 50.295807 
L 433.001694 50.295807 
L 439.32759 50.295807 
L 445.653486 50.295807 
L 451.979382 40.266244 
L 458.305278 40.266244 
L 464.631174 40.266244 
L 470.957069 40.266244 
L 477.282965 30.163265 
L 483.608861 30.163265 
L 489.934757 30.163265 
L 496.260653 30.163265 
L 502.586549 20.133702 
L 508.912445 20.133702 
L 515.238341 20.133702 
" clip-path="url(#pd89d493b7f)" style="fill: none; stroke: #55a868; stroke-width: 1.5; stroke-linecap: round"/>
   </g>
   <g id="line2d_21">
    <path d="M 72.425625 210.383856 
L 78.751521 209.199948 
L 85.077417 207.629048 
L 91.403313 204.87666 
L 97.729209 203.151722 
L 104.055105 200.43398 
L 110.381001 198.439627 
L 116.706897 196.935214 
L 123.032793 194.265757 
L 129.358688 193.120949 
L 135.684584 191.501765 
L 142.01048 188.072347 
L 148.336376 186.354228 
L 154.662272 184.642929 
L 160.988168 173.585585 
L 167.314064 180.63041 
L 173.63996 178.708924 
L 179.965856 176.983987 
L 186.291752 175.263833 
L 192.617648 173.547749 
L 198.943544 170.125151 
L 205.26944 155.607373 
L 211.595336 165.838983 
L 217.921232 164.232612 
L 224.247128 162.220221 
L 230.573024 160.746055 
L 236.89892 159.029971 
L 243.224815 157.318672 
L 249.550711 155.607373 
L 255.876607 148.058748 
L 262.202503 150.532098 
L 268.528399 147.996715 
L 274.854295 146.849873 
L 281.180191 144.519013 
L 287.506087 142.800894 
L 293.831983 141.089595 
L 300.157879 133.54097 
L 306.483775 136.166543 
L 312.809671 135.190237 
L 319.135567 131.717318 
L 325.461463 130.001235 
L 331.787359 128.283116 
L 338.113255 126.571817 
L 344.439151 115.514473 
L 350.765047 122.32486 
L 357.090942 120.622139 
L 363.416838 118.959124 
L 369.742734 115.565947 
L 376.06863 113.813623 
L 382.394526 112.102323 
L 388.720422 97.584545 
L 395.046318 107.691374 
L 401.372214 106.209784 
L 407.69811 104.441346 
L 414.024006 102.725263 
L 420.349902 101.007144 
L 426.675798 97.584545 
L 433.001694 83.066767 
L 439.32759 93.298378 
L 445.653486 91.692007 
L 451.979382 89.7279 
L 458.305278 88.253734 
L 464.631174 86.537651 
L 470.957069 84.826351 
L 477.282965 83.115052 
L 483.608861 75.566428 
L 489.934757 78.039777 
L 496.260653 75.462929 
L 502.586549 74.357552 
L 508.912445 72.026692 
L 515.238341 70.308573 
" clip-path="url(#pd89d493b7f)" style="fill: none; stroke: #c44e52; stroke-width: 1.5; stroke-linecap: round"/>
   </g>
   <g id="line2d_22">
    <path d="M 72.425625 211.372151 
L 78.751521 209.359761 
L 85.077417 207.34737 
L 91.403313 205.334979 
L 97.729209 203.322588 
L 104.055105 201.310197 
L 110.381001 199.297806 
L 116.706897 197.285415 
L 123.032793 195.273025 
L 129.358688 193.260634 
L 135.684584 191.248243 
L 142.01048 189.235852 
L 148.336376 187.223461 
L 154.662272 185.21107 
L 160.988168 183.198679 
L 167.314064 181.186289 
L 173.63996 179.173898 
L 179.965856 177.161507 
L 186.291752 175.149116 
L 192.617648 173.136725 
L 198.943544 171.124334 
L 205.26944 169.111943 
L 211.595336 167.099553 
L 217.921232 165.087162 
L 224.247128 163.074771 
L 230.573024 161.06238 
L 236.89892 159.049989 
L 243.224815 157.037598 
L 249.550711 155.025207 
L 255.876607 153.012817 
L 262.202503 151.000426 
L 268.528399 148.988035 
L 274.854295 146.975644 
L 281.180191 144.963253 
L 287.506087 142.950862 
L 293.831983 140.938471 
L 300.157879 138.926081 
L 306.483775 136.91369 
L 312.809671 134.901299 
L 319.135567 132.888908 
L 325.461463 130.876517 
L 331.787359 128.864126 
L 338.113255 126.851735 
L 344.439151 124.839345 
L 350.765047 122.826954 
L 357.090942 120.814563 
L 363.416838 118.802172 
L 369.742734 116.789781 
L 376.06863 114.77739 
L 382.394526 112.764999 
L 388.720422 110.752609 
L 395.046318 108.740218 
L 401.372214 106.727827 
L 407.69811 104.715436 
L 414.024006 102.703045 
L 420.349902 100.690654 
L 426.675798 98.678263 
L 433.001694 96.665873 
L 439.32759 94.653482 
L 445.653486 92.641091 
L 451.979382 90.6287 
L 458.305278 88.616309 
L 464.631174 86.603918 
L 470.957069 84.591527 
L 477.282965 82.579137 
L 483.608861 80.566746 
L 489.934757 78.554355 
L 496.260653 76.541964 
L 502.586549 74.529573 
L 508.912445 72.517182 
L 515.238341 70.504791 
" clip-path="url(#pd89d493b7f)" style="fill: none; stroke-dasharray: 4.5,4.5; stroke-dashoffset: 0; stroke: #000000; stroke-width: 1.5"/>
   </g>
   <g id="line2d_23"/>
   <g id="line2d_24"/>
   <g id="line2d_25"/>
   <g id="line2d_26"/>
   <g id="line2d_27"/>
   <g id="patch_3">
    <path d="M 72.425625 224.06314 
L 72.425625 10.422776 
" style="fill: none; stroke: #ffffff; stroke-width: 1.25; stroke-linejoin: miter; stroke-linecap: square"/>
   </g>
   <g id="patch_4">
    <path d="M 72.425625 224.06314 
L 515.238341 224.06314 
" style="fill: none; stroke: #ffffff; stroke-width: 1.25; stroke-linejoin: miter; stroke-linecap: square"/>
   </g>
  </g>
  <g id="legend_1">
   <g id="patch_5">
    <path d="M 86.453625 127.990765 
L 201.506062 127.990765 
Q 204.146062 127.990765 204.146062 125.350765 
L 204.146062 29.79514 
Q 204.146062 27.15514 201.506062 27.15514 
L 86.453625 27.15514 
Q 83.813625 27.15514 83.813625 29.79514 
L 83.813625 125.350765 
Q 83.813625 127.990765 86.453625 127.990765 
z
" style="fill: #eaeaf2; opacity: 0.8; stroke: #cccccc; stroke-linejoin: miter"/>
   </g>
   <g id="line2d_28">
    <path d="M 89.093625 37.845078 
L 102.293625 37.845078 
L 115.493625 37.845078 
" style="fill: none; stroke: #dd8452; stroke-width: 1.5; stroke-linecap: round"/>
   </g>
   <g id="text_20">
    <!-- CF-Oracle -->
    <g style="fill: #262626" transform="translate(126.053625 42.465078) scale(0.132 -0.132)">
     <defs>
      <path id="DejaVuSans-43" d="M 4122 4306 
L 4122 3641 
Q 3803 3938 3442 4084 
Q 3081 4231 2675 4231 
Q 1875 4231 1450 3742 
Q 1025 3253 1025 2328 
Q 1025 1406 1450 917 
Q 1875 428 2675 428 
Q 3081 428 3442 575 
Q 3803 722 4122 1019 
L 4122 359 
Q 3791 134 3420 21 
Q 3050 -91 2638 -91 
Q 1578 -91 968 557 
Q 359 1206 359 2328 
Q 359 3453 968 4101 
Q 1578 4750 2638 4750 
Q 3056 4750 3426 4639 
Q 3797 4528 4122 4306 
z
" transform="scale(0.015625)"/>
      <path id="DejaVuSans-46" d="M 628 4666 
L 3309 4666 
L 3309 4134 
L 1259 4134 
L 1259 2759 
L 3109 2759 
L 3109 2228 
L 1259 2228 
L 1259 0 
L 628 0 
L 628 4666 
z
" transform="scale(0.015625)"/>
      <path id="DejaVuSans-2d" d="M 313 2009 
L 1997 2009 
L 1997 1497 
L 313 1497 
L 313 2009 
z
" transform="scale(0.015625)"/>
      <path id="DejaVuSans-72" d="M 2631 2963 
Q 2534 3019 2420 3045 
Q 2306 3072 2169 3072 
Q 1681 3072 1420 2755 
Q 1159 2438 1159 1844 
L 1159 0 
L 581 0 
L 581 3500 
L 1159 3500 
L 1159 2956 
Q 1341 3275 1631 3429 
Q 1922 3584 2338 3584 
Q 2397 3584 2469 3576 
Q 2541 3569 2628 3553 
L 2631 2963 
z
" transform="scale(0.015625)"/>
      <path id="DejaVuSans-61" d="M 2194 1759 
Q 1497 1759 1228 1600 
Q 959 1441 959 1056 
Q 959 750 1161 570 
Q 1363 391 1709 391 
Q 2188 391 2477 730 
Q 2766 1069 2766 1631 
L 2766 1759 
L 2194 1759 
z
M 3341 1997 
L 3341 0 
L 2766 0 
L 2766 531 
Q 2569 213 2275 61 
Q 1981 -91 1556 -91 
Q 1019 -91 701 211 
Q 384 513 384 1019 
Q 384 1609 779 1909 
Q 1175 2209 1959 2209 
L 2766 2209 
L 2766 2266 
Q 2766 2663 2505 2880 
Q 2244 3097 1772 3097 
Q 1472 3097 1187 3025 
Q 903 2953 641 2809 
L 641 3341 
Q 956 3463 1253 3523 
Q 1550 3584 1831 3584 
Q 2591 3584 2966 3190 
Q 3341 2797 3341 1997 
z
" transform="scale(0.015625)"/>
      <path id="DejaVuSans-63" d="M 3122 3366 
L 3122 2828 
Q 2878 2963 2633 3030 
Q 2388 3097 2138 3097 
Q 1578 3097 1268 2742 
Q 959 2388 959 1747 
Q 959 1106 1268 751 
Q 1578 397 2138 397 
Q 2388 397 2633 464 
Q 2878 531 3122 666 
L 3122 134 
Q 2881 22 2623 -34 
Q 2366 -91 2075 -91 
Q 1284 -91 818 406 
Q 353 903 353 1747 
Q 353 2603 823 3093 
Q 1294 3584 2113 3584 
Q 2378 3584 2631 3529 
Q 2884 3475 3122 3366 
z
" transform="scale(0.015625)"/>
      <path id="DejaVuSans-6c" d="M 603 4863 
L 1178 4863 
L 1178 0 
L 603 0 
L 603 4863 
z
" transform="scale(0.015625)"/>
     </defs>
     <use xlink:href="#DejaVuSans-43"/>
     <use xlink:href="#DejaVuSans-46" x="69.824219"/>
     <use xlink:href="#DejaVuSans-2d" x="127.34375"/>
     <use xlink:href="#DejaVuSans-4f" x="166.177734"/>
     <use xlink:href="#DejaVuSans-72" x="244.888672"/>
     <use xlink:href="#DejaVuSans-61" x="286.001953"/>
     <use xlink:href="#DejaVuSans-63" x="347.28125"/>
     <use xlink:href="#DejaVuSans-6c" x="402.261719"/>
     <use xlink:href="#DejaVuSans-65" x="430.044922"/>
    </g>
   </g>
   <g id="line2d_29">
    <path d="M 89.093625 57.220203 
L 102.293625 57.220203 
L 115.493625 57.220203 
" style="fill: none; stroke: #4c72b0; stroke-width: 1.5; stroke-linecap: round"/>
   </g>
   <g id="text_21">
    <!-- ChunkFunc -->
    <g style="fill: #262626" transform="translate(126.053625 61.840203) scale(0.132 -0.132)">
     <defs>
      <path id="DejaVuSans-68" d="M 3513 2113 
L 3513 0 
L 2938 0 
L 2938 2094 
Q 2938 2591 2744 2837 
Q 2550 3084 2163 3084 
Q 1697 3084 1428 2787 
Q 1159 2491 1159 1978 
L 1159 0 
L 581 0 
L 581 4863 
L 1159 4863 
L 1159 2956 
Q 1366 3272 1645 3428 
Q 1925 3584 2291 3584 
Q 2894 3584 3203 3211 
Q 3513 2838 3513 2113 
z
" transform="scale(0.015625)"/>
      <path id="DejaVuSans-75" d="M 544 1381 
L 544 3500 
L 1119 3500 
L 1119 1403 
Q 1119 906 1312 657 
Q 1506 409 1894 409 
Q 2359 409 2629 706 
Q 2900 1003 2900 1516 
L 2900 3500 
L 3475 3500 
L 3475 0 
L 2900 0 
L 2900 538 
Q 2691 219 2414 64 
Q 2138 -91 1772 -91 
Q 1169 -91 856 284 
Q 544 659 544 1381 
z
M 1991 3584 
L 1991 3584 
z
" transform="scale(0.015625)"/>
      <path id="DejaVuSans-6b" d="M 581 4863 
L 1159 4863 
L 1159 1991 
L 2875 3500 
L 3609 3500 
L 1753 1863 
L 3688 0 
L 2938 0 
L 1159 1709 
L 1159 0 
L 581 0 
L 581 4863 
z
" transform="scale(0.015625)"/>
     </defs>
     <use xlink:href="#DejaVuSans-43"/>
     <use xlink:href="#DejaVuSans-68" x="69.824219"/>
     <use xlink:href="#DejaVuSans-75" x="133.203125"/>
     <use xlink:href="#DejaVuSans-6e" x="196.582031"/>
     <use xlink:href="#DejaVuSans-6b" x="259.960938"/>
     <use xlink:href="#DejaVuSans-46" x="317.871094"/>
     <use xlink:href="#DejaVuSans-75" x="369.890625"/>
     <use xlink:href="#DejaVuSans-6e" x="433.269531"/>
     <use xlink:href="#DejaVuSans-63" x="496.648438"/>
    </g>
   </g>
   <g id="line2d_30">
    <path d="M 89.093625 76.595328 
L 102.293625 76.595328 
L 115.493625 76.595328 
" style="fill: none; stroke: #55a868; stroke-width: 1.5; stroke-linecap: round"/>
   </g>
   <g id="text_22">
    <!-- SLAM -->
    <g style="fill: #262626" transform="translate(126.053625 81.215328) scale(0.132 -0.132)">
     <defs>
      <path id="DejaVuSans-41" d="M 2188 4044 
L 1331 1722 
L 3047 1722 
L 2188 4044 
z
M 1831 4666 
L 2547 4666 
L 4325 0 
L 3669 0 
L 3244 1197 
L 1141 1197 
L 716 0 
L 50 0 
L 1831 4666 
z
" transform="scale(0.015625)"/>
      <path id="DejaVuSans-4d" d="M 628 4666 
L 1569 4666 
L 2759 1491 
L 3956 4666 
L 4897 4666 
L 4897 0 
L 4281 0 
L 4281 4097 
L 3078 897 
L 2444 897 
L 1241 4097 
L 1241 0 
L 628 0 
L 628 4666 
z
" transform="scale(0.015625)"/>
     </defs>
     <use xlink:href="#DejaVuSans-53"/>
     <use xlink:href="#DejaVuSans-4c" x="63.476562"/>
     <use xlink:href="#DejaVuSans-41" x="121.439453"/>
     <use xlink:href="#DejaVuSans-4d" x="189.847656"/>
    </g>
   </g>
   <g id="line2d_31">
    <path d="M 89.093625 95.970453 
L 102.293625 95.970453 
L 115.493625 95.970453 
" style="fill: none; stroke: #c44e52; stroke-width: 1.5; stroke-linecap: round"/>
   </g>
   <g id="text_23">
    <!-- StepConf -->
    <g style="fill: #262626" transform="translate(126.053625 100.590453) scale(0.132 -0.132)">
     <defs>
      <path id="DejaVuSans-74" d="M 1172 4494 
L 1172 3500 
L 2356 3500 
L 2356 3053 
L 1172 3053 
L 1172 1153 
Q 1172 725 1289 603 
Q 1406 481 1766 481 
L 2356 481 
L 2356 0 
L 1766 0 
Q 1100 0 847 248 
Q 594 497 594 1153 
L 594 3053 
L 172 3053 
L 172 3500 
L 594 3500 
L 594 4494 
L 1172 4494 
z
" transform="scale(0.015625)"/>
      <path id="DejaVuSans-66" d="M 2375 4863 
L 2375 4384 
L 1825 4384 
Q 1516 4384 1395 4259 
Q 1275 4134 1275 3809 
L 1275 3500 
L 2222 3500 
L 2222 3053 
L 1275 3053 
L 1275 0 
L 697 0 
L 697 3053 
L 147 3053 
L 147 3500 
L 697 3500 
L 697 3744 
Q 697 4328 969 4595 
Q 1241 4863 1831 4863 
L 2375 4863 
z
" transform="scale(0.015625)"/>
     </defs>
     <use xlink:href="#DejaVuSans-53"/>
     <use xlink:href="#DejaVuSans-74" x="63.476562"/>
     <use xlink:href="#DejaVuSans-65" x="102.685547"/>
     <use xlink:href="#DejaVuSans-70" x="164.208984"/>
     <use xlink:href="#DejaVuSans-43" x="227.685547"/>
     <use xlink:href="#DejaVuSans-6f" x="297.509766"/>
     <use xlink:href="#DejaVuSans-6e" x="358.691406"/>
     <use xlink:href="#DejaVuSans-66" x="422.070312"/>
    </g>
   </g>
   <g id="line2d_32">
    <path d="M 89.093625 115.345578 
L 102.293625 115.345578 
L 115.493625 115.345578 
" style="fill: none; stroke-dasharray: 4.5,4.5; stroke-dashoffset: 0; stroke: #000000; stroke-width: 1.5"/>
   </g>
   <g id="text_24">
    <!-- SLO -->
    <g style="fill: #262626" transform="translate(126.053625 119.965578) scale(0.132 -0.132)">
     <use xlink:href="#DejaVuSans-53"/>
     <use xlink:href="#DejaVuSans-4c" x="63.476562"/>
     <use xlink:href="#DejaVuSans-4f" x="115.564453"/>
    </g>
   </g>
  </g>
 </g>
 <defs>
  <clipPath id="pd89d493b7f">
   <rect x="72.425625" y="10.422776" width="442.812716" height="213.640364"/>
  </clipPath>
 </defs>
</svg>
